<?xml version="1.0" encoding="UTF-8" standalone="no"?>
<!DOCTYPE svg PUBLIC "-//W3C//DTD SVG 1.1//EN"
 "http://www.w3.org/Graphics/SVG/1.1/DTD/svg11.dtd">
<!-- Generated by graphviz version 15.0.0 (20260523.1842)
 -->
<!-- Title: VacationNotFoundException Pages: 1 -->
<svg width="150pt" height="160pt"
 viewBox="0.00 0.00 150.00 160.00" xmlns="http://www.w3.org/2000/svg" xmlns:xlink="http://www.w3.org/1999/xlink">
<g id="graph0" class="graph" transform="scale(1 1) rotate(0) translate(4 156)">
<title>VacationNotFoundException</title>
<!-- Node1 -->
<g id="Node000001" class="node">
<title>Node1</title>
<g id="a_Node000001"><a xlink:title="Thrown when a vacation request with a given identifier cannot be found.">
<polygon fill="#999999" stroke="none" points="141.75,-64 0,-64 0,0 141.75,0 141.75,-64"/>
<text xml:space="preserve" text-anchor="start" x="9" y="-50.25" font-family="Helvetica,sans-Serif" font-size="10.00">VacationNotFoundException</text>
<text xml:space="preserve" text-anchor="start" x="69.38" y="-34.25" font-family="Helvetica,sans-Serif" font-size="10.00"> </text>
<text xml:space="preserve" text-anchor="start" x="4" y="-18.25" font-family="Helvetica,sans-Serif" font-size="10.00">+</text>
<text xml:space="preserve" text-anchor="start" x="14" y="-18.25" font-family="Helvetica,sans-Serif" font-size="10.00">VacationNotFoundException</text>
<text xml:space="preserve" text-anchor="start" x="14" y="-6.25" font-family="Helvetica,sans-Serif" font-size="10.00">(String message)</text>
<polygon fill="#666666" stroke="#666666" points="0,-46 0,-46 141.75,-46 141.75,-46 0,-46"/>
<polygon fill="#666666" stroke="#666666" points="0,-30 0,-30 141.75,-30 141.75,-30 0,-30"/>
<polygon fill="none" stroke="#666666" points="0,0 0,-64 141.75,-64 141.75,0 0,0"/>
</a>
</g>
</g>
<!-- Node2 -->
<g id="Node000002" class="node">
<title>Node2</title>
<g id="a_Node000002"><a xlink:title=" ">
<polygon fill="white" stroke="none" points="115,-152 26.75,-152 26.75,-100 115,-100 115,-152"/>
<text xml:space="preserve" text-anchor="start" x="30.75" y="-138.25" font-family="Helvetica,sans-Serif" font-size="10.00">RuntimeException</text>
<text xml:space="preserve" text-anchor="start" x="69.38" y="-122.25" font-family="Helvetica,sans-Serif" font-size="10.00"> </text>
<text xml:space="preserve" text-anchor="start" x="69.38" y="-106.25" font-family="Helvetica,sans-Serif" font-size="10.00"> </text>
<polygon fill="#bfbfbf" stroke="#bfbfbf" points="26.75,-134 26.75,-134 115,-134 115,-134 26.75,-134"/>
<polygon fill="#bfbfbf" stroke="#bfbfbf" points="26.75,-118 26.75,-118 115,-118 115,-118 26.75,-118"/>
<polygon fill="none" stroke="#bfbfbf" points="26.75,-100 26.75,-152 115,-152 115,-100 26.75,-100"/>
</a>
</g>
</g>
<!-- Node2&#45;&gt;Node1 -->
<g id="edge1_Node000001_Node000002" class="edge">
<title>Node2&#45;&gt;Node1</title>
<g id="a_edge1_Node000001_Node000002"><a xlink:title=" ">
<path fill="none" stroke="#63b8ff" d="M70.88,-89.06C70.88,-80.78 70.88,-72.04 70.88,-63.98"/>
<polygon fill="none" stroke="#63b8ff" points="67.38,-88.83 70.88,-98.83 74.38,-88.83 67.38,-88.83"/>
</a>
</g>
</g>
</g>
</svg>
