<?xml version="1.0" encoding="UTF-8" standalone="no"?>
<!DOCTYPE svg PUBLIC "-//W3C//DTD SVG 1.1//EN"
 "http://www.w3.org/Graphics/SVG/1.1/DTD/svg11.dtd">
<!-- Generated by graphviz version 15.0.0 (20260523.1842)
 -->
<!-- Title: Buyer Pages: 1 -->
<svg width="161pt" height="476pt"
 viewBox="0.00 0.00 161.00 476.00" xmlns="http://www.w3.org/2000/svg" xmlns:xlink="http://www.w3.org/1999/xlink">
<g id="graph0" class="graph" transform="scale(1 1) rotate(0) translate(4 472)">
<title>Buyer</title>
<!-- Node1 -->
<g id="Node000001" class="node">
<title>Node1</title>
<g id="a_Node000001"><a xlink:title="Part of the purchasing department.">
<polygon fill="#999999" stroke="none" points="147.75,-108 5.25,-108 5.25,0 147.75,0 147.75,-108"/>
<text xml:space="preserve" text-anchor="start" x="63.75" y="-94.25" font-family="Helvetica,sans-Serif" font-size="10.00">Buyer</text>
<text xml:space="preserve" text-anchor="start" x="75" y="-78.25" font-family="Helvetica,sans-Serif" font-size="10.00"> </text>
<text xml:space="preserve" text-anchor="start" x="9.25" y="-62.25" font-family="Helvetica,sans-Serif" font-size="10.00">+</text>
<text xml:space="preserve" text-anchor="start" x="19.25" y="-62.25" font-family="Helvetica,sans-Serif" font-size="10.00">Role getSystemRole()</text>
<text xml:space="preserve" text-anchor="start" x="9.25" y="-46.25" font-family="Helvetica,sans-Serif" font-size="10.00">+</text>
<text xml:space="preserve" text-anchor="start" x="19.25" y="-46.25" font-family="Helvetica,sans-Serif" font-size="10.00">EmployeeType getEmployee</text>
<text xml:space="preserve" text-anchor="start" x="19.25" y="-34.25" font-family="Helvetica,sans-Serif" font-size="10.00">Type()</text>
<text xml:space="preserve" text-anchor="start" x="9.25" y="-18.25" font-family="Helvetica,sans-Serif" font-size="10.00">+</text>
<text xml:space="preserve" text-anchor="start" x="19.25" y="-18.25" font-family="Helvetica,sans-Serif" font-size="10.00">void addResource(Resource</text>
<text xml:space="preserve" text-anchor="start" x="19.25" y="-6.25" font-family="Helvetica,sans-Serif" font-size="10.00"> resource, int quantity)</text>
<polygon fill="#666666" stroke="#666666" points="5.25,-90 5.25,-90 147.75,-90 147.75,-90 5.25,-90"/>
<polygon fill="#666666" stroke="#666666" points="5.25,-74 5.25,-74 147.75,-74 147.75,-74 5.25,-74"/>
<polygon fill="none" stroke="#666666" points="5.25,0 5.25,-108 147.75,-108 147.75,0 5.25,0"/>
</a>
</g>
</g>
<!-- Node2 -->
<g id="Node000002" class="node">
<title>Node2</title>
<g id="a_Node000002"><a xlink:href="classvixhealthsystem_1_1model_1_1person_1_1employee_1_1_employee.html" target="_top" xlink:title="Represents a generic employee in the system.">
<polygon fill="white" stroke="none" points="153,-300 0,-300 0,-144 153,-144 153,-300"/>
<text xml:space="preserve" text-anchor="start" x="54.75" y="-286.25" font-family="Helvetica,sans-Serif" font-size="10.00">Employee</text>
<text xml:space="preserve" text-anchor="start" x="75" y="-270.25" font-family="Helvetica,sans-Serif" font-size="10.00"> </text>
<text xml:space="preserve" text-anchor="start" x="4" y="-254.25" font-family="Helvetica,sans-Serif" font-size="10.00">+</text>
<text xml:space="preserve" text-anchor="start" x="14" y="-254.25" font-family="Helvetica,sans-Serif" font-size="10.00">abstract Role getSystemRole()</text>
<text xml:space="preserve" text-anchor="start" x="4" y="-238.25" font-family="Helvetica,sans-Serif" font-size="10.00">+</text>
<text xml:space="preserve" text-anchor="start" x="14" y="-238.25" font-family="Helvetica,sans-Serif" font-size="10.00">abstract EmployeeType</text>
<text xml:space="preserve" text-anchor="start" x="14" y="-226.25" font-family="Helvetica,sans-Serif" font-size="10.00"> getEmployeeType()</text>
<text xml:space="preserve" text-anchor="start" x="4" y="-210.25" font-family="Helvetica,sans-Serif" font-size="10.00">+</text>
<text xml:space="preserve" text-anchor="start" x="14" y="-210.25" font-family="Helvetica,sans-Serif" font-size="10.00">boolean hasFacilityStorage()</text>
<text xml:space="preserve" text-anchor="start" x="4" y="-194.25" font-family="Helvetica,sans-Serif" font-size="10.00">+</text>
<text xml:space="preserve" text-anchor="start" x="14" y="-194.25" font-family="Helvetica,sans-Serif" font-size="10.00">Storage getFacilityStorage()</text>
<text xml:space="preserve" text-anchor="start" x="4" y="-178.25" font-family="Helvetica,sans-Serif" font-size="10.00">+</text>
<text xml:space="preserve" text-anchor="start" x="14" y="-178.25" font-family="Helvetica,sans-Serif" font-size="10.00">String getFacilityName()</text>
<text xml:space="preserve" text-anchor="start" x="4" y="-162.25" font-family="Helvetica,sans-Serif" font-size="10.00">+</text>
<text xml:space="preserve" text-anchor="start" x="14" y="-162.25" font-family="Helvetica,sans-Serif" font-size="10.00">void takeResource(Resource</text>
<text xml:space="preserve" text-anchor="start" x="14" y="-150.25" font-family="Helvetica,sans-Serif" font-size="10.00"> r, int q)</text>
<polygon fill="#666666" stroke="#666666" points="0,-282 0,-282 153,-282 153,-282 0,-282"/>
<polygon fill="#666666" stroke="#666666" points="0,-266 0,-266 153,-266 153,-266 0,-266"/>
<polygon fill="none" stroke="#666666" points="0,-144 0,-300 153,-300 153,-144 0,-144"/>
</a>
</g>
</g>
<!-- Node2&#45;&gt;Node1 -->
<g id="edge1_Node000001_Node000002" class="edge">
<title>Node2&#45;&gt;Node1</title>
<g id="a_edge1_Node000001_Node000002"><a xlink:title=" ">
<path fill="none" stroke="#63b8ff" d="M76.5,-132.96C76.5,-124.33 76.5,-115.77 76.5,-107.66"/>
<polygon fill="none" stroke="#63b8ff" points="73,-132.8 76.5,-142.8 80,-132.8 73,-132.8"/>
</a>
</g>
</g>
<!-- Node3 -->
<g id="Node000003" class="node">
<title>Node3</title>
<g id="a_Node000003"><a xlink:href="classvixhealthsystem_1_1model_1_1person_1_1_person.html" target="_top" xlink:title="Base class for all people in the system.">
<polygon fill="white" stroke="none" points="147.38,-468 5.62,-468 5.62,-336 147.38,-336 147.38,-468"/>
<text xml:space="preserve" text-anchor="start" x="61.12" y="-454.25" font-family="Helvetica,sans-Serif" font-size="10.00">Person</text>
<text xml:space="preserve" text-anchor="start" x="75" y="-438.25" font-family="Helvetica,sans-Serif" font-size="10.00"> </text>
<text xml:space="preserve" text-anchor="start" x="9.62" y="-422.25" font-family="Helvetica,sans-Serif" font-size="10.00">+</text>
<text xml:space="preserve" text-anchor="start" x="19.62" y="-422.25" font-family="Helvetica,sans-Serif" font-size="10.00">Person()</text>
<text xml:space="preserve" text-anchor="start" x="9.62" y="-406.25" font-family="Helvetica,sans-Serif" font-size="10.00">+</text>
<text xml:space="preserve" text-anchor="start" x="19.62" y="-406.25" font-family="Helvetica,sans-Serif" font-size="10.00">Person(String name,</text>
<text xml:space="preserve" text-anchor="start" x="19.62" y="-394.25" font-family="Helvetica,sans-Serif" font-size="10.00"> String surname, LocalDate</text>
<text xml:space="preserve" text-anchor="start" x="19.62" y="-382.25" font-family="Helvetica,sans-Serif" font-size="10.00"> birthDate, String birthPlace,</text>
<text xml:space="preserve" text-anchor="start" x="19.62" y="-370.25" font-family="Helvetica,sans-Serif" font-size="10.00"> char gender, String email,</text>
<text xml:space="preserve" text-anchor="start" x="19.62" y="-358.25" font-family="Helvetica,sans-Serif" font-size="10.00"> String phoneNumber)</text>
<text xml:space="preserve" text-anchor="start" x="9.62" y="-342.25" font-family="Helvetica,sans-Serif" font-size="10.00">+</text>
<text xml:space="preserve" text-anchor="start" x="19.62" y="-342.25" font-family="Helvetica,sans-Serif" font-size="10.00">int getAge()</text>
<polygon fill="#666666" stroke="#666666" points="5.62,-450 5.62,-450 147.38,-450 147.38,-450 5.62,-450"/>
<polygon fill="#666666" stroke="#666666" points="5.62,-434 5.62,-434 147.38,-434 147.38,-434 5.62,-434"/>
<polygon fill="none" stroke="#666666" points="5.62,-336 5.62,-468 147.38,-468 147.38,-336 5.62,-336"/>
</a>
</g>
</g>
<!-- Node3&#45;&gt;Node2 -->
<g id="edge2_Node000002_Node000003" class="edge">
<title>Node3&#45;&gt;Node2</title>
<g id="a_edge2_Node000002_Node000003"><a xlink:title=" ">
<path fill="none" stroke="#63b8ff" d="M76.5,-324.99C76.5,-316.66 76.5,-308.16 76.5,-299.82"/>
<polygon fill="none" stroke="#63b8ff" points="73,-324.72 76.5,-334.72 80,-324.72 73,-324.72"/>
</a>
</g>
</g>
</g>
</svg>
