<?xml version="1.0" encoding="UTF-8" standalone="no"?>
<!DOCTYPE svg PUBLIC "-//W3C//DTD SVG 1.1//EN"
 "http://www.w3.org/Graphics/SVG/1.1/DTD/svg11.dtd">
<!-- Generated by graphviz version 15.0.0 (20260523.1842)
 -->
<!-- Title: MedicalSpecialist Pages: 1 -->
<svg width="165pt" height="520pt"
 viewBox="0.00 0.00 165.00 520.00" xmlns="http://www.w3.org/2000/svg" xmlns:xlink="http://www.w3.org/1999/xlink">
<g id="graph0" class="graph" transform="scale(1 1) rotate(0) translate(4 516)">
<title>MedicalSpecialist</title>
<!-- Node1 -->
<g id="Node000001" class="node">
<title>Node1</title>
<g id="a_Node000001"><a xlink:title="Represents medical personnel such as doctors, surgeons, specialists and nurses.">
<polygon fill="#999999" stroke="none" points="156.75,-152 0,-152 0,0 156.75,0 156.75,-152"/>
<text xml:space="preserve" text-anchor="start" x="40.12" y="-138.25" font-family="Helvetica,sans-Serif" font-size="10.00">MedicalSpecialist</text>
<text xml:space="preserve" text-anchor="start" x="76.88" y="-122.25" font-family="Helvetica,sans-Serif" font-size="10.00"> </text>
<text xml:space="preserve" text-anchor="start" x="4" y="-106.25" font-family="Helvetica,sans-Serif" font-size="10.00">+</text>
<text xml:space="preserve" text-anchor="start" x="14" y="-106.25" font-family="Helvetica,sans-Serif" font-size="10.00">MedicalSpecialist()</text>
<text xml:space="preserve" text-anchor="start" x="4" y="-90.25" font-family="Helvetica,sans-Serif" font-size="10.00">+</text>
<text xml:space="preserve" text-anchor="start" x="14" y="-90.25" font-family="Helvetica,sans-Serif" font-size="10.00">Role getSystemRole()</text>
<text xml:space="preserve" text-anchor="start" x="4" y="-74.25" font-family="Helvetica,sans-Serif" font-size="10.00">+</text>
<text xml:space="preserve" text-anchor="start" x="14" y="-74.25" font-family="Helvetica,sans-Serif" font-size="10.00">EmployeeType getEmployee</text>
<text xml:space="preserve" text-anchor="start" x="14" y="-62.25" font-family="Helvetica,sans-Serif" font-size="10.00">Type()</text>
<text xml:space="preserve" text-anchor="start" x="4" y="-46.25" font-family="Helvetica,sans-Serif" font-size="10.00">+</text>
<text xml:space="preserve" text-anchor="start" x="14" y="-46.25" font-family="Helvetica,sans-Serif" font-size="10.00">void appPrescriptionForPatient</text>
<text xml:space="preserve" text-anchor="start" x="14" y="-34.25" font-family="Helvetica,sans-Serif" font-size="10.00">(Patient p, Prescription pr)</text>
<text xml:space="preserve" text-anchor="start" x="4" y="-18.25" font-family="Helvetica,sans-Serif" font-size="10.00">+</text>
<text xml:space="preserve" text-anchor="start" x="14" y="-18.25" font-family="Helvetica,sans-Serif" font-size="10.00">void scheduleSurgeryForPatient</text>
<text xml:space="preserve" text-anchor="start" x="14" y="-6.25" font-family="Helvetica,sans-Serif" font-size="10.00">(Patient p, Surgery s)</text>
<polygon fill="#666666" stroke="#666666" points="0,-134 0,-134 156.75,-134 156.75,-134 0,-134"/>
<polygon fill="#666666" stroke="#666666" points="0,-118 0,-118 156.75,-118 156.75,-118 0,-118"/>
<polygon fill="none" stroke="#666666" points="0,0 0,-152 156.75,-152 156.75,0 0,0"/>
</a>
</g>
</g>
<!-- Node2 -->
<g id="Node000002" class="node">
<title>Node2</title>
<g id="a_Node000002"><a xlink:href="classvixhealthsystem_1_1model_1_1person_1_1employee_1_1_employee.html" target="_top" xlink:title="Represents a generic employee in the system.">
<polygon fill="white" stroke="none" points="154.88,-344 1.88,-344 1.88,-188 154.88,-188 154.88,-344"/>
<text xml:space="preserve" text-anchor="start" x="56.62" y="-330.25" font-family="Helvetica,sans-Serif" font-size="10.00">Employee</text>
<text xml:space="preserve" text-anchor="start" x="76.88" y="-314.25" font-family="Helvetica,sans-Serif" font-size="10.00"> </text>
<text xml:space="preserve" text-anchor="start" x="5.88" y="-298.25" font-family="Helvetica,sans-Serif" font-size="10.00">+</text>
<text xml:space="preserve" text-anchor="start" x="15.88" y="-298.25" font-family="Helvetica,sans-Serif" font-size="10.00">abstract Role getSystemRole()</text>
<text xml:space="preserve" text-anchor="start" x="5.88" y="-282.25" font-family="Helvetica,sans-Serif" font-size="10.00">+</text>
<text xml:space="preserve" text-anchor="start" x="15.88" y="-282.25" font-family="Helvetica,sans-Serif" font-size="10.00">abstract EmployeeType</text>
<text xml:space="preserve" text-anchor="start" x="15.88" y="-270.25" font-family="Helvetica,sans-Serif" font-size="10.00"> getEmployeeType()</text>
<text xml:space="preserve" text-anchor="start" x="5.88" y="-254.25" font-family="Helvetica,sans-Serif" font-size="10.00">+</text>
<text xml:space="preserve" text-anchor="start" x="15.88" y="-254.25" font-family="Helvetica,sans-Serif" font-size="10.00">boolean hasFacilityStorage()</text>
<text xml:space="preserve" text-anchor="start" x="5.88" y="-238.25" font-family="Helvetica,sans-Serif" font-size="10.00">+</text>
<text xml:space="preserve" text-anchor="start" x="15.88" y="-238.25" font-family="Helvetica,sans-Serif" font-size="10.00">Storage getFacilityStorage()</text>
<text xml:space="preserve" text-anchor="start" x="5.88" y="-222.25" font-family="Helvetica,sans-Serif" font-size="10.00">+</text>
<text xml:space="preserve" text-anchor="start" x="15.88" y="-222.25" font-family="Helvetica,sans-Serif" font-size="10.00">String getFacilityName()</text>
<text xml:space="preserve" text-anchor="start" x="5.88" y="-206.25" font-family="Helvetica,sans-Serif" font-size="10.00">+</text>
<text xml:space="preserve" text-anchor="start" x="15.88" y="-206.25" font-family="Helvetica,sans-Serif" font-size="10.00">void takeResource(Resource</text>
<text xml:space="preserve" text-anchor="start" x="15.88" y="-194.25" font-family="Helvetica,sans-Serif" font-size="10.00"> r, int q)</text>
<polygon fill="#666666" stroke="#666666" points="1.88,-326 1.88,-326 154.88,-326 154.88,-326 1.88,-326"/>
<polygon fill="#666666" stroke="#666666" points="1.88,-310 1.88,-310 154.88,-310 154.88,-310 1.88,-310"/>
<polygon fill="none" stroke="#666666" points="1.88,-188 1.88,-344 154.88,-344 154.88,-188 1.88,-188"/>
</a>
</g>
</g>
<!-- Node2&#45;&gt;Node1 -->
<g id="edge1_Node000001_Node000002" class="edge">
<title>Node2&#45;&gt;Node1</title>
<g id="a_edge1_Node000001_Node000002"><a xlink:title=" ">
<path fill="none" stroke="#63b8ff" d="M78.38,-176.94C78.38,-168.59 78.38,-160.18 78.38,-151.97"/>
<polygon fill="none" stroke="#63b8ff" points="74.88,-176.75 78.38,-186.75 81.88,-176.75 74.88,-176.75"/>
</a>
</g>
</g>
<!-- Node3 -->
<g id="Node000003" class="node">
<title>Node3</title>
<g id="a_Node000003"><a xlink:href="classvixhealthsystem_1_1model_1_1person_1_1_person.html" target="_top" xlink:title="Base class for all people in the system.">
<polygon fill="white" stroke="none" points="149.25,-512 7.5,-512 7.5,-380 149.25,-380 149.25,-512"/>
<text xml:space="preserve" text-anchor="start" x="63" y="-498.25" font-family="Helvetica,sans-Serif" font-size="10.00">Person</text>
<text xml:space="preserve" text-anchor="start" x="76.88" y="-482.25" font-family="Helvetica,sans-Serif" font-size="10.00"> </text>
<text xml:space="preserve" text-anchor="start" x="11.5" y="-466.25" font-family="Helvetica,sans-Serif" font-size="10.00">+</text>
<text xml:space="preserve" text-anchor="start" x="21.5" y="-466.25" font-family="Helvetica,sans-Serif" font-size="10.00">Person()</text>
<text xml:space="preserve" text-anchor="start" x="11.5" y="-450.25" font-family="Helvetica,sans-Serif" font-size="10.00">+</text>
<text xml:space="preserve" text-anchor="start" x="21.5" y="-450.25" font-family="Helvetica,sans-Serif" font-size="10.00">Person(String name,</text>
<text xml:space="preserve" text-anchor="start" x="21.5" y="-438.25" font-family="Helvetica,sans-Serif" font-size="10.00"> String surname, LocalDate</text>
<text xml:space="preserve" text-anchor="start" x="21.5" y="-426.25" font-family="Helvetica,sans-Serif" font-size="10.00"> birthDate, String birthPlace,</text>
<text xml:space="preserve" text-anchor="start" x="21.5" y="-414.25" font-family="Helvetica,sans-Serif" font-size="10.00"> char gender, String email,</text>
<text xml:space="preserve" text-anchor="start" x="21.5" y="-402.25" font-family="Helvetica,sans-Serif" font-size="10.00"> String phoneNumber)</text>
<text xml:space="preserve" text-anchor="start" x="11.5" y="-386.25" font-family="Helvetica,sans-Serif" font-size="10.00">+</text>
<text xml:space="preserve" text-anchor="start" x="21.5" y="-386.25" font-family="Helvetica,sans-Serif" font-size="10.00">int getAge()</text>
<polygon fill="#666666" stroke="#666666" points="7.5,-494 7.5,-494 149.25,-494 149.25,-494 7.5,-494"/>
<polygon fill="#666666" stroke="#666666" points="7.5,-478 7.5,-478 149.25,-478 149.25,-478 7.5,-478"/>
<polygon fill="none" stroke="#666666" points="7.5,-380 7.5,-512 149.25,-512 149.25,-380 7.5,-380"/>
</a>
</g>
</g>
<!-- Node3&#45;&gt;Node2 -->
<g id="edge2_Node000002_Node000003" class="edge">
<title>Node3&#45;&gt;Node2</title>
<g id="a_edge2_Node000002_Node000003"><a xlink:title=" ">
<path fill="none" stroke="#63b8ff" d="M78.38,-368.99C78.38,-360.66 78.38,-352.16 78.38,-343.82"/>
<polygon fill="none" stroke="#63b8ff" points="74.88,-368.72 78.38,-378.72 81.88,-368.72 74.88,-368.72"/>
</a>
</g>
</g>
</g>
</svg>
