<?xml version="1.0" encoding="UTF-8" standalone="no"?>
<!DOCTYPE svg PUBLIC "-//W3C//DTD SVG 1.1//EN"
 "http://www.w3.org/Graphics/SVG/1.1/DTD/svg11.dtd">
<!-- Generated by graphviz version 15.0.0 (20260523.1842)
 -->
<!-- Title: SpecialistController Pages: 1 -->
<svg width="132pt" height="112pt"
 viewBox="0.00 0.00 132.00 112.00" xmlns="http://www.w3.org/2000/svg" xmlns:xlink="http://www.w3.org/1999/xlink">
<g id="graph0" class="graph" transform="scale(1 1) rotate(0) translate(4 108)">
<title>SpecialistController</title>
<!-- Node1 -->
<g id="Node000001" class="node">
<title>Node1</title>
<g id="a_Node000001"><a xlink:title="Controller for the public&#45;facing specialist directory — base URL /specialists.">
<polygon fill="#999999" stroke="none" points="123.75,-104 0,-104 0,0 123.75,0 123.75,-104"/>
<text xml:space="preserve" text-anchor="start" x="19.5" y="-90.25" font-family="Helvetica,sans-Serif" font-size="10.00">SpecialistController</text>
<text xml:space="preserve" text-anchor="start" x="60.38" y="-74.25" font-family="Helvetica,sans-Serif" font-size="10.00"> </text>
<text xml:space="preserve" text-anchor="start" x="4" y="-58.25" font-family="Helvetica,sans-Serif" font-size="10.00">+</text>
<text xml:space="preserve" text-anchor="start" x="14" y="-58.25" font-family="Helvetica,sans-Serif" font-size="10.00">String listSpecialists</text>
<text xml:space="preserve" text-anchor="start" x="14" y="-46.25" font-family="Helvetica,sans-Serif" font-size="10.00">(Model model)</text>
<text xml:space="preserve" text-anchor="start" x="4" y="-30.25" font-family="Helvetica,sans-Serif" font-size="10.00">+</text>
<text xml:space="preserve" text-anchor="start" x="14" y="-30.25" font-family="Helvetica,sans-Serif" font-size="10.00">String specialistDetail</text>
<text xml:space="preserve" text-anchor="start" x="14" y="-18.25" font-family="Helvetica,sans-Serif" font-size="10.00">(@PathVariable Long id,</text>
<text xml:space="preserve" text-anchor="start" x="14" y="-6.25" font-family="Helvetica,sans-Serif" font-size="10.00"> Model model)</text>
<polygon fill="#666666" stroke="#666666" points="0,-86 0,-86 123.75,-86 123.75,-86 0,-86"/>
<polygon fill="#666666" stroke="#666666" points="0,-70 0,-70 123.75,-70 123.75,-70 0,-70"/>
<polygon fill="none" stroke="#666666" points="0,0 0,-104 123.75,-104 123.75,0 0,0"/>
</a>
</g>
</g>
</g>
</svg>
