<?xml version="1.0" encoding="UTF-8" standalone="no"?>
<!DOCTYPE svg PUBLIC "-//W3C//DTD SVG 1.1//EN"
 "http://www.w3.org/Graphics/SVG/1.1/DTD/svg11.dtd">
<!-- Generated by graphviz version 15.0.0 (20260523.1842)
 -->
<!-- Title: ContactController Pages: 1 -->
<svg width="163pt" height="148pt"
 viewBox="0.00 0.00 163.00 148.00" xmlns="http://www.w3.org/2000/svg" xmlns:xlink="http://www.w3.org/1999/xlink">
<g id="graph0" class="graph" transform="scale(1 1) rotate(0) translate(4 144)">
<title>ContactController</title>
<!-- Node1 -->
<g id="Node000001" class="node">
<title>Node1</title>
<g id="a_Node000001"><a xlink:title="Controller for the public contact form — no base URL prefix.">
<polygon fill="#999999" stroke="none" points="155.25,-140 0,-140 0,0 155.25,0 155.25,-140"/>
<text xml:space="preserve" text-anchor="start" x="39.38" y="-126.25" font-family="Helvetica,sans-Serif" font-size="10.00">ContactController</text>
<text xml:space="preserve" text-anchor="start" x="76.12" y="-110.25" font-family="Helvetica,sans-Serif" font-size="10.00"> </text>
<text xml:space="preserve" text-anchor="start" x="4" y="-94.25" font-family="Helvetica,sans-Serif" font-size="10.00">+</text>
<text xml:space="preserve" text-anchor="start" x="14" y="-94.25" font-family="Helvetica,sans-Serif" font-size="10.00">String contact(Model</text>
<text xml:space="preserve" text-anchor="start" x="14" y="-82.25" font-family="Helvetica,sans-Serif" font-size="10.00"> model)</text>
<text xml:space="preserve" text-anchor="start" x="4" y="-66.25" font-family="Helvetica,sans-Serif" font-size="10.00">+</text>
<text xml:space="preserve" text-anchor="start" x="14" y="-66.25" font-family="Helvetica,sans-Serif" font-size="10.00">String submitContact</text>
<text xml:space="preserve" text-anchor="start" x="14" y="-54.25" font-family="Helvetica,sans-Serif" font-size="10.00">(@RequestParam String</text>
<text xml:space="preserve" text-anchor="start" x="14" y="-42.25" font-family="Helvetica,sans-Serif" font-size="10.00"> name, @RequestParam String</text>
<text xml:space="preserve" text-anchor="start" x="14" y="-30.25" font-family="Helvetica,sans-Serif" font-size="10.00"> email, @RequestParam String</text>
<text xml:space="preserve" text-anchor="start" x="14" y="-18.25" font-family="Helvetica,sans-Serif" font-size="10.00"> message, RedirectAttributes</text>
<text xml:space="preserve" text-anchor="start" x="14" y="-6.25" font-family="Helvetica,sans-Serif" font-size="10.00"> redirectAttributes)</text>
<polygon fill="#666666" stroke="#666666" points="0,-122 0,-122 155.25,-122 155.25,-122 0,-122"/>
<polygon fill="#666666" stroke="#666666" points="0,-106 0,-106 155.25,-106 155.25,-106 0,-106"/>
<polygon fill="none" stroke="#666666" points="0,0 0,-140 155.25,-140 155.25,0 0,0"/>
</a>
</g>
</g>
</g>
</svg>
