<?xml version="1.0" encoding="UTF-8" standalone="no"?>
<!DOCTYPE svg PUBLIC "-//W3C//DTD SVG 1.1//EN"
 "http://www.w3.org/Graphics/SVG/1.1/DTD/svg11.dtd">
<!-- Generated by graphviz version 15.0.0 (20260523.1842)
 -->
<!-- Title: SpecializedRoom Pages: 1 -->
<svg width="158pt" height="220pt"
 viewBox="0.00 0.00 158.00 220.00" xmlns="http://www.w3.org/2000/svg" xmlns:xlink="http://www.w3.org/1999/xlink">
<g id="graph0" class="graph" transform="scale(1 1) rotate(0) translate(4 216)">
<title>SpecializedRoom</title>
<!-- Node1 -->
<g id="Node000001" class="node">
<title>Node1</title>
<g id="a_Node000001"><a xlink:title="Represents a specialized room containing medical equipment.">
<polygon fill="#999999" stroke="none" points="150,-108 0,-108 0,0 150,0 150,-108"/>
<text xml:space="preserve" text-anchor="start" x="36.75" y="-94.25" font-family="Helvetica,sans-Serif" font-size="10.00">SpecializedRoom</text>
<text xml:space="preserve" text-anchor="start" x="73.5" y="-78.25" font-family="Helvetica,sans-Serif" font-size="10.00"> </text>
<text xml:space="preserve" text-anchor="start" x="4" y="-62.25" font-family="Helvetica,sans-Serif" font-size="10.00">+</text>
<text xml:space="preserve" text-anchor="start" x="14" y="-62.25" font-family="Helvetica,sans-Serif" font-size="10.00">SpecializedRoom()</text>
<text xml:space="preserve" text-anchor="start" x="4" y="-46.25" font-family="Helvetica,sans-Serif" font-size="10.00">+</text>
<text xml:space="preserve" text-anchor="start" x="14" y="-46.25" font-family="Helvetica,sans-Serif" font-size="10.00">SpecializedRoom(String</text>
<text xml:space="preserve" text-anchor="start" x="14" y="-34.25" font-family="Helvetica,sans-Serif" font-size="10.00"> number, String specialization)</text>
<text xml:space="preserve" text-anchor="start" x="4.38" y="-18.25" font-family="Helvetica,sans-Serif" font-size="10.00">#</text>
<text xml:space="preserve" text-anchor="start" x="14" y="-18.25" font-family="Helvetica,sans-Serif" font-size="10.00">List&lt; Machinery &gt; getFaulty</text>
<text xml:space="preserve" text-anchor="start" x="14" y="-6.25" font-family="Helvetica,sans-Serif" font-size="10.00">Machines()</text>
<polygon fill="#666666" stroke="#666666" points="0,-90 0,-90 150,-90 150,-90 0,-90"/>
<polygon fill="#666666" stroke="#666666" points="0,-74 0,-74 150,-74 150,-74 0,-74"/>
<polygon fill="none" stroke="#666666" points="0,0 0,-108 150,-108 150,0 0,0"/>
</a>
</g>
</g>
<!-- Node2 -->
<g id="Node000002" class="node">
<title>Node2</title>
<g id="a_Node000002"><a xlink:href="classvixhealthsystem_1_1model_1_1facility_1_1_room.html" target="_top" xlink:title="Represents a generic room inside a medical facility.">
<polygon fill="white" stroke="none" points="130.5,-212 19.5,-212 19.5,-144 130.5,-144 130.5,-212"/>
<text xml:space="preserve" text-anchor="start" x="61.88" y="-198.25" font-family="Helvetica,sans-Serif" font-size="10.00">Room</text>
<text xml:space="preserve" text-anchor="start" x="73.5" y="-182.25" font-family="Helvetica,sans-Serif" font-size="10.00"> </text>
<text xml:space="preserve" text-anchor="start" x="23.5" y="-166.25" font-family="Helvetica,sans-Serif" font-size="10.00">+</text>
<text xml:space="preserve" text-anchor="start" x="33.5" y="-166.25" font-family="Helvetica,sans-Serif" font-size="10.00">Room()</text>
<text xml:space="preserve" text-anchor="start" x="23.5" y="-150.25" font-family="Helvetica,sans-Serif" font-size="10.00">+</text>
<text xml:space="preserve" text-anchor="start" x="33.5" y="-150.25" font-family="Helvetica,sans-Serif" font-size="10.00">Room(String number)</text>
<polygon fill="#666666" stroke="#666666" points="19.5,-194 19.5,-194 130.5,-194 130.5,-194 19.5,-194"/>
<polygon fill="#666666" stroke="#666666" points="19.5,-178 19.5,-178 130.5,-178 130.5,-178 19.5,-178"/>
<polygon fill="none" stroke="#666666" points="19.5,-144 19.5,-212 130.5,-212 130.5,-144 19.5,-144"/>
</a>
</g>
</g>
<!-- Node2&#45;&gt;Node1 -->
<g id="edge1_Node000001_Node000002" class="edge">
<title>Node2&#45;&gt;Node1</title>
<g id="a_edge1_Node000001_Node000002"><a xlink:title=" ">
<path fill="none" stroke="#63b8ff" d="M75,-133.01C75,-124.76 75,-116.06 75,-107.58"/>
<polygon fill="none" stroke="#63b8ff" points="71.5,-132.79 75,-142.79 78.5,-132.79 71.5,-132.79"/>
</a>
</g>
</g>
</g>
</svg>
