<?xml version="1.0" encoding="UTF-8" standalone="no"?>
<!DOCTYPE svg PUBLIC "-//W3C//DTD SVG 1.1//EN"
 "http://www.w3.org/Graphics/SVG/1.1/DTD/svg11.dtd">
<!-- Generated by graphviz version 15.0.0 (20260523.1842)
 -->
<!-- Title: AppointmentController Pages: 1 -->
<svg width="192pt" height="100pt"
 viewBox="0.00 0.00 192.00 100.00" xmlns="http://www.w3.org/2000/svg" xmlns:xlink="http://www.w3.org/1999/xlink">
<g id="graph0" class="graph" transform="scale(1 1) rotate(0) translate(4 96)">
<title>AppointmentController</title>
<!-- Node1 -->
<g id="Node000001" class="node">
<title>Node1</title>
<g id="a_Node000001"><a xlink:title="REST controller for the appointment resource : base URL /appointments.">
<polygon fill="#999999" stroke="none" points="183.75,-92 0,-92 0,0 183.75,0 183.75,-92"/>
<text xml:space="preserve" text-anchor="start" x="43.5" y="-78.25" font-family="Helvetica,sans-Serif" font-size="10.00">AppointmentController</text>
<text xml:space="preserve" text-anchor="start" x="90.38" y="-62.25" font-family="Helvetica,sans-Serif" font-size="10.00"> </text>
<text xml:space="preserve" text-anchor="start" x="4" y="-46.25" font-family="Helvetica,sans-Serif" font-size="10.00">+</text>
<text xml:space="preserve" text-anchor="start" x="14" y="-46.25" font-family="Helvetica,sans-Serif" font-size="10.00">Appointment book(@Request</text>
<text xml:space="preserve" text-anchor="start" x="14" y="-34.25" font-family="Helvetica,sans-Serif" font-size="10.00">Body CreateAppointmentRequest req)</text>
<text xml:space="preserve" text-anchor="start" x="4" y="-18.25" font-family="Helvetica,sans-Serif" font-size="10.00">+</text>
<text xml:space="preserve" text-anchor="start" x="14" y="-18.25" font-family="Helvetica,sans-Serif" font-size="10.00">List&lt; Appointment &gt;</text>
<text xml:space="preserve" text-anchor="start" x="14" y="-6.25" font-family="Helvetica,sans-Serif" font-size="10.00"> getAll()</text>
<polygon fill="#666666" stroke="#666666" points="0,-74 0,-74 183.75,-74 183.75,-74 0,-74"/>
<polygon fill="#666666" stroke="#666666" points="0,-58 0,-58 183.75,-58 183.75,-58 0,-58"/>
<polygon fill="none" stroke="#666666" points="0,0 0,-92 183.75,-92 183.75,0 0,0"/>
</a>
</g>
</g>
</g>
</svg>
