<?xml version="1.0" encoding="UTF-8" standalone="no"?>
<!DOCTYPE svg PUBLIC "-//W3C//DTD SVG 1.1//EN"
 "http://www.w3.org/Graphics/SVG/1.1/DTD/svg11.dtd">
<!-- Generated by graphviz version 15.0.0 (20260523.1842)
 -->
<!-- Title: Hospital Pages: 1 -->
<svg width="179pt" height="340pt"
 viewBox="0.00 0.00 179.00 340.00" xmlns="http://www.w3.org/2000/svg" xmlns:xlink="http://www.w3.org/1999/xlink">
<g id="graph0" class="graph" transform="scale(1 1) rotate(0) translate(4 336)">
<title>Hospital</title>
<!-- Node1 -->
<g id="Node000001" class="node">
<title>Node1</title>
<g id="a_Node000001"><a xlink:title="Represents a hospital.">
<polygon fill="#999999" stroke="none" points="160.88,-176 10.12,-176 10.12,0 160.88,0 160.88,-176"/>
<text xml:space="preserve" text-anchor="start" x="67.5" y="-162.25" font-family="Helvetica,sans-Serif" font-size="10.00">Hospital</text>
<text xml:space="preserve" text-anchor="start" x="84" y="-146.25" font-family="Helvetica,sans-Serif" font-size="10.00"> </text>
<text xml:space="preserve" text-anchor="start" x="14.12" y="-130.25" font-family="Helvetica,sans-Serif" font-size="10.00">+</text>
<text xml:space="preserve" text-anchor="start" x="24.12" y="-130.25" font-family="Helvetica,sans-Serif" font-size="10.00">List&lt; InternationRoom</text>
<text xml:space="preserve" text-anchor="start" x="24.12" y="-118.25" font-family="Helvetica,sans-Serif" font-size="10.00"> &gt; getRoomsForPatients()</text>
<text xml:space="preserve" text-anchor="start" x="14.12" y="-102.25" font-family="Helvetica,sans-Serif" font-size="10.00">+</text>
<text xml:space="preserve" text-anchor="start" x="24.12" y="-102.25" font-family="Helvetica,sans-Serif" font-size="10.00">List&lt; InternationRoom</text>
<text xml:space="preserve" text-anchor="start" x="24.12" y="-90.25" font-family="Helvetica,sans-Serif" font-size="10.00"> &gt; getFreeRoomsForPatients()</text>
<text xml:space="preserve" text-anchor="start" x="14.12" y="-74.25" font-family="Helvetica,sans-Serif" font-size="10.00">+</text>
<text xml:space="preserve" text-anchor="start" x="24.12" y="-74.25" font-family="Helvetica,sans-Serif" font-size="10.00">InternationRoom findPatient</text>
<text xml:space="preserve" text-anchor="start" x="24.12" y="-62.25" font-family="Helvetica,sans-Serif" font-size="10.00">InRoom(Patient p)</text>
<text xml:space="preserve" text-anchor="start" x="14.12" y="-46.25" font-family="Helvetica,sans-Serif" font-size="10.00">+</text>
<text xml:space="preserve" text-anchor="start" x="24.12" y="-46.25" font-family="Helvetica,sans-Serif" font-size="10.00">void internPatient</text>
<text xml:space="preserve" text-anchor="start" x="24.12" y="-34.25" font-family="Helvetica,sans-Serif" font-size="10.00">(Patient p, InternationRoom r)</text>
<text xml:space="preserve" text-anchor="start" x="14.12" y="-18.25" font-family="Helvetica,sans-Serif" font-size="10.00">+</text>
<text xml:space="preserve" text-anchor="start" x="24.12" y="-18.25" font-family="Helvetica,sans-Serif" font-size="10.00">void dismissPatient</text>
<text xml:space="preserve" text-anchor="start" x="24.12" y="-6.25" font-family="Helvetica,sans-Serif" font-size="10.00">(Patient p)</text>
<polygon fill="#666666" stroke="#666666" points="10.12,-158 10.12,-158 160.88,-158 160.88,-158 10.12,-158"/>
<polygon fill="#666666" stroke="#666666" points="10.12,-142 10.12,-142 160.88,-142 160.88,-142 10.12,-142"/>
<polygon fill="none" stroke="#666666" points="10.12,0 10.12,-176 160.88,-176 160.88,0 10.12,0"/>
</a>
</g>
</g>
<!-- Node2 -->
<g id="Node000002" class="node">
<title>Node2</title>
<g id="a_Node000002"><a xlink:href="classvixhealthsystem_1_1model_1_1facility_1_1_medical_facility.html" target="_top" xlink:title="Represents a healthcare facility such as a hospital, clinic or specialized medical center.">
<polygon fill="white" stroke="none" points="171,-332 0,-332 0,-212 171,-212 171,-332"/>
<text xml:space="preserve" text-anchor="start" x="52.88" y="-318.25" font-family="Helvetica,sans-Serif" font-size="10.00">MedicalFacility</text>
<text xml:space="preserve" text-anchor="start" x="84" y="-302.25" font-family="Helvetica,sans-Serif" font-size="10.00"> </text>
<text xml:space="preserve" text-anchor="start" x="4" y="-286.25" font-family="Helvetica,sans-Serif" font-size="10.00">+</text>
<text xml:space="preserve" text-anchor="start" x="14" y="-286.25" font-family="Helvetica,sans-Serif" font-size="10.00">MedicalFacility()</text>
<text xml:space="preserve" text-anchor="start" x="4" y="-270.25" font-family="Helvetica,sans-Serif" font-size="10.00">+</text>
<text xml:space="preserve" text-anchor="start" x="14" y="-270.25" font-family="Helvetica,sans-Serif" font-size="10.00">MedicalFacility(String</text>
<text xml:space="preserve" text-anchor="start" x="14" y="-258.25" font-family="Helvetica,sans-Serif" font-size="10.00"> name, Location location,</text>
<text xml:space="preserve" text-anchor="start" x="14" y="-246.25" font-family="Helvetica,sans-Serif" font-size="10.00"> String email, String phoneNumber)</text>
<text xml:space="preserve" text-anchor="start" x="4" y="-230.25" font-family="Helvetica,sans-Serif" font-size="10.00">+</text>
<text xml:space="preserve" text-anchor="start" x="14" y="-230.25" font-family="Helvetica,sans-Serif" font-size="10.00">Map&lt; Resource, Integer</text>
<text xml:space="preserve" text-anchor="start" x="14" y="-218.25" font-family="Helvetica,sans-Serif" font-size="10.00"> &gt; getResources()</text>
<polygon fill="#666666" stroke="#666666" points="0,-314 0,-314 171,-314 171,-314 0,-314"/>
<polygon fill="#666666" stroke="#666666" points="0,-298 0,-298 171,-298 171,-298 0,-298"/>
<polygon fill="none" stroke="#666666" points="0,-212 0,-332 171,-332 171,-212 0,-212"/>
</a>
</g>
</g>
<!-- Node2&#45;&gt;Node1 -->
<g id="edge1_Node000001_Node000002" class="edge">
<title>Node2&#45;&gt;Node1</title>
<g id="a_edge1_Node000001_Node000002"><a xlink:title=" ">
<path fill="none" stroke="#63b8ff" d="M85.5,-200.77C85.5,-192.57 85.5,-184.14 85.5,-175.76"/>
<polygon fill="none" stroke="#63b8ff" points="82,-200.65 85.5,-210.65 89,-200.65 82,-200.65"/>
</a>
</g>
</g>
</g>
</svg>
