<?xml version="1.0" encoding="UTF-8" standalone="no"?>
<!DOCTYPE svg PUBLIC "-//W3C//DTD SVG 1.1//EN"
 "http://www.w3.org/Graphics/SVG/1.1/DTD/svg11.dtd">
<!-- Generated by graphviz version 15.0.0 (20260523.1842)
 -->
<!-- Title: StaffManager Pages: 1 -->
<svg width="168pt" height="532pt"
 viewBox="0.00 0.00 168.00 532.00" xmlns="http://www.w3.org/2000/svg" xmlns:xlink="http://www.w3.org/1999/xlink">
<g id="graph0" class="graph" transform="scale(1 1) rotate(0) translate(4 528)">
<title>StaffManager</title>
<!-- Node1 -->
<g id="Node000001" class="node">
<title>Node1</title>
<g id="a_Node000001"><a xlink:title="Manages employee accounts in the system.">
<polygon fill="#999999" stroke="none" points="159.75,-164 0,-164 0,0 159.75,0 159.75,-164"/>
<text xml:space="preserve" text-anchor="start" x="51" y="-150.25" font-family="Helvetica,sans-Serif" font-size="10.00">StaffManager</text>
<text xml:space="preserve" text-anchor="start" x="78.38" y="-134.25" font-family="Helvetica,sans-Serif" font-size="10.00"> </text>
<text xml:space="preserve" text-anchor="start" x="4" y="-118.25" font-family="Helvetica,sans-Serif" font-size="10.00">+</text>
<text xml:space="preserve" text-anchor="start" x="14" y="-118.25" font-family="Helvetica,sans-Serif" font-size="10.00">Role getSystemRole()</text>
<text xml:space="preserve" text-anchor="start" x="4" y="-102.25" font-family="Helvetica,sans-Serif" font-size="10.00">+</text>
<text xml:space="preserve" text-anchor="start" x="14" y="-102.25" font-family="Helvetica,sans-Serif" font-size="10.00">EmployeeType getEmployee</text>
<text xml:space="preserve" text-anchor="start" x="14" y="-90.25" font-family="Helvetica,sans-Serif" font-size="10.00">Type()</text>
<text xml:space="preserve" text-anchor="start" x="4" y="-74.25" font-family="Helvetica,sans-Serif" font-size="10.00">+</text>
<text xml:space="preserve" text-anchor="start" x="14" y="-74.25" font-family="Helvetica,sans-Serif" font-size="10.00">void createAccountForEmployee</text>
<text xml:space="preserve" text-anchor="start" x="14" y="-62.25" font-family="Helvetica,sans-Serif" font-size="10.00">(Employee e)</text>
<text xml:space="preserve" text-anchor="start" x="4" y="-46.25" font-family="Helvetica,sans-Serif" font-size="10.00">+</text>
<text xml:space="preserve" text-anchor="start" x="14" y="-46.25" font-family="Helvetica,sans-Serif" font-size="10.00">void deleteEmployeeAccount</text>
<text xml:space="preserve" text-anchor="start" x="14" y="-34.25" font-family="Helvetica,sans-Serif" font-size="10.00">(Employee e)</text>
<text xml:space="preserve" text-anchor="start" x="4" y="-18.25" font-family="Helvetica,sans-Serif" font-size="10.00">+</text>
<text xml:space="preserve" text-anchor="start" x="14" y="-18.25" font-family="Helvetica,sans-Serif" font-size="10.00">void credentialsRecovery</text>
<text xml:space="preserve" text-anchor="start" x="14" y="-6.25" font-family="Helvetica,sans-Serif" font-size="10.00">(Employee e)</text>
<polygon fill="#666666" stroke="#666666" points="0,-146 0,-146 159.75,-146 159.75,-146 0,-146"/>
<polygon fill="#666666" stroke="#666666" points="0,-130 0,-130 159.75,-130 159.75,-130 0,-130"/>
<polygon fill="none" stroke="#666666" points="0,0 0,-164 159.75,-164 159.75,0 0,0"/>
</a>
</g>
</g>
<!-- Node2 -->
<g id="Node000002" class="node">
<title>Node2</title>
<g id="a_Node000002"><a xlink:href="classvixhealthsystem_1_1model_1_1person_1_1employee_1_1_employee.html" target="_top" xlink:title="Represents a generic employee in the system.">
<polygon fill="white" stroke="none" points="156.38,-356 3.38,-356 3.38,-200 156.38,-200 156.38,-356"/>
<text xml:space="preserve" text-anchor="start" x="58.12" y="-342.25" font-family="Helvetica,sans-Serif" font-size="10.00">Employee</text>
<text xml:space="preserve" text-anchor="start" x="78.38" y="-326.25" font-family="Helvetica,sans-Serif" font-size="10.00"> </text>
<text xml:space="preserve" text-anchor="start" x="7.38" y="-310.25" font-family="Helvetica,sans-Serif" font-size="10.00">+</text>
<text xml:space="preserve" text-anchor="start" x="17.38" y="-310.25" font-family="Helvetica,sans-Serif" font-size="10.00">abstract Role getSystemRole()</text>
<text xml:space="preserve" text-anchor="start" x="7.38" y="-294.25" font-family="Helvetica,sans-Serif" font-size="10.00">+</text>
<text xml:space="preserve" text-anchor="start" x="17.38" y="-294.25" font-family="Helvetica,sans-Serif" font-size="10.00">abstract EmployeeType</text>
<text xml:space="preserve" text-anchor="start" x="17.38" y="-282.25" font-family="Helvetica,sans-Serif" font-size="10.00"> getEmployeeType()</text>
<text xml:space="preserve" text-anchor="start" x="7.38" y="-266.25" font-family="Helvetica,sans-Serif" font-size="10.00">+</text>
<text xml:space="preserve" text-anchor="start" x="17.38" y="-266.25" font-family="Helvetica,sans-Serif" font-size="10.00">boolean hasFacilityStorage()</text>
<text xml:space="preserve" text-anchor="start" x="7.38" y="-250.25" font-family="Helvetica,sans-Serif" font-size="10.00">+</text>
<text xml:space="preserve" text-anchor="start" x="17.38" y="-250.25" font-family="Helvetica,sans-Serif" font-size="10.00">Storage getFacilityStorage()</text>
<text xml:space="preserve" text-anchor="start" x="7.38" y="-234.25" font-family="Helvetica,sans-Serif" font-size="10.00">+</text>
<text xml:space="preserve" text-anchor="start" x="17.38" y="-234.25" font-family="Helvetica,sans-Serif" font-size="10.00">String getFacilityName()</text>
<text xml:space="preserve" text-anchor="start" x="7.38" y="-218.25" font-family="Helvetica,sans-Serif" font-size="10.00">+</text>
<text xml:space="preserve" text-anchor="start" x="17.38" y="-218.25" font-family="Helvetica,sans-Serif" font-size="10.00">void takeResource(Resource</text>
<text xml:space="preserve" text-anchor="start" x="17.38" y="-206.25" font-family="Helvetica,sans-Serif" font-size="10.00"> r, int q)</text>
<polygon fill="#666666" stroke="#666666" points="3.38,-338 3.38,-338 156.38,-338 156.38,-338 3.38,-338"/>
<polygon fill="#666666" stroke="#666666" points="3.38,-322 3.38,-322 156.38,-322 156.38,-322 3.38,-322"/>
<polygon fill="none" stroke="#666666" points="3.38,-200 3.38,-356 156.38,-356 156.38,-200 3.38,-200"/>
</a>
</g>
</g>
<!-- Node2&#45;&gt;Node1 -->
<g id="edge1_Node000001_Node000002" class="edge">
<title>Node2&#45;&gt;Node1</title>
<g id="a_edge1_Node000001_Node000002"><a xlink:title=" ">
<path fill="none" stroke="#63b8ff" d="M79.88,-188.74C79.88,-180.39 79.88,-171.95 79.88,-163.68"/>
<polygon fill="none" stroke="#63b8ff" points="76.38,-188.53 79.88,-198.53 83.38,-188.53 76.38,-188.53"/>
</a>
</g>
</g>
<!-- Node3 -->
<g id="Node000003" class="node">
<title>Node3</title>
<g id="a_Node000003"><a xlink:href="classvixhealthsystem_1_1model_1_1person_1_1_person.html" target="_top" xlink:title="Base class for all people in the system.">
<polygon fill="white" stroke="none" points="150.75,-524 9,-524 9,-392 150.75,-392 150.75,-524"/>
<text xml:space="preserve" text-anchor="start" x="64.5" y="-510.25" font-family="Helvetica,sans-Serif" font-size="10.00">Person</text>
<text xml:space="preserve" text-anchor="start" x="78.38" y="-494.25" font-family="Helvetica,sans-Serif" font-size="10.00"> </text>
<text xml:space="preserve" text-anchor="start" x="13" y="-478.25" font-family="Helvetica,sans-Serif" font-size="10.00">+</text>
<text xml:space="preserve" text-anchor="start" x="23" y="-478.25" font-family="Helvetica,sans-Serif" font-size="10.00">Person()</text>
<text xml:space="preserve" text-anchor="start" x="13" y="-462.25" font-family="Helvetica,sans-Serif" font-size="10.00">+</text>
<text xml:space="preserve" text-anchor="start" x="23" y="-462.25" font-family="Helvetica,sans-Serif" font-size="10.00">Person(String name,</text>
<text xml:space="preserve" text-anchor="start" x="23" y="-450.25" font-family="Helvetica,sans-Serif" font-size="10.00"> String surname, LocalDate</text>
<text xml:space="preserve" text-anchor="start" x="23" y="-438.25" font-family="Helvetica,sans-Serif" font-size="10.00"> birthDate, String birthPlace,</text>
<text xml:space="preserve" text-anchor="start" x="23" y="-426.25" font-family="Helvetica,sans-Serif" font-size="10.00"> char gender, String email,</text>
<text xml:space="preserve" text-anchor="start" x="23" y="-414.25" font-family="Helvetica,sans-Serif" font-size="10.00"> String phoneNumber)</text>
<text xml:space="preserve" text-anchor="start" x="13" y="-398.25" font-family="Helvetica,sans-Serif" font-size="10.00">+</text>
<text xml:space="preserve" text-anchor="start" x="23" y="-398.25" font-family="Helvetica,sans-Serif" font-size="10.00">int getAge()</text>
<polygon fill="#666666" stroke="#666666" points="9,-506 9,-506 150.75,-506 150.75,-506 9,-506"/>
<polygon fill="#666666" stroke="#666666" points="9,-490 9,-490 150.75,-490 150.75,-490 9,-490"/>
<polygon fill="none" stroke="#666666" points="9,-392 9,-524 150.75,-524 150.75,-392 9,-392"/>
</a>
</g>
</g>
<!-- Node3&#45;&gt;Node2 -->
<g id="edge2_Node000002_Node000003" class="edge">
<title>Node3&#45;&gt;Node2</title>
<g id="a_edge2_Node000002_Node000003"><a xlink:title=" ">
<path fill="none" stroke="#63b8ff" d="M79.88,-380.99C79.88,-372.66 79.88,-364.16 79.88,-355.82"/>
<polygon fill="none" stroke="#63b8ff" points="76.38,-380.72 79.88,-390.72 83.38,-380.72 76.38,-380.72"/>
</a>
</g>
</g>
</g>
</svg>
