<?xml version="1.0" encoding="UTF-8" standalone="no"?>
<!DOCTYPE svg PUBLIC "-//W3C//DTD SVG 1.1//EN"
 "http://www.w3.org/Graphics/SVG/1.1/DTD/svg11.dtd">
<!-- Generated by graphviz version 15.0.0 (20260523.1842)
 -->
<!-- Title: Surgery Pages: 1 -->
<svg width="161pt" height="140pt"
 viewBox="0.00 0.00 161.00 140.00" xmlns="http://www.w3.org/2000/svg" xmlns:xlink="http://www.w3.org/1999/xlink">
<g id="graph0" class="graph" transform="scale(1 1) rotate(0) translate(4 136)">
<title>Surgery</title>
<!-- Node1 -->
<g id="Node000001" class="node">
<title>Node1</title>
<g id="a_Node000001"><a xlink:title="Represents a surgical procedure performed on a patient.">
<polygon fill="#999999" stroke="none" points="153,-132 0,-132 0,0 153,0 153,-132"/>
<text xml:space="preserve" text-anchor="start" x="59.62" y="-118.25" font-family="Helvetica,sans-Serif" font-size="10.00">Surgery</text>
<text xml:space="preserve" text-anchor="start" x="75" y="-102.25" font-family="Helvetica,sans-Serif" font-size="10.00"> </text>
<text xml:space="preserve" text-anchor="start" x="4" y="-86.25" font-family="Helvetica,sans-Serif" font-size="10.00">+</text>
<text xml:space="preserve" text-anchor="start" x="14" y="-86.25" font-family="Helvetica,sans-Serif" font-size="10.00">Surgery()</text>
<text xml:space="preserve" text-anchor="start" x="4" y="-70.25" font-family="Helvetica,sans-Serif" font-size="10.00">+</text>
<text xml:space="preserve" text-anchor="start" x="14" y="-70.25" font-family="Helvetica,sans-Serif" font-size="10.00">Surgery(LocalDateTime</text>
<text xml:space="preserve" text-anchor="start" x="14" y="-58.25" font-family="Helvetica,sans-Serif" font-size="10.00"> dateTime, String name,</text>
<text xml:space="preserve" text-anchor="start" x="14" y="-46.25" font-family="Helvetica,sans-Serif" font-size="10.00"> String description, Specialized</text>
<text xml:space="preserve" text-anchor="start" x="14" y="-34.25" font-family="Helvetica,sans-Serif" font-size="10.00">Room specializedRoom)</text>
<text xml:space="preserve" text-anchor="start" x="4" y="-18.25" font-family="Helvetica,sans-Serif" font-size="10.00">+</text>
<text xml:space="preserve" text-anchor="start" x="14" y="-18.25" font-family="Helvetica,sans-Serif" font-size="10.00">MedicalSpecialist getMedical</text>
<text xml:space="preserve" text-anchor="start" x="14" y="-6.25" font-family="Helvetica,sans-Serif" font-size="10.00">Specialist()</text>
<polygon fill="#666666" stroke="#666666" points="0,-114 0,-114 153,-114 153,-114 0,-114"/>
<polygon fill="#666666" stroke="#666666" points="0,-98 0,-98 153,-98 153,-98 0,-98"/>
<polygon fill="none" stroke="#666666" points="0,0 0,-132 153,-132 153,0 0,0"/>
</a>
</g>
</g>
</g>
</svg>
