<?xml version="1.0" encoding="UTF-8" standalone="no"?>
<!DOCTYPE svg PUBLIC "-//W3C//DTD SVG 1.1//EN"
 "http://www.w3.org/Graphics/SVG/1.1/DTD/svg11.dtd">
<!-- Generated by graphviz version 15.0.0 (20260523.1842)
 -->
<!-- Title: Person Pages: 1 -->
<svg width="959pt" height="744pt"
 viewBox="0.00 0.00 959.00 744.00" xmlns="http://www.w3.org/2000/svg" xmlns:xlink="http://www.w3.org/1999/xlink">
<g id="graph0" class="graph" transform="scale(1 1) rotate(0) translate(4 740)">
<title>Person</title>
<!-- Node1 -->
<g id="Node000001" class="node">
<title>Node1</title>
<g id="a_Node000001"><a xlink:title="Base class for all people in the system.">
<polygon fill="#999999" stroke="none" points="473.12,-736 331.38,-736 331.38,-604 473.12,-604 473.12,-736"/>
<text xml:space="preserve" text-anchor="start" x="386.88" y="-722.25" font-family="Helvetica,sans-Serif" font-size="10.00">Person</text>
<text xml:space="preserve" text-anchor="start" x="400.75" y="-706.25" font-family="Helvetica,sans-Serif" font-size="10.00"> </text>
<text xml:space="preserve" text-anchor="start" x="335.38" y="-690.25" font-family="Helvetica,sans-Serif" font-size="10.00">+</text>
<text xml:space="preserve" text-anchor="start" x="345.38" y="-690.25" font-family="Helvetica,sans-Serif" font-size="10.00">Person()</text>
<text xml:space="preserve" text-anchor="start" x="335.38" y="-674.25" font-family="Helvetica,sans-Serif" font-size="10.00">+</text>
<text xml:space="preserve" text-anchor="start" x="345.38" y="-674.25" font-family="Helvetica,sans-Serif" font-size="10.00">Person(String name,</text>
<text xml:space="preserve" text-anchor="start" x="345.38" y="-662.25" font-family="Helvetica,sans-Serif" font-size="10.00"> String surname, LocalDate</text>
<text xml:space="preserve" text-anchor="start" x="345.38" y="-650.25" font-family="Helvetica,sans-Serif" font-size="10.00"> birthDate, String birthPlace,</text>
<text xml:space="preserve" text-anchor="start" x="345.38" y="-638.25" font-family="Helvetica,sans-Serif" font-size="10.00"> char gender, String email,</text>
<text xml:space="preserve" text-anchor="start" x="345.38" y="-626.25" font-family="Helvetica,sans-Serif" font-size="10.00"> String phoneNumber)</text>
<text xml:space="preserve" text-anchor="start" x="335.38" y="-610.25" font-family="Helvetica,sans-Serif" font-size="10.00">+</text>
<text xml:space="preserve" text-anchor="start" x="345.38" y="-610.25" font-family="Helvetica,sans-Serif" font-size="10.00">int getAge()</text>
<polygon fill="#666666" stroke="#666666" points="331.38,-718 331.38,-718 473.12,-718 473.12,-718 331.38,-718"/>
<polygon fill="#666666" stroke="#666666" points="331.38,-702 331.38,-702 473.12,-702 473.12,-702 331.38,-702"/>
<polygon fill="none" stroke="#666666" points="331.38,-604 331.38,-736 473.12,-736 473.12,-604 331.38,-604"/>
</a>
</g>
</g>
<!-- Node2 -->
<g id="Node000002" class="node">
<title>Node2</title>
<g id="a_Node000002"><a xlink:href="classvixhealthsystem_1_1model_1_1person_1_1_patient.html" target="_top" xlink:title="Represents a patient in the VIX Health System.">
<polygon fill="white" stroke="none" points="355,-568 191.5,-568 191.5,-320 355,-320 355,-568"/>
<text xml:space="preserve" text-anchor="start" x="257.88" y="-554.25" font-family="Helvetica,sans-Serif" font-size="10.00">Patient</text>
<text xml:space="preserve" text-anchor="start" x="271.75" y="-538.25" font-family="Helvetica,sans-Serif" font-size="10.00"> </text>
<text xml:space="preserve" text-anchor="start" x="195.5" y="-522.25" font-family="Helvetica,sans-Serif" font-size="10.00">+</text>
<text xml:space="preserve" text-anchor="start" x="205.5" y="-522.25" font-family="Helvetica,sans-Serif" font-size="10.00">Patient()</text>
<text xml:space="preserve" text-anchor="start" x="195.5" y="-506.25" font-family="Helvetica,sans-Serif" font-size="10.00">+</text>
<text xml:space="preserve" text-anchor="start" x="205.5" y="-506.25" font-family="Helvetica,sans-Serif" font-size="10.00">Patient(String fiscalCode,</text>
<text xml:space="preserve" text-anchor="start" x="205.5" y="-494.25" font-family="Helvetica,sans-Serif" font-size="10.00"> MedicalRecord medicalRecord)</text>
<text xml:space="preserve" text-anchor="start" x="195.5" y="-478.25" font-family="Helvetica,sans-Serif" font-size="10.00">+</text>
<text xml:space="preserve" text-anchor="start" x="205.5" y="-478.25" font-family="Helvetica,sans-Serif" font-size="10.00">void setFiscalCode</text>
<text xml:space="preserve" text-anchor="start" x="205.5" y="-466.25" font-family="Helvetica,sans-Serif" font-size="10.00">(String fiscalCode)</text>
<text xml:space="preserve" text-anchor="start" x="195.5" y="-450.25" font-family="Helvetica,sans-Serif" font-size="10.00">+</text>
<text xml:space="preserve" text-anchor="start" x="205.5" y="-450.25" font-family="Helvetica,sans-Serif" font-size="10.00">Role getSystemRole()</text>
<text xml:space="preserve" text-anchor="start" x="195.5" y="-434.25" font-family="Helvetica,sans-Serif" font-size="10.00">+</text>
<text xml:space="preserve" text-anchor="start" x="205.5" y="-434.25" font-family="Helvetica,sans-Serif" font-size="10.00">Appointment makeAppointment</text>
<text xml:space="preserve" text-anchor="start" x="205.5" y="-422.25" font-family="Helvetica,sans-Serif" font-size="10.00">(MedicalSpecialist m, LocalDate</text>
<text xml:space="preserve" text-anchor="start" x="205.5" y="-410.25" font-family="Helvetica,sans-Serif" font-size="10.00">Time dt)</text>
<text xml:space="preserve" text-anchor="start" x="195.5" y="-394.25" font-family="Helvetica,sans-Serif" font-size="10.00">+</text>
<text xml:space="preserve" text-anchor="start" x="205.5" y="-394.25" font-family="Helvetica,sans-Serif" font-size="10.00">void rescheduleAppointment</text>
<text xml:space="preserve" text-anchor="start" x="205.5" y="-382.25" font-family="Helvetica,sans-Serif" font-size="10.00">(LocalDateTime dtOld, LocalDate</text>
<text xml:space="preserve" text-anchor="start" x="205.5" y="-370.25" font-family="Helvetica,sans-Serif" font-size="10.00">Time dtNew)</text>
<text xml:space="preserve" text-anchor="start" x="195.5" y="-354.25" font-family="Helvetica,sans-Serif" font-size="10.00">+</text>
<text xml:space="preserve" text-anchor="start" x="205.5" y="-354.25" font-family="Helvetica,sans-Serif" font-size="10.00">void cancelAppointment</text>
<text xml:space="preserve" text-anchor="start" x="205.5" y="-342.25" font-family="Helvetica,sans-Serif" font-size="10.00">(LocalDateTime dt)</text>
<text xml:space="preserve" text-anchor="start" x="195.5" y="-326.25" font-family="Helvetica,sans-Serif" font-size="10.00">+</text>
<text xml:space="preserve" text-anchor="start" x="205.5" y="-326.25" font-family="Helvetica,sans-Serif" font-size="10.00">void deleteAccount()</text>
<polygon fill="#666666" stroke="#666666" points="191.5,-550 191.5,-550 355,-550 355,-550 191.5,-550"/>
<polygon fill="#666666" stroke="#666666" points="191.5,-534 191.5,-534 355,-534 355,-534 191.5,-534"/>
<polygon fill="none" stroke="#666666" points="191.5,-320 191.5,-568 355,-568 355,-320 191.5,-320"/>
</a>
</g>
</g>
<!-- Node1&#45;&gt;Node2 -->
<g id="edge1_Node000001_Node000002" class="edge">
<title>Node1&#45;&gt;Node2</title>
<g id="a_edge1_Node000001_Node000002"><a xlink:title=" ">
<path fill="none" stroke="#63b8ff" d="M359.25,-594.33C354.32,-585.77 349.2,-576.88 344.03,-567.9"/>
<polygon fill="none" stroke="#63b8ff" points="356.16,-595.98 364.18,-602.9 362.22,-592.49 356.16,-595.98"/>
</a>
</g>
</g>
<!-- Node3 -->
<g id="Node000003" class="node">
<title>Node3</title>
<g id="a_Node000003"><a xlink:title=" ">
<polygon fill="white" stroke="none" points="431,-470 373.5,-470 373.5,-418 431,-418 431,-470"/>
<text xml:space="preserve" text-anchor="start" x="377.5" y="-456.25" font-family="Helvetica,sans-Serif" font-size="10.00">TestPerson</text>
<text xml:space="preserve" text-anchor="start" x="400.75" y="-440.25" font-family="Helvetica,sans-Serif" font-size="10.00"> </text>
<text xml:space="preserve" text-anchor="start" x="400.75" y="-424.25" font-family="Helvetica,sans-Serif" font-size="10.00"> </text>
<polygon fill="#bfbfbf" stroke="#bfbfbf" points="373.5,-452 373.5,-452 431,-452 431,-452 373.5,-452"/>
<polygon fill="#bfbfbf" stroke="#bfbfbf" points="373.5,-436 373.5,-436 431,-436 431,-436 373.5,-436"/>
<polygon fill="none" stroke="#bfbfbf" points="373.5,-418 373.5,-470 431,-470 431,-418 373.5,-418"/>
</a>
</g>
</g>
<!-- Node1&#45;&gt;Node3 -->
<g id="edge2_Node000001_Node000003" class="edge">
<title>Node1&#45;&gt;Node3</title>
<g id="a_edge2_Node000001_Node000003"><a xlink:title=" ">
<path fill="none" stroke="#63b8ff" d="M402.25,-592.95C402.25,-550.16 402.25,-499.54 402.25,-469.98"/>
<polygon fill="none" stroke="#63b8ff" points="398.75,-592.7 402.25,-602.7 405.75,-592.7 398.75,-592.7"/>
</a>
</g>
</g>
<!-- Node4 -->
<g id="Node000004" class="node">
<title>Node4</title>
<g id="a_Node000004"><a xlink:href="classvixhealthsystem_1_1model_1_1person_1_1employee_1_1_employee.html" target="_top" xlink:title="Represents a generic employee in the system.">
<polygon fill="white" stroke="none" points="601.75,-498 448.75,-498 448.75,-390 601.75,-390 601.75,-498"/>
<text xml:space="preserve" text-anchor="start" x="503.5" y="-484.25" font-family="Helvetica,sans-Serif" font-size="10.00">Employee</text>
<text xml:space="preserve" text-anchor="start" x="523.75" y="-468.25" font-family="Helvetica,sans-Serif" font-size="10.00"> </text>
<text xml:space="preserve" text-anchor="start" x="452.75" y="-452.25" font-family="Helvetica,sans-Serif" font-size="10.00">+</text>
<text xml:space="preserve" text-anchor="start" x="462.75" y="-452.25" font-family="Helvetica,sans-Serif" font-size="10.00">abstract Role getSystemRole()</text>
<text xml:space="preserve" text-anchor="start" x="452.75" y="-436.25" font-family="Helvetica,sans-Serif" font-size="10.00">+</text>
<text xml:space="preserve" text-anchor="start" x="462.75" y="-436.25" font-family="Helvetica,sans-Serif" font-size="10.00">abstract EmployeeType</text>
<text xml:space="preserve" text-anchor="start" x="462.75" y="-424.25" font-family="Helvetica,sans-Serif" font-size="10.00"> getEmployeeType()</text>
<text xml:space="preserve" text-anchor="start" x="452.75" y="-408.25" font-family="Helvetica,sans-Serif" font-size="10.00">+</text>
<text xml:space="preserve" text-anchor="start" x="462.75" y="-408.25" font-family="Helvetica,sans-Serif" font-size="10.00">void takeResource(Resource</text>
<text xml:space="preserve" text-anchor="start" x="462.75" y="-396.25" font-family="Helvetica,sans-Serif" font-size="10.00"> r, int q)</text>
<polygon fill="#666666" stroke="#666666" points="448.75,-480 448.75,-480 601.75,-480 601.75,-480 448.75,-480"/>
<polygon fill="#666666" stroke="#666666" points="448.75,-464 448.75,-464 601.75,-464 601.75,-464 448.75,-464"/>
<polygon fill="none" stroke="#666666" points="448.75,-390 448.75,-498 601.75,-498 601.75,-390 448.75,-390"/>
</a>
</g>
</g>
<!-- Node1&#45;&gt;Node4 -->
<g id="edge3_Node000001_Node000004" class="edge">
<title>Node1&#45;&gt;Node4</title>
<g id="a_edge3_Node000001_Node000004"><a xlink:title=" ">
<path fill="none" stroke="#63b8ff" d="M443.35,-594.14C460.66,-562.62 480.41,-526.67 496.17,-497.96"/>
<polygon fill="none" stroke="#63b8ff" points="440.3,-592.43 438.56,-602.88 446.44,-595.8 440.3,-592.43"/>
</a>
</g>
</g>
<!-- Node5 -->
<g id="Node000005" class="node">
<title>Node5</title>
<g id="a_Node000005"><a xlink:href="classvixhealthsystem_1_1model_1_1person_1_1employee_1_1_buyer.html" target="_top" xlink:title="Part of the purchasing department.">
<polygon fill="white" stroke="none" points="142.5,-196 0,-196 0,-88 142.5,-88 142.5,-196"/>
<text xml:space="preserve" text-anchor="start" x="58.5" y="-182.25" font-family="Helvetica,sans-Serif" font-size="10.00">Buyer</text>
<text xml:space="preserve" text-anchor="start" x="69.75" y="-166.25" font-family="Helvetica,sans-Serif" font-size="10.00"> </text>
<text xml:space="preserve" text-anchor="start" x="4" y="-150.25" font-family="Helvetica,sans-Serif" font-size="10.00">+</text>
<text xml:space="preserve" text-anchor="start" x="14" y="-150.25" font-family="Helvetica,sans-Serif" font-size="10.00">Role getSystemRole()</text>
<text xml:space="preserve" text-anchor="start" x="4" y="-134.25" font-family="Helvetica,sans-Serif" font-size="10.00">+</text>
<text xml:space="preserve" text-anchor="start" x="14" y="-134.25" font-family="Helvetica,sans-Serif" font-size="10.00">EmployeeType getEmployee</text>
<text xml:space="preserve" text-anchor="start" x="14" y="-122.25" font-family="Helvetica,sans-Serif" font-size="10.00">Type()</text>
<text xml:space="preserve" text-anchor="start" x="4" y="-106.25" font-family="Helvetica,sans-Serif" font-size="10.00">+</text>
<text xml:space="preserve" text-anchor="start" x="14" y="-106.25" font-family="Helvetica,sans-Serif" font-size="10.00">void addResource(Resource</text>
<text xml:space="preserve" text-anchor="start" x="14" y="-94.25" font-family="Helvetica,sans-Serif" font-size="10.00"> resource, int quantity)</text>
<polygon fill="#666666" stroke="#666666" points="0,-178 0,-178 142.5,-178 142.5,-178 0,-178"/>
<polygon fill="#666666" stroke="#666666" points="0,-162 0,-162 142.5,-162 142.5,-162 0,-162"/>
<polygon fill="none" stroke="#666666" points="0,-88 0,-196 142.5,-196 142.5,-88 0,-88"/>
</a>
</g>
</g>
<!-- Node4&#45;&gt;Node5 -->
<g id="edge4_Node000004_Node000005" class="edge">
<title>Node4&#45;&gt;Node5</title>
<g id="a_edge4_Node000004_Node000005"><a xlink:title=" ">
<path fill="none" stroke="#63b8ff" d="M495.9,-380.11C482.18,-357.54 463.64,-334.19 440.25,-320 329.96,-253.1 259.66,-355.43 152.25,-284 121.22,-263.36 100.65,-226.52 88.01,-195.67"/>
<polygon fill="none" stroke="#63b8ff" points="492.86,-381.85 500.91,-388.74 498.91,-378.34 492.86,-381.85"/>
</a>
</g>
</g>
<!-- Node6 -->
<g id="Node000006" class="node">
<title>Node6</title>
<g id="a_Node000006"><a xlink:href="classvixhealthsystem_1_1model_1_1person_1_1employee_1_1_medical_specialist.html" target="_top" xlink:title="Represents medical personnel such as doctors, surgeons, specialists and nurses.">
<polygon fill="white" stroke="none" points="317.62,-218 160.88,-218 160.88,-66 317.62,-66 317.62,-218"/>
<text xml:space="preserve" text-anchor="start" x="201" y="-204.25" font-family="Helvetica,sans-Serif" font-size="10.00">MedicalSpecialist</text>
<text xml:space="preserve" text-anchor="start" x="237.75" y="-188.25" font-family="Helvetica,sans-Serif" font-size="10.00"> </text>
<text xml:space="preserve" text-anchor="start" x="164.88" y="-172.25" font-family="Helvetica,sans-Serif" font-size="10.00">+</text>
<text xml:space="preserve" text-anchor="start" x="174.88" y="-172.25" font-family="Helvetica,sans-Serif" font-size="10.00">MedicalSpecialist()</text>
<text xml:space="preserve" text-anchor="start" x="164.88" y="-156.25" font-family="Helvetica,sans-Serif" font-size="10.00">+</text>
<text xml:space="preserve" text-anchor="start" x="174.88" y="-156.25" font-family="Helvetica,sans-Serif" font-size="10.00">Role getSystemRole()</text>
<text xml:space="preserve" text-anchor="start" x="164.88" y="-140.25" font-family="Helvetica,sans-Serif" font-size="10.00">+</text>
<text xml:space="preserve" text-anchor="start" x="174.88" y="-140.25" font-family="Helvetica,sans-Serif" font-size="10.00">EmployeeType getEmployee</text>
<text xml:space="preserve" text-anchor="start" x="174.88" y="-128.25" font-family="Helvetica,sans-Serif" font-size="10.00">Type()</text>
<text xml:space="preserve" text-anchor="start" x="164.88" y="-112.25" font-family="Helvetica,sans-Serif" font-size="10.00">+</text>
<text xml:space="preserve" text-anchor="start" x="174.88" y="-112.25" font-family="Helvetica,sans-Serif" font-size="10.00">void appPrescriptionForPatient</text>
<text xml:space="preserve" text-anchor="start" x="174.88" y="-100.25" font-family="Helvetica,sans-Serif" font-size="10.00">(Patient p, Prescription pr)</text>
<text xml:space="preserve" text-anchor="start" x="164.88" y="-84.25" font-family="Helvetica,sans-Serif" font-size="10.00">+</text>
<text xml:space="preserve" text-anchor="start" x="174.88" y="-84.25" font-family="Helvetica,sans-Serif" font-size="10.00">void scheduleSurgeryForPatient</text>
<text xml:space="preserve" text-anchor="start" x="174.88" y="-72.25" font-family="Helvetica,sans-Serif" font-size="10.00">(Patient p, Surgery s)</text>
<polygon fill="#666666" stroke="#666666" points="160.88,-200 160.88,-200 317.62,-200 317.62,-200 160.88,-200"/>
<polygon fill="#666666" stroke="#666666" points="160.88,-184 160.88,-184 317.62,-184 317.62,-184 160.88,-184"/>
<polygon fill="none" stroke="#666666" points="160.88,-66 160.88,-218 317.62,-218 317.62,-66 160.88,-66"/>
</a>
</g>
</g>
<!-- Node4&#45;&gt;Node6 -->
<g id="edge5_Node000004_Node000006" class="edge">
<title>Node4&#45;&gt;Node6</title>
<g id="a_edge5_Node000004_Node000006"><a xlink:title=" ">
<path fill="none" stroke="#63b8ff" d="M493.42,-380.59C479.65,-358.8 461.71,-335.85 440.25,-320 397.51,-288.44 368.16,-316.66 326.25,-284 303.9,-266.59 285.87,-241.7 272.14,-217.67"/>
<polygon fill="none" stroke="#63b8ff" points="490.28,-382.16 498.47,-388.88 496.25,-378.52 490.28,-382.16"/>
</a>
</g>
</g>
<!-- Node7 -->
<g id="Node000007" class="node">
<title>Node7</title>
<g id="a_Node000007"><a xlink:href="classvixhealthsystem_1_1model_1_1person_1_1employee_1_1_secretary.html" target="_top" xlink:title="Handles administrative tasks such as appointment scheduling, patient admissions and discharges.">
<polygon fill="white" stroke="none" points="523,-284 335.5,-284 335.5,0 523,0 523,-284"/>
<text xml:space="preserve" text-anchor="start" x="408.25" y="-270.25" font-family="Helvetica,sans-Serif" font-size="10.00">Secretary</text>
<text xml:space="preserve" text-anchor="start" x="427.75" y="-254.25" font-family="Helvetica,sans-Serif" font-size="10.00"> </text>
<text xml:space="preserve" text-anchor="start" x="339.5" y="-238.25" font-family="Helvetica,sans-Serif" font-size="10.00">+</text>
<text xml:space="preserve" text-anchor="start" x="349.5" y="-238.25" font-family="Helvetica,sans-Serif" font-size="10.00">Secretary()</text>
<text xml:space="preserve" text-anchor="start" x="339.5" y="-222.25" font-family="Helvetica,sans-Serif" font-size="10.00">+</text>
<text xml:space="preserve" text-anchor="start" x="349.5" y="-222.25" font-family="Helvetica,sans-Serif" font-size="10.00">Role getSystemRole()</text>
<text xml:space="preserve" text-anchor="start" x="339.5" y="-206.25" font-family="Helvetica,sans-Serif" font-size="10.00">+</text>
<text xml:space="preserve" text-anchor="start" x="349.5" y="-206.25" font-family="Helvetica,sans-Serif" font-size="10.00">EmployeeType getEmployee</text>
<text xml:space="preserve" text-anchor="start" x="349.5" y="-194.25" font-family="Helvetica,sans-Serif" font-size="10.00">Type()</text>
<text xml:space="preserve" text-anchor="start" x="339.5" y="-178.25" font-family="Helvetica,sans-Serif" font-size="10.00">+</text>
<text xml:space="preserve" text-anchor="start" x="349.5" y="-178.25" font-family="Helvetica,sans-Serif" font-size="10.00">Appointment makeAppointment</text>
<text xml:space="preserve" text-anchor="start" x="349.5" y="-166.25" font-family="Helvetica,sans-Serif" font-size="10.00">ForPatient(Patient p, MedicalSpecialist</text>
<text xml:space="preserve" text-anchor="start" x="349.5" y="-154.25" font-family="Helvetica,sans-Serif" font-size="10.00"> m, LocalDateTime dt)</text>
<text xml:space="preserve" text-anchor="start" x="339.5" y="-138.25" font-family="Helvetica,sans-Serif" font-size="10.00">+</text>
<text xml:space="preserve" text-anchor="start" x="349.5" y="-138.25" font-family="Helvetica,sans-Serif" font-size="10.00">void rescheduleAppointment</text>
<text xml:space="preserve" text-anchor="start" x="349.5" y="-126.25" font-family="Helvetica,sans-Serif" font-size="10.00">ForPatient(Patient p, LocalDate</text>
<text xml:space="preserve" text-anchor="start" x="349.5" y="-114.25" font-family="Helvetica,sans-Serif" font-size="10.00">Time dtOld, LocalDateTime dtNew)</text>
<text xml:space="preserve" text-anchor="start" x="339.5" y="-98.25" font-family="Helvetica,sans-Serif" font-size="10.00">+</text>
<text xml:space="preserve" text-anchor="start" x="349.5" y="-98.25" font-family="Helvetica,sans-Serif" font-size="10.00">void cancelAppointmentFor</text>
<text xml:space="preserve" text-anchor="start" x="349.5" y="-86.25" font-family="Helvetica,sans-Serif" font-size="10.00">Patient(Patient p, LocalDateTime dt)</text>
<text xml:space="preserve" text-anchor="start" x="339.5" y="-70.25" font-family="Helvetica,sans-Serif" font-size="10.00">+</text>
<text xml:space="preserve" text-anchor="start" x="349.5" y="-70.25" font-family="Helvetica,sans-Serif" font-size="10.00">void setPatientInRoom</text>
<text xml:space="preserve" text-anchor="start" x="349.5" y="-58.25" font-family="Helvetica,sans-Serif" font-size="10.00">(InternationRoom ir,</text>
<text xml:space="preserve" text-anchor="start" x="349.5" y="-46.25" font-family="Helvetica,sans-Serif" font-size="10.00"> Patient p)</text>
<text xml:space="preserve" text-anchor="start" x="339.5" y="-30.25" font-family="Helvetica,sans-Serif" font-size="10.00">+</text>
<text xml:space="preserve" text-anchor="start" x="349.5" y="-30.25" font-family="Helvetica,sans-Serif" font-size="10.00">void dismissPatient</text>
<text xml:space="preserve" text-anchor="start" x="349.5" y="-18.25" font-family="Helvetica,sans-Serif" font-size="10.00">(InternationRoom ir,</text>
<text xml:space="preserve" text-anchor="start" x="349.5" y="-6.25" font-family="Helvetica,sans-Serif" font-size="10.00"> Patient p)</text>
<polygon fill="#666666" stroke="#666666" points="335.5,-266 335.5,-266 523,-266 523,-266 335.5,-266"/>
<polygon fill="#666666" stroke="#666666" points="335.5,-250 335.5,-250 523,-250 523,-250 335.5,-250"/>
<polygon fill="none" stroke="#666666" points="335.5,0 335.5,-284 523,-284 523,0 335.5,0"/>
</a>
</g>
</g>
<!-- Node4&#45;&gt;Node7 -->
<g id="edge6_Node000004_Node000007" class="edge">
<title>Node4&#45;&gt;Node7</title>
<g id="a_edge6_Node000004_Node000007"><a xlink:title=" ">
<path fill="none" stroke="#63b8ff" d="M504.86,-379.27C495.92,-351.34 485.04,-317.36 474.36,-283.98"/>
<polygon fill="none" stroke="#63b8ff" points="501.47,-380.16 507.85,-388.62 508.13,-378.02 501.47,-380.16"/>
</a>
</g>
</g>
<!-- Node8 -->
<g id="Node000008" class="node">
<title>Node8</title>
<g id="a_Node000008"><a xlink:href="classvixhealthsystem_1_1model_1_1person_1_1employee_1_1_staff_manager.html" target="_top" xlink:title="Manages employee accounts in the system.">
<polygon fill="white" stroke="none" points="701.12,-224 541.38,-224 541.38,-60 701.12,-60 701.12,-224"/>
<text xml:space="preserve" text-anchor="start" x="592.38" y="-210.25" font-family="Helvetica,sans-Serif" font-size="10.00">StaffManager</text>
<text xml:space="preserve" text-anchor="start" x="619.75" y="-194.25" font-family="Helvetica,sans-Serif" font-size="10.00"> </text>
<text xml:space="preserve" text-anchor="start" x="545.38" y="-178.25" font-family="Helvetica,sans-Serif" font-size="10.00">+</text>
<text xml:space="preserve" text-anchor="start" x="555.38" y="-178.25" font-family="Helvetica,sans-Serif" font-size="10.00">Role getSystemRole()</text>
<text xml:space="preserve" text-anchor="start" x="545.38" y="-162.25" font-family="Helvetica,sans-Serif" font-size="10.00">+</text>
<text xml:space="preserve" text-anchor="start" x="555.38" y="-162.25" font-family="Helvetica,sans-Serif" font-size="10.00">EmployeeType getEmployee</text>
<text xml:space="preserve" text-anchor="start" x="555.38" y="-150.25" font-family="Helvetica,sans-Serif" font-size="10.00">Type()</text>
<text xml:space="preserve" text-anchor="start" x="545.38" y="-134.25" font-family="Helvetica,sans-Serif" font-size="10.00">+</text>
<text xml:space="preserve" text-anchor="start" x="555.38" y="-134.25" font-family="Helvetica,sans-Serif" font-size="10.00">void createAccountForEmployee</text>
<text xml:space="preserve" text-anchor="start" x="555.38" y="-122.25" font-family="Helvetica,sans-Serif" font-size="10.00">(Employee e)</text>
<text xml:space="preserve" text-anchor="start" x="545.38" y="-106.25" font-family="Helvetica,sans-Serif" font-size="10.00">+</text>
<text xml:space="preserve" text-anchor="start" x="555.38" y="-106.25" font-family="Helvetica,sans-Serif" font-size="10.00">void deleteEmployeeAccount</text>
<text xml:space="preserve" text-anchor="start" x="555.38" y="-94.25" font-family="Helvetica,sans-Serif" font-size="10.00">(Employee e)</text>
<text xml:space="preserve" text-anchor="start" x="545.38" y="-78.25" font-family="Helvetica,sans-Serif" font-size="10.00">+</text>
<text xml:space="preserve" text-anchor="start" x="555.38" y="-78.25" font-family="Helvetica,sans-Serif" font-size="10.00">void credentialsRecovery</text>
<text xml:space="preserve" text-anchor="start" x="555.38" y="-66.25" font-family="Helvetica,sans-Serif" font-size="10.00">(Employee e)</text>
<polygon fill="#666666" stroke="#666666" points="541.38,-206 541.38,-206 701.12,-206 701.12,-206 541.38,-206"/>
<polygon fill="#666666" stroke="#666666" points="541.38,-190 541.38,-190 701.12,-190 701.12,-190 541.38,-190"/>
<polygon fill="none" stroke="#666666" points="541.38,-60 541.38,-224 701.12,-224 701.12,-60 541.38,-60"/>
</a>
</g>
</g>
<!-- Node4&#45;&gt;Node8 -->
<g id="edge7_Node000004_Node000008" class="edge">
<title>Node4&#45;&gt;Node8</title>
<g id="a_edge7_Node000004_Node000008"><a xlink:title=" ">
<path fill="none" stroke="#63b8ff" d="M545.67,-379.19C560.17,-333.87 579.75,-272.68 595.35,-223.93"/>
<polygon fill="none" stroke="#63b8ff" points="542.37,-378.02 542.65,-388.62 549.03,-380.16 542.37,-378.02"/>
</a>
</g>
</g>
<!-- Node9 -->
<g id="Node000009" class="node">
<title>Node9</title>
<g id="a_Node000009"><a xlink:href="classvixhealthsystem_1_1model_1_1person_1_1employee_1_1_technician.html" target="_top" xlink:title="Responsible for managing and maintaining medical machinery.">
<polygon fill="white" stroke="none" points="862.88,-202 719.62,-202 719.62,-82 862.88,-82 862.88,-202"/>
<text xml:space="preserve" text-anchor="start" x="768" y="-188.25" font-family="Helvetica,sans-Serif" font-size="10.00">Technician</text>
<text xml:space="preserve" text-anchor="start" x="789.75" y="-172.25" font-family="Helvetica,sans-Serif" font-size="10.00"> </text>
<text xml:space="preserve" text-anchor="start" x="723.62" y="-156.25" font-family="Helvetica,sans-Serif" font-size="10.00">+</text>
<text xml:space="preserve" text-anchor="start" x="733.62" y="-156.25" font-family="Helvetica,sans-Serif" font-size="10.00">Role getSystemRole()</text>
<text xml:space="preserve" text-anchor="start" x="723.62" y="-140.25" font-family="Helvetica,sans-Serif" font-size="10.00">+</text>
<text xml:space="preserve" text-anchor="start" x="733.62" y="-140.25" font-family="Helvetica,sans-Serif" font-size="10.00">EmployeeType getEmployee</text>
<text xml:space="preserve" text-anchor="start" x="733.62" y="-128.25" font-family="Helvetica,sans-Serif" font-size="10.00">Type()</text>
<text xml:space="preserve" text-anchor="start" x="723.62" y="-112.25" font-family="Helvetica,sans-Serif" font-size="10.00">+</text>
<text xml:space="preserve" text-anchor="start" x="733.62" y="-112.25" font-family="Helvetica,sans-Serif" font-size="10.00">List&lt; Machinery &gt; getFaulty</text>
<text xml:space="preserve" text-anchor="start" x="733.62" y="-100.25" font-family="Helvetica,sans-Serif" font-size="10.00">MachineList(List&lt; Machinery</text>
<text xml:space="preserve" text-anchor="start" x="733.62" y="-88.25" font-family="Helvetica,sans-Serif" font-size="10.00"> &gt; allMachines)</text>
<polygon fill="#666666" stroke="#666666" points="719.62,-184 719.62,-184 862.88,-184 862.88,-184 719.62,-184"/>
<polygon fill="#666666" stroke="#666666" points="719.62,-168 719.62,-168 862.88,-168 862.88,-168 719.62,-168"/>
<polygon fill="none" stroke="#666666" points="719.62,-82 719.62,-202 862.88,-202 862.88,-82 719.62,-82"/>
</a>
</g>
</g>
<!-- Node4&#45;&gt;Node9 -->
<g id="edge8_Node000004_Node000009" class="edge">
<title>Node4&#45;&gt;Node9</title>
<g id="a_edge8_Node000004_Node000009"><a xlink:title=" ">
<path fill="none" stroke="#63b8ff" d="M606.3,-383.37C640.82,-355.55 680.01,-320.55 710.25,-284 730.85,-259.09 749.23,-228.26 763.25,-201.78"/>
<polygon fill="none" stroke="#63b8ff" points="604.45,-380.37 598.81,-389.34 608.81,-385.84 604.45,-380.37"/>
</a>
</g>
</g>
<!-- Node10 -->
<g id="Node000010" class="node">
<title>Node10</title>
<g id="a_Node000010"><a xlink:title=" ">
<polygon fill="white" stroke="none" points="951.38,-168 881.12,-168 881.12,-116 951.38,-116 951.38,-168"/>
<text xml:space="preserve" text-anchor="start" x="885.12" y="-154.25" font-family="Helvetica,sans-Serif" font-size="10.00">TestEmployee</text>
<text xml:space="preserve" text-anchor="start" x="914.75" y="-138.25" font-family="Helvetica,sans-Serif" font-size="10.00"> </text>
<text xml:space="preserve" text-anchor="start" x="914.75" y="-122.25" font-family="Helvetica,sans-Serif" font-size="10.00"> </text>
<polygon fill="#bfbfbf" stroke="#bfbfbf" points="881.12,-150 881.12,-150 951.38,-150 951.38,-150 881.12,-150"/>
<polygon fill="#bfbfbf" stroke="#bfbfbf" points="881.12,-134 881.12,-134 951.38,-134 951.38,-134 881.12,-134"/>
<polygon fill="none" stroke="#bfbfbf" points="881.12,-116 881.12,-168 951.38,-168 951.38,-116 881.12,-116"/>
</a>
</g>
</g>
<!-- Node4&#45;&gt;Node10 -->
<g id="edge9_Node000004_Node000010" class="edge">
<title>Node4&#45;&gt;Node10</title>
<g id="a_edge9_Node000004_Node000010"><a xlink:title=" ">
<path fill="none" stroke="#63b8ff" d="M612.31,-424.46C690.85,-403.36 804.19,-361.32 872.25,-284 901.39,-250.89 911.24,-198.62 914.56,-167.89"/>
<polygon fill="none" stroke="#63b8ff" points="611.72,-421 602.93,-426.92 613.49,-427.77 611.72,-421"/>
</a>
</g>
</g>
</g>
</svg>
