<?xml version="1.0" encoding="UTF-8" standalone="no"?>
<!DOCTYPE svg PUBLIC "-//W3C//DTD SVG 1.1//EN"
 "http://www.w3.org/Graphics/SVG/1.1/DTD/svg11.dtd">
<!-- Generated by graphviz version 15.0.0 (20260523.1842)
 -->
<!-- Title: Technician Pages: 1 -->
<svg width="161pt" height="440pt"
 viewBox="0.00 0.00 161.00 440.00" xmlns="http://www.w3.org/2000/svg" xmlns:xlink="http://www.w3.org/1999/xlink">
<g id="graph0" class="graph" transform="scale(1 1) rotate(0) translate(4 436)">
<title>Technician</title>
<!-- Node1 -->
<g id="Node000001" class="node">
<title>Node1</title>
<g id="a_Node000001"><a xlink:title="Responsible for managing and maintaining medical machinery.">
<polygon fill="#999999" stroke="none" points="148.12,-120 4.88,-120 4.88,0 148.12,0 148.12,-120"/>
<text xml:space="preserve" text-anchor="start" x="53.25" y="-106.25" font-family="Helvetica,sans-Serif" font-size="10.00">Technician</text>
<text xml:space="preserve" text-anchor="start" x="75" y="-90.25" font-family="Helvetica,sans-Serif" font-size="10.00"> </text>
<text xml:space="preserve" text-anchor="start" x="8.88" y="-74.25" font-family="Helvetica,sans-Serif" font-size="10.00">+</text>
<text xml:space="preserve" text-anchor="start" x="18.88" y="-74.25" font-family="Helvetica,sans-Serif" font-size="10.00">Role getSystemRole()</text>
<text xml:space="preserve" text-anchor="start" x="8.88" y="-58.25" font-family="Helvetica,sans-Serif" font-size="10.00">+</text>
<text xml:space="preserve" text-anchor="start" x="18.88" y="-58.25" font-family="Helvetica,sans-Serif" font-size="10.00">EmployeeType getEmployee</text>
<text xml:space="preserve" text-anchor="start" x="18.88" y="-46.25" font-family="Helvetica,sans-Serif" font-size="10.00">Type()</text>
<text xml:space="preserve" text-anchor="start" x="8.88" y="-30.25" font-family="Helvetica,sans-Serif" font-size="10.00">+</text>
<text xml:space="preserve" text-anchor="start" x="18.88" y="-30.25" font-family="Helvetica,sans-Serif" font-size="10.00">List&lt; Machinery &gt; getFaulty</text>
<text xml:space="preserve" text-anchor="start" x="18.88" y="-18.25" font-family="Helvetica,sans-Serif" font-size="10.00">MachineList(List&lt; Machinery</text>
<text xml:space="preserve" text-anchor="start" x="18.88" y="-6.25" font-family="Helvetica,sans-Serif" font-size="10.00"> &gt; allMachines)</text>
<polygon fill="#666666" stroke="#666666" points="4.88,-102 4.88,-102 148.12,-102 148.12,-102 4.88,-102"/>
<polygon fill="#666666" stroke="#666666" points="4.88,-86 4.88,-86 148.12,-86 148.12,-86 4.88,-86"/>
<polygon fill="none" stroke="#666666" points="4.88,0 4.88,-120 148.12,-120 148.12,0 4.88,0"/>
</a>
</g>
</g>
<!-- Node2 -->
<g id="Node000002" class="node">
<title>Node2</title>
<g id="a_Node000002"><a xlink:href="classvixhealthsystem_1_1model_1_1person_1_1employee_1_1_employee.html" target="_top" xlink:title="Represents a generic employee in the system.">
<polygon fill="white" stroke="none" points="153,-264 0,-264 0,-156 153,-156 153,-264"/>
<text xml:space="preserve" text-anchor="start" x="54.75" y="-250.25" font-family="Helvetica,sans-Serif" font-size="10.00">Employee</text>
<text xml:space="preserve" text-anchor="start" x="75" y="-234.25" font-family="Helvetica,sans-Serif" font-size="10.00"> </text>
<text xml:space="preserve" text-anchor="start" x="4" y="-218.25" font-family="Helvetica,sans-Serif" font-size="10.00">+</text>
<text xml:space="preserve" text-anchor="start" x="14" y="-218.25" font-family="Helvetica,sans-Serif" font-size="10.00">abstract Role getSystemRole()</text>
<text xml:space="preserve" text-anchor="start" x="4" y="-202.25" font-family="Helvetica,sans-Serif" font-size="10.00">+</text>
<text xml:space="preserve" text-anchor="start" x="14" y="-202.25" font-family="Helvetica,sans-Serif" font-size="10.00">abstract EmployeeType</text>
<text xml:space="preserve" text-anchor="start" x="14" y="-190.25" font-family="Helvetica,sans-Serif" font-size="10.00"> getEmployeeType()</text>
<text xml:space="preserve" text-anchor="start" x="4" y="-174.25" font-family="Helvetica,sans-Serif" font-size="10.00">+</text>
<text xml:space="preserve" text-anchor="start" x="14" y="-174.25" font-family="Helvetica,sans-Serif" font-size="10.00">void takeResource(Resource</text>
<text xml:space="preserve" text-anchor="start" x="14" y="-162.25" font-family="Helvetica,sans-Serif" font-size="10.00"> r, int q)</text>
<polygon fill="#666666" stroke="#666666" points="0,-246 0,-246 153,-246 153,-246 0,-246"/>
<polygon fill="#666666" stroke="#666666" points="0,-230 0,-230 153,-230 153,-230 0,-230"/>
<polygon fill="none" stroke="#666666" points="0,-156 0,-264 153,-264 153,-156 0,-156"/>
</a>
</g>
</g>
<!-- Node2&#45;&gt;Node1 -->
<g id="edge1_Node000001_Node000002" class="edge">
<title>Node2&#45;&gt;Node1</title>
<g id="a_edge1_Node000001_Node000002"><a xlink:title=" ">
<path fill="none" stroke="#63b8ff" d="M76.5,-145.15C76.5,-136.79 76.5,-128.25 76.5,-119.98"/>
<polygon fill="none" stroke="#63b8ff" points="73,-144.89 76.5,-154.89 80,-144.89 73,-144.89"/>
</a>
</g>
</g>
<!-- Node3 -->
<g id="Node000003" class="node">
<title>Node3</title>
<g id="a_Node000003"><a xlink:href="classvixhealthsystem_1_1model_1_1person_1_1_person.html" target="_top" xlink:title="Base class for all people in the system.">
<polygon fill="white" stroke="none" points="147.38,-432 5.62,-432 5.62,-300 147.38,-300 147.38,-432"/>
<text xml:space="preserve" text-anchor="start" x="61.12" y="-418.25" font-family="Helvetica,sans-Serif" font-size="10.00">Person</text>
<text xml:space="preserve" text-anchor="start" x="75" y="-402.25" font-family="Helvetica,sans-Serif" font-size="10.00"> </text>
<text xml:space="preserve" text-anchor="start" x="9.62" y="-386.25" font-family="Helvetica,sans-Serif" font-size="10.00">+</text>
<text xml:space="preserve" text-anchor="start" x="19.62" y="-386.25" font-family="Helvetica,sans-Serif" font-size="10.00">Person()</text>
<text xml:space="preserve" text-anchor="start" x="9.62" y="-370.25" font-family="Helvetica,sans-Serif" font-size="10.00">+</text>
<text xml:space="preserve" text-anchor="start" x="19.62" y="-370.25" font-family="Helvetica,sans-Serif" font-size="10.00">Person(String name,</text>
<text xml:space="preserve" text-anchor="start" x="19.62" y="-358.25" font-family="Helvetica,sans-Serif" font-size="10.00"> String surname, LocalDate</text>
<text xml:space="preserve" text-anchor="start" x="19.62" y="-346.25" font-family="Helvetica,sans-Serif" font-size="10.00"> birthDate, String birthPlace,</text>
<text xml:space="preserve" text-anchor="start" x="19.62" y="-334.25" font-family="Helvetica,sans-Serif" font-size="10.00"> char gender, String email,</text>
<text xml:space="preserve" text-anchor="start" x="19.62" y="-322.25" font-family="Helvetica,sans-Serif" font-size="10.00"> String phoneNumber)</text>
<text xml:space="preserve" text-anchor="start" x="9.62" y="-306.25" font-family="Helvetica,sans-Serif" font-size="10.00">+</text>
<text xml:space="preserve" text-anchor="start" x="19.62" y="-306.25" font-family="Helvetica,sans-Serif" font-size="10.00">int getAge()</text>
<polygon fill="#666666" stroke="#666666" points="5.62,-414 5.62,-414 147.38,-414 147.38,-414 5.62,-414"/>
<polygon fill="#666666" stroke="#666666" points="5.62,-398 5.62,-398 147.38,-398 147.38,-398 5.62,-398"/>
<polygon fill="none" stroke="#666666" points="5.62,-300 5.62,-432 147.38,-432 147.38,-300 5.62,-300"/>
</a>
</g>
</g>
<!-- Node3&#45;&gt;Node2 -->
<g id="edge2_Node000002_Node000003" class="edge">
<title>Node3&#45;&gt;Node2</title>
<g id="a_edge2_Node000002_Node000003"><a xlink:title=" ">
<path fill="none" stroke="#63b8ff" d="M76.5,-288.65C76.5,-280.19 76.5,-271.72 76.5,-263.65"/>
<polygon fill="none" stroke="#63b8ff" points="73,-288.62 76.5,-298.62 80,-288.62 73,-288.62"/>
</a>
</g>
</g>
</g>
</svg>
