<?xml version="1.0" encoding="UTF-8" standalone="no"?>
<!DOCTYPE svg PUBLIC "-//W3C//DTD SVG 1.1//EN"
 "http://www.w3.org/Graphics/SVG/1.1/DTD/svg11.dtd">
<!-- Generated by graphviz version 15.0.0 (20260523.1842)
 -->
<!-- Title: Employee Pages: 1 -->
<svg width="959pt" height="652pt"
 viewBox="0.00 0.00 959.00 652.00" xmlns="http://www.w3.org/2000/svg" xmlns:xlink="http://www.w3.org/1999/xlink">
<g id="graph0" class="graph" transform="scale(1 1) rotate(0) translate(4 648)">
<title>Employee</title>
<!-- Node1 -->
<g id="Node000001" class="node">
<title>Node1</title>
<g id="a_Node000001"><a xlink:title="Represents a generic employee in the system.">
<polygon fill="#999999" stroke="none" points="601.75,-476 448.75,-476 448.75,-320 601.75,-320 601.75,-476"/>
<text xml:space="preserve" text-anchor="start" x="503.5" y="-462.25" font-family="Helvetica,sans-Serif" font-size="10.00">Employee</text>
<text xml:space="preserve" text-anchor="start" x="523.75" y="-446.25" font-family="Helvetica,sans-Serif" font-size="10.00"> </text>
<text xml:space="preserve" text-anchor="start" x="452.75" y="-430.25" font-family="Helvetica,sans-Serif" font-size="10.00">+</text>
<text xml:space="preserve" text-anchor="start" x="462.75" y="-430.25" font-family="Helvetica,sans-Serif" font-size="10.00">abstract Role getSystemRole()</text>
<text xml:space="preserve" text-anchor="start" x="452.75" y="-414.25" font-family="Helvetica,sans-Serif" font-size="10.00">+</text>
<text xml:space="preserve" text-anchor="start" x="462.75" y="-414.25" font-family="Helvetica,sans-Serif" font-size="10.00">abstract EmployeeType</text>
<text xml:space="preserve" text-anchor="start" x="462.75" y="-402.25" font-family="Helvetica,sans-Serif" font-size="10.00"> getEmployeeType()</text>
<text xml:space="preserve" text-anchor="start" x="452.75" y="-386.25" font-family="Helvetica,sans-Serif" font-size="10.00">+</text>
<text xml:space="preserve" text-anchor="start" x="462.75" y="-386.25" font-family="Helvetica,sans-Serif" font-size="10.00">boolean hasFacilityStorage()</text>
<text xml:space="preserve" text-anchor="start" x="452.75" y="-370.25" font-family="Helvetica,sans-Serif" font-size="10.00">+</text>
<text xml:space="preserve" text-anchor="start" x="462.75" y="-370.25" font-family="Helvetica,sans-Serif" font-size="10.00">Storage getFacilityStorage()</text>
<text xml:space="preserve" text-anchor="start" x="452.75" y="-354.25" font-family="Helvetica,sans-Serif" font-size="10.00">+</text>
<text xml:space="preserve" text-anchor="start" x="462.75" y="-354.25" font-family="Helvetica,sans-Serif" font-size="10.00">String getFacilityName()</text>
<text xml:space="preserve" text-anchor="start" x="452.75" y="-338.25" font-family="Helvetica,sans-Serif" font-size="10.00">+</text>
<text xml:space="preserve" text-anchor="start" x="462.75" y="-338.25" font-family="Helvetica,sans-Serif" font-size="10.00">void takeResource(Resource</text>
<text xml:space="preserve" text-anchor="start" x="462.75" y="-326.25" font-family="Helvetica,sans-Serif" font-size="10.00"> r, int q)</text>
<polygon fill="#666666" stroke="#666666" points="448.75,-458 448.75,-458 601.75,-458 601.75,-458 448.75,-458"/>
<polygon fill="#666666" stroke="#666666" points="448.75,-442 448.75,-442 601.75,-442 601.75,-442 448.75,-442"/>
<polygon fill="none" stroke="#666666" points="448.75,-320 448.75,-476 601.75,-476 601.75,-320 448.75,-320"/>
</a>
</g>
</g>
<!-- Node3 -->
<g id="Node000003" class="node">
<title>Node3</title>
<g id="a_Node000003"><a xlink:href="classvixhealthsystem_1_1model_1_1person_1_1employee_1_1_buyer.html" target="_top" xlink:title="Part of the purchasing department.">
<polygon fill="white" stroke="none" points="142.5,-196 0,-196 0,-88 142.5,-88 142.5,-196"/>
<text xml:space="preserve" text-anchor="start" x="58.5" y="-182.25" font-family="Helvetica,sans-Serif" font-size="10.00">Buyer</text>
<text xml:space="preserve" text-anchor="start" x="69.75" y="-166.25" font-family="Helvetica,sans-Serif" font-size="10.00"> </text>
<text xml:space="preserve" text-anchor="start" x="4" y="-150.25" font-family="Helvetica,sans-Serif" font-size="10.00">+</text>
<text xml:space="preserve" text-anchor="start" x="14" y="-150.25" font-family="Helvetica,sans-Serif" font-size="10.00">Role getSystemRole()</text>
<text xml:space="preserve" text-anchor="start" x="4" y="-134.25" font-family="Helvetica,sans-Serif" font-size="10.00">+</text>
<text xml:space="preserve" text-anchor="start" x="14" y="-134.25" font-family="Helvetica,sans-Serif" font-size="10.00">EmployeeType getEmployee</text>
<text xml:space="preserve" text-anchor="start" x="14" y="-122.25" font-family="Helvetica,sans-Serif" font-size="10.00">Type()</text>
<text xml:space="preserve" text-anchor="start" x="4" y="-106.25" font-family="Helvetica,sans-Serif" font-size="10.00">+</text>
<text xml:space="preserve" text-anchor="start" x="14" y="-106.25" font-family="Helvetica,sans-Serif" font-size="10.00">void addResource(Resource</text>
<text xml:space="preserve" text-anchor="start" x="14" y="-94.25" font-family="Helvetica,sans-Serif" font-size="10.00"> resource, int quantity)</text>
<polygon fill="#666666" stroke="#666666" points="0,-178 0,-178 142.5,-178 142.5,-178 0,-178"/>
<polygon fill="#666666" stroke="#666666" points="0,-162 0,-162 142.5,-162 142.5,-162 0,-162"/>
<polygon fill="none" stroke="#666666" points="0,-88 0,-196 142.5,-196 142.5,-88 0,-88"/>
</a>
</g>
</g>
<!-- Node1&#45;&gt;Node3 -->
<g id="edge2_Node000001_Node000003" class="edge">
<title>Node1&#45;&gt;Node3</title>
<g id="a_edge2_Node000001_Node000003"><a xlink:title=" ">
<path fill="none" stroke="#63b8ff" d="M437.78,-388.96C356.28,-377.51 235.21,-349.96 152.25,-284 123.74,-261.33 103.4,-225.71 90.23,-195.94"/>
<polygon fill="none" stroke="#63b8ff" points="437.13,-392.4 447.51,-390.26 438.06,-385.46 437.13,-392.4"/>
</a>
</g>
</g>
<!-- Node4 -->
<g id="Node000004" class="node">
<title>Node4</title>
<g id="a_Node000004"><a xlink:href="classvixhealthsystem_1_1model_1_1person_1_1employee_1_1_medical_specialist.html" target="_top" xlink:title="Represents medical personnel such as doctors, surgeons, specialists and nurses.">
<polygon fill="white" stroke="none" points="317.62,-218 160.88,-218 160.88,-66 317.62,-66 317.62,-218"/>
<text xml:space="preserve" text-anchor="start" x="201" y="-204.25" font-family="Helvetica,sans-Serif" font-size="10.00">MedicalSpecialist</text>
<text xml:space="preserve" text-anchor="start" x="237.75" y="-188.25" font-family="Helvetica,sans-Serif" font-size="10.00"> </text>
<text xml:space="preserve" text-anchor="start" x="164.88" y="-172.25" font-family="Helvetica,sans-Serif" font-size="10.00">+</text>
<text xml:space="preserve" text-anchor="start" x="174.88" y="-172.25" font-family="Helvetica,sans-Serif" font-size="10.00">MedicalSpecialist()</text>
<text xml:space="preserve" text-anchor="start" x="164.88" y="-156.25" font-family="Helvetica,sans-Serif" font-size="10.00">+</text>
<text xml:space="preserve" text-anchor="start" x="174.88" y="-156.25" font-family="Helvetica,sans-Serif" font-size="10.00">Role getSystemRole()</text>
<text xml:space="preserve" text-anchor="start" x="164.88" y="-140.25" font-family="Helvetica,sans-Serif" font-size="10.00">+</text>
<text xml:space="preserve" text-anchor="start" x="174.88" y="-140.25" font-family="Helvetica,sans-Serif" font-size="10.00">EmployeeType getEmployee</text>
<text xml:space="preserve" text-anchor="start" x="174.88" y="-128.25" font-family="Helvetica,sans-Serif" font-size="10.00">Type()</text>
<text xml:space="preserve" text-anchor="start" x="164.88" y="-112.25" font-family="Helvetica,sans-Serif" font-size="10.00">+</text>
<text xml:space="preserve" text-anchor="start" x="174.88" y="-112.25" font-family="Helvetica,sans-Serif" font-size="10.00">void appPrescriptionForPatient</text>
<text xml:space="preserve" text-anchor="start" x="174.88" y="-100.25" font-family="Helvetica,sans-Serif" font-size="10.00">(Patient p, Prescription pr)</text>
<text xml:space="preserve" text-anchor="start" x="164.88" y="-84.25" font-family="Helvetica,sans-Serif" font-size="10.00">+</text>
<text xml:space="preserve" text-anchor="start" x="174.88" y="-84.25" font-family="Helvetica,sans-Serif" font-size="10.00">void scheduleSurgeryForPatient</text>
<text xml:space="preserve" text-anchor="start" x="174.88" y="-72.25" font-family="Helvetica,sans-Serif" font-size="10.00">(Patient p, Surgery s)</text>
<polygon fill="#666666" stroke="#666666" points="160.88,-200 160.88,-200 317.62,-200 317.62,-200 160.88,-200"/>
<polygon fill="#666666" stroke="#666666" points="160.88,-184 160.88,-184 317.62,-184 317.62,-184 160.88,-184"/>
<polygon fill="none" stroke="#666666" points="160.88,-66 160.88,-218 317.62,-218 317.62,-66 160.88,-66"/>
</a>
</g>
</g>
<!-- Node1&#45;&gt;Node4 -->
<g id="edge3_Node000001_Node000004" class="edge">
<title>Node1&#45;&gt;Node4</title>
<g id="a_edge3_Node000001_Node000004"><a xlink:title=" ">
<path fill="none" stroke="#63b8ff" d="M438.96,-359.97C401.41,-341 358.67,-315.26 326.25,-284 306.58,-265.03 289.53,-240.73 275.86,-217.65"/>
<polygon fill="none" stroke="#63b8ff" points="437.02,-362.92 447.54,-364.22 440.13,-356.64 437.02,-362.92"/>
</a>
</g>
</g>
<!-- Node5 -->
<g id="Node000005" class="node">
<title>Node5</title>
<g id="a_Node000005"><a xlink:href="classvixhealthsystem_1_1model_1_1person_1_1employee_1_1_secretary.html" target="_top" xlink:title="Handles administrative tasks such as appointment scheduling, patient admissions and discharges.">
<polygon fill="white" stroke="none" points="523,-284 335.5,-284 335.5,0 523,0 523,-284"/>
<text xml:space="preserve" text-anchor="start" x="408.25" y="-270.25" font-family="Helvetica,sans-Serif" font-size="10.00">Secretary</text>
<text xml:space="preserve" text-anchor="start" x="427.75" y="-254.25" font-family="Helvetica,sans-Serif" font-size="10.00"> </text>
<text xml:space="preserve" text-anchor="start" x="339.5" y="-238.25" font-family="Helvetica,sans-Serif" font-size="10.00">+</text>
<text xml:space="preserve" text-anchor="start" x="349.5" y="-238.25" font-family="Helvetica,sans-Serif" font-size="10.00">Secretary()</text>
<text xml:space="preserve" text-anchor="start" x="339.5" y="-222.25" font-family="Helvetica,sans-Serif" font-size="10.00">+</text>
<text xml:space="preserve" text-anchor="start" x="349.5" y="-222.25" font-family="Helvetica,sans-Serif" font-size="10.00">Role getSystemRole()</text>
<text xml:space="preserve" text-anchor="start" x="339.5" y="-206.25" font-family="Helvetica,sans-Serif" font-size="10.00">+</text>
<text xml:space="preserve" text-anchor="start" x="349.5" y="-206.25" font-family="Helvetica,sans-Serif" font-size="10.00">EmployeeType getEmployee</text>
<text xml:space="preserve" text-anchor="start" x="349.5" y="-194.25" font-family="Helvetica,sans-Serif" font-size="10.00">Type()</text>
<text xml:space="preserve" text-anchor="start" x="339.5" y="-178.25" font-family="Helvetica,sans-Serif" font-size="10.00">+</text>
<text xml:space="preserve" text-anchor="start" x="349.5" y="-178.25" font-family="Helvetica,sans-Serif" font-size="10.00">Appointment makeAppointment</text>
<text xml:space="preserve" text-anchor="start" x="349.5" y="-166.25" font-family="Helvetica,sans-Serif" font-size="10.00">ForPatient(Patient p, MedicalSpecialist</text>
<text xml:space="preserve" text-anchor="start" x="349.5" y="-154.25" font-family="Helvetica,sans-Serif" font-size="10.00"> m, LocalDateTime dt)</text>
<text xml:space="preserve" text-anchor="start" x="339.5" y="-138.25" font-family="Helvetica,sans-Serif" font-size="10.00">+</text>
<text xml:space="preserve" text-anchor="start" x="349.5" y="-138.25" font-family="Helvetica,sans-Serif" font-size="10.00">void rescheduleAppointment</text>
<text xml:space="preserve" text-anchor="start" x="349.5" y="-126.25" font-family="Helvetica,sans-Serif" font-size="10.00">ForPatient(Patient p, LocalDate</text>
<text xml:space="preserve" text-anchor="start" x="349.5" y="-114.25" font-family="Helvetica,sans-Serif" font-size="10.00">Time dtOld, LocalDateTime dtNew)</text>
<text xml:space="preserve" text-anchor="start" x="339.5" y="-98.25" font-family="Helvetica,sans-Serif" font-size="10.00">+</text>
<text xml:space="preserve" text-anchor="start" x="349.5" y="-98.25" font-family="Helvetica,sans-Serif" font-size="10.00">void cancelAppointmentFor</text>
<text xml:space="preserve" text-anchor="start" x="349.5" y="-86.25" font-family="Helvetica,sans-Serif" font-size="10.00">Patient(Patient p, LocalDateTime dt)</text>
<text xml:space="preserve" text-anchor="start" x="339.5" y="-70.25" font-family="Helvetica,sans-Serif" font-size="10.00">+</text>
<text xml:space="preserve" text-anchor="start" x="349.5" y="-70.25" font-family="Helvetica,sans-Serif" font-size="10.00">void setPatientInRoom</text>
<text xml:space="preserve" text-anchor="start" x="349.5" y="-58.25" font-family="Helvetica,sans-Serif" font-size="10.00">(InternationRoom ir,</text>
<text xml:space="preserve" text-anchor="start" x="349.5" y="-46.25" font-family="Helvetica,sans-Serif" font-size="10.00"> Patient p)</text>
<text xml:space="preserve" text-anchor="start" x="339.5" y="-30.25" font-family="Helvetica,sans-Serif" font-size="10.00">+</text>
<text xml:space="preserve" text-anchor="start" x="349.5" y="-30.25" font-family="Helvetica,sans-Serif" font-size="10.00">void dismissPatient</text>
<text xml:space="preserve" text-anchor="start" x="349.5" y="-18.25" font-family="Helvetica,sans-Serif" font-size="10.00">(InternationRoom ir,</text>
<text xml:space="preserve" text-anchor="start" x="349.5" y="-6.25" font-family="Helvetica,sans-Serif" font-size="10.00"> Patient p)</text>
<polygon fill="#666666" stroke="#666666" points="335.5,-266 335.5,-266 523,-266 523,-266 335.5,-266"/>
<polygon fill="#666666" stroke="#666666" points="335.5,-250 335.5,-250 523,-250 523,-250 335.5,-250"/>
<polygon fill="none" stroke="#666666" points="335.5,0 335.5,-284 523,-284 523,0 335.5,0"/>
</a>
</g>
</g>
<!-- Node1&#45;&gt;Node5 -->
<g id="edge4_Node000001_Node000005" class="edge">
<title>Node1&#45;&gt;Node5</title>
<g id="a_edge4_Node000001_Node000005"><a xlink:title=" ">
<path fill="none" stroke="#63b8ff" d="M492.19,-309.53C488.99,-301.07 485.7,-292.35 482.37,-283.53"/>
<polygon fill="none" stroke="#63b8ff" points="488.84,-310.57 495.65,-318.69 495.39,-308.09 488.84,-310.57"/>
</a>
</g>
</g>
<!-- Node6 -->
<g id="Node000006" class="node">
<title>Node6</title>
<g id="a_Node000006"><a xlink:href="classvixhealthsystem_1_1model_1_1person_1_1employee_1_1_staff_manager.html" target="_top" xlink:title="Manages employee accounts in the system.">
<polygon fill="white" stroke="none" points="701.12,-224 541.38,-224 541.38,-60 701.12,-60 701.12,-224"/>
<text xml:space="preserve" text-anchor="start" x="592.38" y="-210.25" font-family="Helvetica,sans-Serif" font-size="10.00">StaffManager</text>
<text xml:space="preserve" text-anchor="start" x="619.75" y="-194.25" font-family="Helvetica,sans-Serif" font-size="10.00"> </text>
<text xml:space="preserve" text-anchor="start" x="545.38" y="-178.25" font-family="Helvetica,sans-Serif" font-size="10.00">+</text>
<text xml:space="preserve" text-anchor="start" x="555.38" y="-178.25" font-family="Helvetica,sans-Serif" font-size="10.00">Role getSystemRole()</text>
<text xml:space="preserve" text-anchor="start" x="545.38" y="-162.25" font-family="Helvetica,sans-Serif" font-size="10.00">+</text>
<text xml:space="preserve" text-anchor="start" x="555.38" y="-162.25" font-family="Helvetica,sans-Serif" font-size="10.00">EmployeeType getEmployee</text>
<text xml:space="preserve" text-anchor="start" x="555.38" y="-150.25" font-family="Helvetica,sans-Serif" font-size="10.00">Type()</text>
<text xml:space="preserve" text-anchor="start" x="545.38" y="-134.25" font-family="Helvetica,sans-Serif" font-size="10.00">+</text>
<text xml:space="preserve" text-anchor="start" x="555.38" y="-134.25" font-family="Helvetica,sans-Serif" font-size="10.00">void createAccountForEmployee</text>
<text xml:space="preserve" text-anchor="start" x="555.38" y="-122.25" font-family="Helvetica,sans-Serif" font-size="10.00">(Employee e)</text>
<text xml:space="preserve" text-anchor="start" x="545.38" y="-106.25" font-family="Helvetica,sans-Serif" font-size="10.00">+</text>
<text xml:space="preserve" text-anchor="start" x="555.38" y="-106.25" font-family="Helvetica,sans-Serif" font-size="10.00">void deleteEmployeeAccount</text>
<text xml:space="preserve" text-anchor="start" x="555.38" y="-94.25" font-family="Helvetica,sans-Serif" font-size="10.00">(Employee e)</text>
<text xml:space="preserve" text-anchor="start" x="545.38" y="-78.25" font-family="Helvetica,sans-Serif" font-size="10.00">+</text>
<text xml:space="preserve" text-anchor="start" x="555.38" y="-78.25" font-family="Helvetica,sans-Serif" font-size="10.00">void credentialsRecovery</text>
<text xml:space="preserve" text-anchor="start" x="555.38" y="-66.25" font-family="Helvetica,sans-Serif" font-size="10.00">(Employee e)</text>
<polygon fill="#666666" stroke="#666666" points="541.38,-206 541.38,-206 701.12,-206 701.12,-206 541.38,-206"/>
<polygon fill="#666666" stroke="#666666" points="541.38,-190 541.38,-190 701.12,-190 701.12,-190 541.38,-190"/>
<polygon fill="none" stroke="#666666" points="541.38,-60 541.38,-224 701.12,-224 701.12,-60 541.38,-60"/>
</a>
</g>
</g>
<!-- Node1&#45;&gt;Node6 -->
<g id="edge5_Node000001_Node000006" class="edge">
<title>Node1&#45;&gt;Node6</title>
<g id="a_edge5_Node000001_Node000006"><a xlink:title=" ">
<path fill="none" stroke="#63b8ff" d="M558.3,-309.57C568.83,-281.68 580.44,-250.98 590.79,-223.6"/>
<polygon fill="none" stroke="#63b8ff" points="555.11,-308.09 554.85,-318.69 561.66,-310.57 555.11,-308.09"/>
</a>
</g>
</g>
<!-- Node7 -->
<g id="Node000007" class="node">
<title>Node7</title>
<g id="a_Node000007"><a xlink:href="classvixhealthsystem_1_1model_1_1person_1_1employee_1_1_technician.html" target="_top" xlink:title="Responsible for managing and maintaining medical machinery.">
<polygon fill="white" stroke="none" points="862.88,-202 719.62,-202 719.62,-82 862.88,-82 862.88,-202"/>
<text xml:space="preserve" text-anchor="start" x="768" y="-188.25" font-family="Helvetica,sans-Serif" font-size="10.00">Technician</text>
<text xml:space="preserve" text-anchor="start" x="789.75" y="-172.25" font-family="Helvetica,sans-Serif" font-size="10.00"> </text>
<text xml:space="preserve" text-anchor="start" x="723.62" y="-156.25" font-family="Helvetica,sans-Serif" font-size="10.00">+</text>
<text xml:space="preserve" text-anchor="start" x="733.62" y="-156.25" font-family="Helvetica,sans-Serif" font-size="10.00">Role getSystemRole()</text>
<text xml:space="preserve" text-anchor="start" x="723.62" y="-140.25" font-family="Helvetica,sans-Serif" font-size="10.00">+</text>
<text xml:space="preserve" text-anchor="start" x="733.62" y="-140.25" font-family="Helvetica,sans-Serif" font-size="10.00">EmployeeType getEmployee</text>
<text xml:space="preserve" text-anchor="start" x="733.62" y="-128.25" font-family="Helvetica,sans-Serif" font-size="10.00">Type()</text>
<text xml:space="preserve" text-anchor="start" x="723.62" y="-112.25" font-family="Helvetica,sans-Serif" font-size="10.00">+</text>
<text xml:space="preserve" text-anchor="start" x="733.62" y="-112.25" font-family="Helvetica,sans-Serif" font-size="10.00">List&lt; Machinery &gt; getFaulty</text>
<text xml:space="preserve" text-anchor="start" x="733.62" y="-100.25" font-family="Helvetica,sans-Serif" font-size="10.00">MachineList(List&lt; Machinery</text>
<text xml:space="preserve" text-anchor="start" x="733.62" y="-88.25" font-family="Helvetica,sans-Serif" font-size="10.00"> &gt; allMachines)</text>
<polygon fill="#666666" stroke="#666666" points="719.62,-184 719.62,-184 862.88,-184 862.88,-184 719.62,-184"/>
<polygon fill="#666666" stroke="#666666" points="719.62,-168 719.62,-168 862.88,-168 862.88,-168 719.62,-168"/>
<polygon fill="none" stroke="#666666" points="719.62,-82 719.62,-202 862.88,-202 862.88,-82 719.62,-82"/>
</a>
</g>
</g>
<!-- Node1&#45;&gt;Node7 -->
<g id="edge6_Node000001_Node000007" class="edge">
<title>Node1&#45;&gt;Node7</title>
<g id="a_edge6_Node000001_Node000007"><a xlink:title=" ">
<path fill="none" stroke="#63b8ff" d="M611.39,-356.25C644.96,-337.51 682.06,-312.96 710.25,-284 733.19,-260.43 752.03,-229.12 765.74,-201.98"/>
<polygon fill="none" stroke="#63b8ff" points="609.98,-353.03 602.89,-360.91 613.34,-359.18 609.98,-353.03"/>
</a>
</g>
</g>
<!-- Node8 -->
<g id="Node000008" class="node">
<title>Node8</title>
<g id="a_Node000008"><a xlink:title=" ">
<polygon fill="white" stroke="none" points="951.38,-168 881.12,-168 881.12,-116 951.38,-116 951.38,-168"/>
<text xml:space="preserve" text-anchor="start" x="885.12" y="-154.25" font-family="Helvetica,sans-Serif" font-size="10.00">TestEmployee</text>
<text xml:space="preserve" text-anchor="start" x="914.75" y="-138.25" font-family="Helvetica,sans-Serif" font-size="10.00"> </text>
<text xml:space="preserve" text-anchor="start" x="914.75" y="-122.25" font-family="Helvetica,sans-Serif" font-size="10.00"> </text>
<polygon fill="#bfbfbf" stroke="#bfbfbf" points="881.12,-150 881.12,-150 951.38,-150 951.38,-150 881.12,-150"/>
<polygon fill="#bfbfbf" stroke="#bfbfbf" points="881.12,-134 881.12,-134 951.38,-134 951.38,-134 881.12,-134"/>
<polygon fill="none" stroke="#bfbfbf" points="881.12,-116 881.12,-168 951.38,-168 951.38,-116 881.12,-116"/>
</a>
</g>
</g>
<!-- Node1&#45;&gt;Node8 -->
<g id="edge7_Node000001_Node000008" class="edge">
<title>Node1&#45;&gt;Node8</title>
<g id="a_edge7_Node000001_Node000008"><a xlink:title=" ">
<path fill="none" stroke="#63b8ff" d="M612.98,-390.67C691.11,-380.43 803.4,-353.71 872.25,-284 903.43,-252.44 912.56,-199.14 915.2,-167.9"/>
<polygon fill="none" stroke="#63b8ff" points="612.71,-387.17 603.21,-391.87 613.57,-394.12 612.71,-387.17"/>
</a>
</g>
</g>
<!-- Node2 -->
<g id="Node000002" class="node">
<title>Node2</title>
<g id="a_Node000002"><a xlink:href="classvixhealthsystem_1_1model_1_1person_1_1_person.html" target="_top" xlink:title="Base class for all people in the system.">
<polygon fill="white" stroke="none" points="596.12,-644 454.38,-644 454.38,-512 596.12,-512 596.12,-644"/>
<text xml:space="preserve" text-anchor="start" x="509.88" y="-630.25" font-family="Helvetica,sans-Serif" font-size="10.00">Person</text>
<text xml:space="preserve" text-anchor="start" x="523.75" y="-614.25" font-family="Helvetica,sans-Serif" font-size="10.00"> </text>
<text xml:space="preserve" text-anchor="start" x="458.38" y="-598.25" font-family="Helvetica,sans-Serif" font-size="10.00">+</text>
<text xml:space="preserve" text-anchor="start" x="468.38" y="-598.25" font-family="Helvetica,sans-Serif" font-size="10.00">Person()</text>
<text xml:space="preserve" text-anchor="start" x="458.38" y="-582.25" font-family="Helvetica,sans-Serif" font-size="10.00">+</text>
<text xml:space="preserve" text-anchor="start" x="468.38" y="-582.25" font-family="Helvetica,sans-Serif" font-size="10.00">Person(String name,</text>
<text xml:space="preserve" text-anchor="start" x="468.38" y="-570.25" font-family="Helvetica,sans-Serif" font-size="10.00"> String surname, LocalDate</text>
<text xml:space="preserve" text-anchor="start" x="468.38" y="-558.25" font-family="Helvetica,sans-Serif" font-size="10.00"> birthDate, String birthPlace,</text>
<text xml:space="preserve" text-anchor="start" x="468.38" y="-546.25" font-family="Helvetica,sans-Serif" font-size="10.00"> char gender, String email,</text>
<text xml:space="preserve" text-anchor="start" x="468.38" y="-534.25" font-family="Helvetica,sans-Serif" font-size="10.00"> String phoneNumber)</text>
<text xml:space="preserve" text-anchor="start" x="458.38" y="-518.25" font-family="Helvetica,sans-Serif" font-size="10.00">+</text>
<text xml:space="preserve" text-anchor="start" x="468.38" y="-518.25" font-family="Helvetica,sans-Serif" font-size="10.00">int getAge()</text>
<polygon fill="#666666" stroke="#666666" points="454.38,-626 454.38,-626 596.12,-626 596.12,-626 454.38,-626"/>
<polygon fill="#666666" stroke="#666666" points="454.38,-610 454.38,-610 596.12,-610 596.12,-610 454.38,-610"/>
<polygon fill="none" stroke="#666666" points="454.38,-512 454.38,-644 596.12,-644 596.12,-512 454.38,-512"/>
</a>
</g>
</g>
<!-- Node2&#45;&gt;Node1 -->
<g id="edge1_Node000001_Node000002" class="edge">
<title>Node2&#45;&gt;Node1</title>
<g id="a_edge1_Node000001_Node000002"><a xlink:title=" ">
<path fill="none" stroke="#63b8ff" d="M525.25,-500.99C525.25,-492.66 525.25,-484.16 525.25,-475.82"/>
<polygon fill="none" stroke="#63b8ff" points="521.75,-500.72 525.25,-510.72 528.75,-500.72 521.75,-500.72"/>
</a>
</g>
</g>
</g>
</svg>
