<?xml version="1.0" encoding="UTF-8" standalone="no"?>
<!DOCTYPE svg PUBLIC "-//W3C//DTD SVG 1.1//EN"
 "http://www.w3.org/Graphics/SVG/1.1/DTD/svg11.dtd">
<!-- Generated by graphviz version 15.0.0 (20260523.1842)
 -->
<!-- Title: Employee Pages: 1 -->
<svg width="959pt" height="604pt"
 viewBox="0.00 0.00 959.00 604.00" xmlns="http://www.w3.org/2000/svg" xmlns:xlink="http://www.w3.org/1999/xlink">
<g id="graph0" class="graph" transform="scale(1 1) rotate(0) translate(4 600)">
<title>Employee</title>
<!-- Node1 -->
<g id="Node000001" class="node">
<title>Node1</title>
<g id="a_Node000001"><a xlink:title="Represents a generic employee in the system.">
<polygon fill="#999999" stroke="none" points="601.75,-428 448.75,-428 448.75,-320 601.75,-320 601.75,-428"/>
<text xml:space="preserve" text-anchor="start" x="503.5" y="-414.25" font-family="Helvetica,sans-Serif" font-size="10.00">Employee</text>
<text xml:space="preserve" text-anchor="start" x="523.75" y="-398.25" font-family="Helvetica,sans-Serif" font-size="10.00"> </text>
<text xml:space="preserve" text-anchor="start" x="452.75" y="-382.25" font-family="Helvetica,sans-Serif" font-size="10.00">+</text>
<text xml:space="preserve" text-anchor="start" x="462.75" y="-382.25" font-family="Helvetica,sans-Serif" font-size="10.00">abstract Role getSystemRole()</text>
<text xml:space="preserve" text-anchor="start" x="452.75" y="-366.25" font-family="Helvetica,sans-Serif" font-size="10.00">+</text>
<text xml:space="preserve" text-anchor="start" x="462.75" y="-366.25" font-family="Helvetica,sans-Serif" font-size="10.00">abstract EmployeeType</text>
<text xml:space="preserve" text-anchor="start" x="462.75" y="-354.25" font-family="Helvetica,sans-Serif" font-size="10.00"> getEmployeeType()</text>
<text xml:space="preserve" text-anchor="start" x="452.75" y="-338.25" font-family="Helvetica,sans-Serif" font-size="10.00">+</text>
<text xml:space="preserve" text-anchor="start" x="462.75" y="-338.25" font-family="Helvetica,sans-Serif" font-size="10.00">void takeResource(Resource</text>
<text xml:space="preserve" text-anchor="start" x="462.75" y="-326.25" font-family="Helvetica,sans-Serif" font-size="10.00"> r, int q)</text>
<polygon fill="#666666" stroke="#666666" points="448.75,-410 448.75,-410 601.75,-410 601.75,-410 448.75,-410"/>
<polygon fill="#666666" stroke="#666666" points="448.75,-394 448.75,-394 601.75,-394 601.75,-394 448.75,-394"/>
<polygon fill="none" stroke="#666666" points="448.75,-320 448.75,-428 601.75,-428 601.75,-320 448.75,-320"/>
</a>
</g>
</g>
<!-- Node3 -->
<g id="Node000003" class="node">
<title>Node3</title>
<g id="a_Node000003"><a xlink:href="classvixhealthsystem_1_1model_1_1person_1_1employee_1_1_buyer.html" target="_top" xlink:title="Part of the purchasing department.">
<polygon fill="white" stroke="none" points="142.5,-196 0,-196 0,-88 142.5,-88 142.5,-196"/>
<text xml:space="preserve" text-anchor="start" x="58.5" y="-182.25" font-family="Helvetica,sans-Serif" font-size="10.00">Buyer</text>
<text xml:space="preserve" text-anchor="start" x="69.75" y="-166.25" font-family="Helvetica,sans-Serif" font-size="10.00"> </text>
<text xml:space="preserve" text-anchor="start" x="4" y="-150.25" font-family="Helvetica,sans-Serif" font-size="10.00">+</text>
<text xml:space="preserve" text-anchor="start" x="14" y="-150.25" font-family="Helvetica,sans-Serif" font-size="10.00">Role getSystemRole()</text>
<text xml:space="preserve" text-anchor="start" x="4" y="-134.25" font-family="Helvetica,sans-Serif" font-size="10.00">+</text>
<text xml:space="preserve" text-anchor="start" x="14" y="-134.25" font-family="Helvetica,sans-Serif" font-size="10.00">EmployeeType getEmployee</text>
<text xml:space="preserve" text-anchor="start" x="14" y="-122.25" font-family="Helvetica,sans-Serif" font-size="10.00">Type()</text>
<text xml:space="preserve" text-anchor="start" x="4" y="-106.25" font-family="Helvetica,sans-Serif" font-size="10.00">+</text>
<text xml:space="preserve" text-anchor="start" x="14" y="-106.25" font-family="Helvetica,sans-Serif" font-size="10.00">void addResource(Resource</text>
<text xml:space="preserve" text-anchor="start" x="14" y="-94.25" font-family="Helvetica,sans-Serif" font-size="10.00"> resource, int quantity)</text>
<polygon fill="#666666" stroke="#666666" points="0,-178 0,-178 142.5,-178 142.5,-178 0,-178"/>
<polygon fill="#666666" stroke="#666666" points="0,-162 0,-162 142.5,-162 142.5,-162 0,-162"/>
<polygon fill="none" stroke="#666666" points="0,-88 0,-196 142.5,-196 142.5,-88 0,-88"/>
</a>
</g>
</g>
<!-- Node1&#45;&gt;Node3 -->
<g id="edge2_Node000001_Node000003" class="edge">
<title>Node1&#45;&gt;Node3</title>
<g id="a_edge2_Node000001_Node000003"><a xlink:title=" ">
<path fill="none" stroke="#63b8ff" d="M437.67,-371.37C356.36,-365.72 235.65,-346.33 152.25,-284 122.85,-262.03 102.42,-226.01 89.44,-195.88"/>
<polygon fill="none" stroke="#63b8ff" points="437.16,-374.85 447.36,-371.99 437.6,-367.86 437.16,-374.85"/>
</a>
</g>
</g>
<!-- Node4 -->
<g id="Node000004" class="node">
<title>Node4</title>
<g id="a_Node000004"><a xlink:href="classvixhealthsystem_1_1model_1_1person_1_1employee_1_1_medical_specialist.html" target="_top" xlink:title="Represents medical personnel such as doctors, surgeons, specialists and nurses.">
<polygon fill="white" stroke="none" points="317.62,-218 160.88,-218 160.88,-66 317.62,-66 317.62,-218"/>
<text xml:space="preserve" text-anchor="start" x="201" y="-204.25" font-family="Helvetica,sans-Serif" font-size="10.00">MedicalSpecialist</text>
<text xml:space="preserve" text-anchor="start" x="237.75" y="-188.25" font-family="Helvetica,sans-Serif" font-size="10.00"> </text>
<text xml:space="preserve" text-anchor="start" x="164.88" y="-172.25" font-family="Helvetica,sans-Serif" font-size="10.00">+</text>
<text xml:space="preserve" text-anchor="start" x="174.88" y="-172.25" font-family="Helvetica,sans-Serif" font-size="10.00">MedicalSpecialist()</text>
<text xml:space="preserve" text-anchor="start" x="164.88" y="-156.25" font-family="Helvetica,sans-Serif" font-size="10.00">+</text>
<text xml:space="preserve" text-anchor="start" x="174.88" y="-156.25" font-family="Helvetica,sans-Serif" font-size="10.00">Role getSystemRole()</text>
<text xml:space="preserve" text-anchor="start" x="164.88" y="-140.25" font-family="Helvetica,sans-Serif" font-size="10.00">+</text>
<text xml:space="preserve" text-anchor="start" x="174.88" y="-140.25" font-family="Helvetica,sans-Serif" font-size="10.00">EmployeeType getEmployee</text>
<text xml:space="preserve" text-anchor="start" x="174.88" y="-128.25" font-family="Helvetica,sans-Serif" font-size="10.00">Type()</text>
<text xml:space="preserve" text-anchor="start" x="164.88" y="-112.25" font-family="Helvetica,sans-Serif" font-size="10.00">+</text>
<text xml:space="preserve" text-anchor="start" x="174.88" y="-112.25" font-family="Helvetica,sans-Serif" font-size="10.00">void appPrescriptionForPatient</text>
<text xml:space="preserve" text-anchor="start" x="174.88" y="-100.25" font-family="Helvetica,sans-Serif" font-size="10.00">(Patient p, Prescription pr)</text>
<text xml:space="preserve" text-anchor="start" x="164.88" y="-84.25" font-family="Helvetica,sans-Serif" font-size="10.00">+</text>
<text xml:space="preserve" text-anchor="start" x="174.88" y="-84.25" font-family="Helvetica,sans-Serif" font-size="10.00">void scheduleSurgeryForPatient</text>
<text xml:space="preserve" text-anchor="start" x="174.88" y="-72.25" font-family="Helvetica,sans-Serif" font-size="10.00">(Patient p, Surgery s)</text>
<polygon fill="#666666" stroke="#666666" points="160.88,-200 160.88,-200 317.62,-200 317.62,-200 160.88,-200"/>
<polygon fill="#666666" stroke="#666666" points="160.88,-184 160.88,-184 317.62,-184 317.62,-184 160.88,-184"/>
<polygon fill="none" stroke="#666666" points="160.88,-66 160.88,-218 317.62,-218 317.62,-66 160.88,-66"/>
</a>
</g>
</g>
<!-- Node1&#45;&gt;Node4 -->
<g id="edge3_Node000001_Node000004" class="edge">
<title>Node1&#45;&gt;Node4</title>
<g id="a_edge3_Node000001_Node000004"><a xlink:title=" ">
<path fill="none" stroke="#63b8ff" d="M438.34,-347.05C400.88,-332.78 358.39,-312.15 326.25,-284 305.37,-265.71 287.87,-241.18 274.17,-217.7"/>
<polygon fill="none" stroke="#63b8ff" points="436.75,-350.19 447.34,-350.38 439.18,-343.62 436.75,-350.19"/>
</a>
</g>
</g>
<!-- Node5 -->
<g id="Node000005" class="node">
<title>Node5</title>
<g id="a_Node000005"><a xlink:href="classvixhealthsystem_1_1model_1_1person_1_1employee_1_1_secretary.html" target="_top" xlink:title="Handles administrative tasks such as appointment scheduling, patient admissions and discharges.">
<polygon fill="white" stroke="none" points="523,-284 335.5,-284 335.5,0 523,0 523,-284"/>
<text xml:space="preserve" text-anchor="start" x="408.25" y="-270.25" font-family="Helvetica,sans-Serif" font-size="10.00">Secretary</text>
<text xml:space="preserve" text-anchor="start" x="427.75" y="-254.25" font-family="Helvetica,sans-Serif" font-size="10.00"> </text>
<text xml:space="preserve" text-anchor="start" x="339.5" y="-238.25" font-family="Helvetica,sans-Serif" font-size="10.00">+</text>
<text xml:space="preserve" text-anchor="start" x="349.5" y="-238.25" font-family="Helvetica,sans-Serif" font-size="10.00">Secretary()</text>
<text xml:space="preserve" text-anchor="start" x="339.5" y="-222.25" font-family="Helvetica,sans-Serif" font-size="10.00">+</text>
<text xml:space="preserve" text-anchor="start" x="349.5" y="-222.25" font-family="Helvetica,sans-Serif" font-size="10.00">Role getSystemRole()</text>
<text xml:space="preserve" text-anchor="start" x="339.5" y="-206.25" font-family="Helvetica,sans-Serif" font-size="10.00">+</text>
<text xml:space="preserve" text-anchor="start" x="349.5" y="-206.25" font-family="Helvetica,sans-Serif" font-size="10.00">EmployeeType getEmployee</text>
<text xml:space="preserve" text-anchor="start" x="349.5" y="-194.25" font-family="Helvetica,sans-Serif" font-size="10.00">Type()</text>
<text xml:space="preserve" text-anchor="start" x="339.5" y="-178.25" font-family="Helvetica,sans-Serif" font-size="10.00">+</text>
<text xml:space="preserve" text-anchor="start" x="349.5" y="-178.25" font-family="Helvetica,sans-Serif" font-size="10.00">Appointment makeAppointment</text>
<text xml:space="preserve" text-anchor="start" x="349.5" y="-166.25" font-family="Helvetica,sans-Serif" font-size="10.00">ForPatient(Patient p, MedicalSpecialist</text>
<text xml:space="preserve" text-anchor="start" x="349.5" y="-154.25" font-family="Helvetica,sans-Serif" font-size="10.00"> m, LocalDateTime dt)</text>
<text xml:space="preserve" text-anchor="start" x="339.5" y="-138.25" font-family="Helvetica,sans-Serif" font-size="10.00">+</text>
<text xml:space="preserve" text-anchor="start" x="349.5" y="-138.25" font-family="Helvetica,sans-Serif" font-size="10.00">void rescheduleAppointment</text>
<text xml:space="preserve" text-anchor="start" x="349.5" y="-126.25" font-family="Helvetica,sans-Serif" font-size="10.00">ForPatient(Patient p, LocalDate</text>
<text xml:space="preserve" text-anchor="start" x="349.5" y="-114.25" font-family="Helvetica,sans-Serif" font-size="10.00">Time dtOld, LocalDateTime dtNew)</text>
<text xml:space="preserve" text-anchor="start" x="339.5" y="-98.25" font-family="Helvetica,sans-Serif" font-size="10.00">+</text>
<text xml:space="preserve" text-anchor="start" x="349.5" y="-98.25" font-family="Helvetica,sans-Serif" font-size="10.00">void cancelAppointmentFor</text>
<text xml:space="preserve" text-anchor="start" x="349.5" y="-86.25" font-family="Helvetica,sans-Serif" font-size="10.00">Patient(Patient p, LocalDateTime dt)</text>
<text xml:space="preserve" text-anchor="start" x="339.5" y="-70.25" font-family="Helvetica,sans-Serif" font-size="10.00">+</text>
<text xml:space="preserve" text-anchor="start" x="349.5" y="-70.25" font-family="Helvetica,sans-Serif" font-size="10.00">void setPatientInRoom</text>
<text xml:space="preserve" text-anchor="start" x="349.5" y="-58.25" font-family="Helvetica,sans-Serif" font-size="10.00">(InternationRoom ir,</text>
<text xml:space="preserve" text-anchor="start" x="349.5" y="-46.25" font-family="Helvetica,sans-Serif" font-size="10.00"> Patient p)</text>
<text xml:space="preserve" text-anchor="start" x="339.5" y="-30.25" font-family="Helvetica,sans-Serif" font-size="10.00">+</text>
<text xml:space="preserve" text-anchor="start" x="349.5" y="-30.25" font-family="Helvetica,sans-Serif" font-size="10.00">void dismissPatient</text>
<text xml:space="preserve" text-anchor="start" x="349.5" y="-18.25" font-family="Helvetica,sans-Serif" font-size="10.00">(InternationRoom ir,</text>
<text xml:space="preserve" text-anchor="start" x="349.5" y="-6.25" font-family="Helvetica,sans-Serif" font-size="10.00"> Patient p)</text>
<polygon fill="#666666" stroke="#666666" points="335.5,-266 335.5,-266 523,-266 523,-266 335.5,-266"/>
<polygon fill="#666666" stroke="#666666" points="335.5,-250 335.5,-250 523,-250 523,-250 335.5,-250"/>
<polygon fill="none" stroke="#666666" points="335.5,0 335.5,-284 523,-284 523,0 335.5,0"/>
</a>
</g>
</g>
<!-- Node1&#45;&gt;Node5 -->
<g id="edge4_Node000001_Node000005" class="edge">
<title>Node1&#45;&gt;Node5</title>
<g id="a_edge4_Node000001_Node000005"><a xlink:title=" ">
<path fill="none" stroke="#63b8ff" d="M498.8,-309.63C495.35,-301.35 491.7,-292.63 487.97,-283.68"/>
<polygon fill="none" stroke="#63b8ff" points="495.56,-310.96 502.64,-318.84 502.02,-308.26 495.56,-310.96"/>
</a>
</g>
</g>
<!-- Node6 -->
<g id="Node000006" class="node">
<title>Node6</title>
<g id="a_Node000006"><a xlink:href="classvixhealthsystem_1_1model_1_1person_1_1employee_1_1_staff_manager.html" target="_top" xlink:title="Manages employee accounts in the system.">
<polygon fill="white" stroke="none" points="701.12,-224 541.38,-224 541.38,-60 701.12,-60 701.12,-224"/>
<text xml:space="preserve" text-anchor="start" x="592.38" y="-210.25" font-family="Helvetica,sans-Serif" font-size="10.00">StaffManager</text>
<text xml:space="preserve" text-anchor="start" x="619.75" y="-194.25" font-family="Helvetica,sans-Serif" font-size="10.00"> </text>
<text xml:space="preserve" text-anchor="start" x="545.38" y="-178.25" font-family="Helvetica,sans-Serif" font-size="10.00">+</text>
<text xml:space="preserve" text-anchor="start" x="555.38" y="-178.25" font-family="Helvetica,sans-Serif" font-size="10.00">Role getSystemRole()</text>
<text xml:space="preserve" text-anchor="start" x="545.38" y="-162.25" font-family="Helvetica,sans-Serif" font-size="10.00">+</text>
<text xml:space="preserve" text-anchor="start" x="555.38" y="-162.25" font-family="Helvetica,sans-Serif" font-size="10.00">EmployeeType getEmployee</text>
<text xml:space="preserve" text-anchor="start" x="555.38" y="-150.25" font-family="Helvetica,sans-Serif" font-size="10.00">Type()</text>
<text xml:space="preserve" text-anchor="start" x="545.38" y="-134.25" font-family="Helvetica,sans-Serif" font-size="10.00">+</text>
<text xml:space="preserve" text-anchor="start" x="555.38" y="-134.25" font-family="Helvetica,sans-Serif" font-size="10.00">void createAccountForEmployee</text>
<text xml:space="preserve" text-anchor="start" x="555.38" y="-122.25" font-family="Helvetica,sans-Serif" font-size="10.00">(Employee e)</text>
<text xml:space="preserve" text-anchor="start" x="545.38" y="-106.25" font-family="Helvetica,sans-Serif" font-size="10.00">+</text>
<text xml:space="preserve" text-anchor="start" x="555.38" y="-106.25" font-family="Helvetica,sans-Serif" font-size="10.00">void deleteEmployeeAccount</text>
<text xml:space="preserve" text-anchor="start" x="555.38" y="-94.25" font-family="Helvetica,sans-Serif" font-size="10.00">(Employee e)</text>
<text xml:space="preserve" text-anchor="start" x="545.38" y="-78.25" font-family="Helvetica,sans-Serif" font-size="10.00">+</text>
<text xml:space="preserve" text-anchor="start" x="555.38" y="-78.25" font-family="Helvetica,sans-Serif" font-size="10.00">void credentialsRecovery</text>
<text xml:space="preserve" text-anchor="start" x="555.38" y="-66.25" font-family="Helvetica,sans-Serif" font-size="10.00">(Employee e)</text>
<polygon fill="#666666" stroke="#666666" points="541.38,-206 541.38,-206 701.12,-206 701.12,-206 541.38,-206"/>
<polygon fill="#666666" stroke="#666666" points="541.38,-190 541.38,-190 701.12,-190 701.12,-190 541.38,-190"/>
<polygon fill="none" stroke="#666666" points="541.38,-60 541.38,-224 701.12,-224 701.12,-60 541.38,-60"/>
</a>
</g>
</g>
<!-- Node1&#45;&gt;Node6 -->
<g id="edge5_Node000001_Node000006" class="edge">
<title>Node1&#45;&gt;Node6</title>
<g id="a_edge5_Node000001_Node000006"><a xlink:title=" ">
<path fill="none" stroke="#63b8ff" d="M551.58,-309.93C562.66,-283.38 575.69,-252.15 587.47,-223.94"/>
<polygon fill="none" stroke="#63b8ff" points="548.48,-308.26 547.86,-318.84 554.94,-310.96 548.48,-308.26"/>
</a>
</g>
</g>
<!-- Node7 -->
<g id="Node000007" class="node">
<title>Node7</title>
<g id="a_Node000007"><a xlink:href="classvixhealthsystem_1_1model_1_1person_1_1employee_1_1_technician.html" target="_top" xlink:title="Responsible for managing and maintaining medical machinery.">
<polygon fill="white" stroke="none" points="862.88,-202 719.62,-202 719.62,-82 862.88,-82 862.88,-202"/>
<text xml:space="preserve" text-anchor="start" x="768" y="-188.25" font-family="Helvetica,sans-Serif" font-size="10.00">Technician</text>
<text xml:space="preserve" text-anchor="start" x="789.75" y="-172.25" font-family="Helvetica,sans-Serif" font-size="10.00"> </text>
<text xml:space="preserve" text-anchor="start" x="723.62" y="-156.25" font-family="Helvetica,sans-Serif" font-size="10.00">+</text>
<text xml:space="preserve" text-anchor="start" x="733.62" y="-156.25" font-family="Helvetica,sans-Serif" font-size="10.00">Role getSystemRole()</text>
<text xml:space="preserve" text-anchor="start" x="723.62" y="-140.25" font-family="Helvetica,sans-Serif" font-size="10.00">+</text>
<text xml:space="preserve" text-anchor="start" x="733.62" y="-140.25" font-family="Helvetica,sans-Serif" font-size="10.00">EmployeeType getEmployee</text>
<text xml:space="preserve" text-anchor="start" x="733.62" y="-128.25" font-family="Helvetica,sans-Serif" font-size="10.00">Type()</text>
<text xml:space="preserve" text-anchor="start" x="723.62" y="-112.25" font-family="Helvetica,sans-Serif" font-size="10.00">+</text>
<text xml:space="preserve" text-anchor="start" x="733.62" y="-112.25" font-family="Helvetica,sans-Serif" font-size="10.00">List&lt; Machinery &gt; getFaulty</text>
<text xml:space="preserve" text-anchor="start" x="733.62" y="-100.25" font-family="Helvetica,sans-Serif" font-size="10.00">MachineList(List&lt; Machinery</text>
<text xml:space="preserve" text-anchor="start" x="733.62" y="-88.25" font-family="Helvetica,sans-Serif" font-size="10.00"> &gt; allMachines)</text>
<polygon fill="#666666" stroke="#666666" points="719.62,-184 719.62,-184 862.88,-184 862.88,-184 719.62,-184"/>
<polygon fill="#666666" stroke="#666666" points="719.62,-168 719.62,-168 862.88,-168 862.88,-168 719.62,-168"/>
<polygon fill="none" stroke="#666666" points="719.62,-82 719.62,-202 862.88,-202 862.88,-82 719.62,-82"/>
</a>
</g>
</g>
<!-- Node1&#45;&gt;Node7 -->
<g id="edge6_Node000001_Node000007" class="edge">
<title>Node1&#45;&gt;Node7</title>
<g id="a_edge6_Node000001_Node000007"><a xlink:title=" ">
<path fill="none" stroke="#63b8ff" d="M611.98,-344.01C645.46,-329.75 682.33,-309.95 710.25,-284 734.65,-261.32 753.77,-229.59 767.28,-201.97"/>
<polygon fill="none" stroke="#63b8ff" points="611.01,-340.62 603.11,-347.68 613.69,-347.09 611.01,-340.62"/>
</a>
</g>
</g>
<!-- Node8 -->
<g id="Node000008" class="node">
<title>Node8</title>
<g id="a_Node000008"><a xlink:title=" ">
<polygon fill="white" stroke="none" points="951.38,-168 881.12,-168 881.12,-116 951.38,-116 951.38,-168"/>
<text xml:space="preserve" text-anchor="start" x="885.12" y="-154.25" font-family="Helvetica,sans-Serif" font-size="10.00">TestEmployee</text>
<text xml:space="preserve" text-anchor="start" x="914.75" y="-138.25" font-family="Helvetica,sans-Serif" font-size="10.00"> </text>
<text xml:space="preserve" text-anchor="start" x="914.75" y="-122.25" font-family="Helvetica,sans-Serif" font-size="10.00"> </text>
<polygon fill="#bfbfbf" stroke="#bfbfbf" points="881.12,-150 881.12,-150 951.38,-150 951.38,-150 881.12,-150"/>
<polygon fill="#bfbfbf" stroke="#bfbfbf" points="881.12,-134 881.12,-134 951.38,-134 951.38,-134 881.12,-134"/>
<polygon fill="none" stroke="#bfbfbf" points="881.12,-116 881.12,-168 951.38,-168 951.38,-116 881.12,-116"/>
</a>
</g>
</g>
<!-- Node1&#45;&gt;Node8 -->
<g id="edge7_Node000001_Node000008" class="edge">
<title>Node1&#45;&gt;Node8</title>
<g id="a_edge7_Node000001_Node000008"><a xlink:title=" ">
<path fill="none" stroke="#63b8ff" d="M612.79,-360.45C702.9,-345.84 835.22,-319.17 872.25,-284 904.51,-253.36 913.25,-199.49 915.54,-167.95"/>
<polygon fill="none" stroke="#63b8ff" points="612.28,-356.98 602.96,-362.02 613.39,-363.9 612.28,-356.98"/>
</a>
</g>
</g>
<!-- Node2 -->
<g id="Node000002" class="node">
<title>Node2</title>
<g id="a_Node000002"><a xlink:href="classvixhealthsystem_1_1model_1_1person_1_1_person.html" target="_top" xlink:title="Base class for all people in the system.">
<polygon fill="white" stroke="none" points="596.12,-596 454.38,-596 454.38,-464 596.12,-464 596.12,-596"/>
<text xml:space="preserve" text-anchor="start" x="509.88" y="-582.25" font-family="Helvetica,sans-Serif" font-size="10.00">Person</text>
<text xml:space="preserve" text-anchor="start" x="523.75" y="-566.25" font-family="Helvetica,sans-Serif" font-size="10.00"> </text>
<text xml:space="preserve" text-anchor="start" x="458.38" y="-550.25" font-family="Helvetica,sans-Serif" font-size="10.00">+</text>
<text xml:space="preserve" text-anchor="start" x="468.38" y="-550.25" font-family="Helvetica,sans-Serif" font-size="10.00">Person()</text>
<text xml:space="preserve" text-anchor="start" x="458.38" y="-534.25" font-family="Helvetica,sans-Serif" font-size="10.00">+</text>
<text xml:space="preserve" text-anchor="start" x="468.38" y="-534.25" font-family="Helvetica,sans-Serif" font-size="10.00">Person(String name,</text>
<text xml:space="preserve" text-anchor="start" x="468.38" y="-522.25" font-family="Helvetica,sans-Serif" font-size="10.00"> String surname, LocalDate</text>
<text xml:space="preserve" text-anchor="start" x="468.38" y="-510.25" font-family="Helvetica,sans-Serif" font-size="10.00"> birthDate, String birthPlace,</text>
<text xml:space="preserve" text-anchor="start" x="468.38" y="-498.25" font-family="Helvetica,sans-Serif" font-size="10.00"> char gender, String email,</text>
<text xml:space="preserve" text-anchor="start" x="468.38" y="-486.25" font-family="Helvetica,sans-Serif" font-size="10.00"> String phoneNumber)</text>
<text xml:space="preserve" text-anchor="start" x="458.38" y="-470.25" font-family="Helvetica,sans-Serif" font-size="10.00">+</text>
<text xml:space="preserve" text-anchor="start" x="468.38" y="-470.25" font-family="Helvetica,sans-Serif" font-size="10.00">int getAge()</text>
<polygon fill="#666666" stroke="#666666" points="454.38,-578 454.38,-578 596.12,-578 596.12,-578 454.38,-578"/>
<polygon fill="#666666" stroke="#666666" points="454.38,-562 454.38,-562 596.12,-562 596.12,-562 454.38,-562"/>
<polygon fill="none" stroke="#666666" points="454.38,-464 454.38,-596 596.12,-596 596.12,-464 454.38,-464"/>
</a>
</g>
</g>
<!-- Node2&#45;&gt;Node1 -->
<g id="edge1_Node000001_Node000002" class="edge">
<title>Node2&#45;&gt;Node1</title>
<g id="a_edge1_Node000001_Node000002"><a xlink:title=" ">
<path fill="none" stroke="#63b8ff" d="M525.25,-452.65C525.25,-444.19 525.25,-435.72 525.25,-427.65"/>
<polygon fill="none" stroke="#63b8ff" points="521.75,-452.62 525.25,-462.62 528.75,-452.62 521.75,-452.62"/>
</a>
</g>
</g>
</g>
</svg>
