<?xml version="1.0" encoding="UTF-8" standalone="no"?>
<!DOCTYPE svg PUBLIC "-//W3C//DTD SVG 1.1//EN"
 "http://www.w3.org/Graphics/SVG/1.1/DTD/svg11.dtd">
<!-- Generated by graphviz version 15.0.0 (20260523.1842)
 -->
<!-- Title: Resource Pages: 1 -->
<svg width="127pt" height="100pt"
 viewBox="0.00 0.00 127.00 100.00" xmlns="http://www.w3.org/2000/svg" xmlns:xlink="http://www.w3.org/1999/xlink">
<g id="graph0" class="graph" transform="scale(1 1) rotate(0) translate(4 96)">
<title>Resource</title>
<!-- Node1 -->
<g id="Node000001" class="node">
<title>Node1</title>
<g id="a_Node000001"><a xlink:title="Represents a resource stored and managed by a medical facility.">
<polygon fill="#999999" stroke="none" points="118.5,-92 0,-92 0,0 118.5,0 118.5,-92"/>
<text xml:space="preserve" text-anchor="start" x="38.25" y="-78.25" font-family="Helvetica,sans-Serif" font-size="10.00">Resource</text>
<text xml:space="preserve" text-anchor="start" x="57.75" y="-62.25" font-family="Helvetica,sans-Serif" font-size="10.00"> </text>
<text xml:space="preserve" text-anchor="start" x="4" y="-46.25" font-family="Helvetica,sans-Serif" font-size="10.00">+</text>
<text xml:space="preserve" text-anchor="start" x="14" y="-46.25" font-family="Helvetica,sans-Serif" font-size="10.00">Resource()</text>
<text xml:space="preserve" text-anchor="start" x="4" y="-30.25" font-family="Helvetica,sans-Serif" font-size="10.00">+</text>
<text xml:space="preserve" text-anchor="start" x="14" y="-30.25" font-family="Helvetica,sans-Serif" font-size="10.00">Resource(String name,</text>
<text xml:space="preserve" text-anchor="start" x="14" y="-18.25" font-family="Helvetica,sans-Serif" font-size="10.00"> String description,</text>
<text xml:space="preserve" text-anchor="start" x="14" y="-6.25" font-family="Helvetica,sans-Serif" font-size="10.00"> BigDecimal price)</text>
<polygon fill="#666666" stroke="#666666" points="0,-74 0,-74 118.5,-74 118.5,-74 0,-74"/>
<polygon fill="#666666" stroke="#666666" points="0,-58 0,-58 118.5,-58 118.5,-58 0,-58"/>
<polygon fill="none" stroke="#666666" points="0,0 0,-92 118.5,-92 118.5,0 0,0"/>
</a>
</g>
</g>
</g>
</svg>
