<?xml version="1.0" encoding="UTF-8" standalone="no"?>
<!DOCTYPE svg PUBLIC "-//W3C//DTD SVG 1.1//EN"
 "http://www.w3.org/Graphics/SVG/1.1/DTD/svg11.dtd">
<!-- Generated by graphviz version 15.0.0 (20260523.1842)
 -->
<!-- Title: Storage Pages: 1 -->
<svg width="150pt" height="132pt"
 viewBox="0.00 0.00 150.00 132.00" xmlns="http://www.w3.org/2000/svg" xmlns:xlink="http://www.w3.org/1999/xlink">
<g id="graph0" class="graph" transform="scale(1 1) rotate(0) translate(4 128)">
<title>Storage</title>
<!-- Node1 -->
<g id="Node000001" class="node">
<title>Node1</title>
<g id="a_Node000001"><a xlink:title="Represents the storage of a medical facility.">
<polygon fill="#999999" stroke="none" points="141.75,-124 0,-124 0,0 141.75,0 141.75,-124"/>
<text xml:space="preserve" text-anchor="start" x="54" y="-110.25" font-family="Helvetica,sans-Serif" font-size="10.00">Storage</text>
<text xml:space="preserve" text-anchor="start" x="69.38" y="-94.25" font-family="Helvetica,sans-Serif" font-size="10.00"> </text>
<text xml:space="preserve" text-anchor="start" x="4" y="-78.25" font-family="Helvetica,sans-Serif" font-size="10.00">+</text>
<text xml:space="preserve" text-anchor="start" x="14" y="-78.25" font-family="Helvetica,sans-Serif" font-size="10.00">Storage()</text>
<text xml:space="preserve" text-anchor="start" x="4" y="-62.25" font-family="Helvetica,sans-Serif" font-size="10.00">+</text>
<text xml:space="preserve" text-anchor="start" x="14" y="-62.25" font-family="Helvetica,sans-Serif" font-size="10.00">int getTotalQuantity()</text>
<text xml:space="preserve" text-anchor="start" x="4" y="-46.25" font-family="Helvetica,sans-Serif" font-size="10.00">+</text>
<text xml:space="preserve" text-anchor="start" x="14" y="-46.25" font-family="Helvetica,sans-Serif" font-size="10.00">void addResource(Resource</text>
<text xml:space="preserve" text-anchor="start" x="14" y="-34.25" font-family="Helvetica,sans-Serif" font-size="10.00"> r, int q)</text>
<text xml:space="preserve" text-anchor="start" x="4" y="-18.25" font-family="Helvetica,sans-Serif" font-size="10.00">+</text>
<text xml:space="preserve" text-anchor="start" x="14" y="-18.25" font-family="Helvetica,sans-Serif" font-size="10.00">void removeResource</text>
<text xml:space="preserve" text-anchor="start" x="14" y="-6.25" font-family="Helvetica,sans-Serif" font-size="10.00">(Resource r, int q)</text>
<polygon fill="#666666" stroke="#666666" points="0,-106 0,-106 141.75,-106 141.75,-106 0,-106"/>
<polygon fill="#666666" stroke="#666666" points="0,-90 0,-90 141.75,-90 141.75,-90 0,-90"/>
<polygon fill="none" stroke="#666666" points="0,0 0,-124 141.75,-124 141.75,0 0,0"/>
</a>
</g>
</g>
</g>
</svg>
