<?xml version="1.0" encoding="UTF-8" standalone="no"?>
<!DOCTYPE svg PUBLIC "-//W3C//DTD SVG 1.1//EN"
 "http://www.w3.org/Graphics/SVG/1.1/DTD/svg11.dtd">
<!-- Generated by graphviz version 15.0.0 (20260523.1842)
 -->
<!-- Title: Location Pages: 1 -->
<svg width="134pt" height="88pt"
 viewBox="0.00 0.00 134.00 88.00" xmlns="http://www.w3.org/2000/svg" xmlns:xlink="http://www.w3.org/1999/xlink">
<g id="graph0" class="graph" transform="scale(1 1) rotate(0) translate(4 84)">
<title>Location</title>
<!-- Node1 -->
<g id="Node000001" class="node">
<title>Node1</title>
<g id="a_Node000001"><a xlink:title="Represents the geographic coordinates of a medical facility.">
<polygon fill="#999999" stroke="none" points="126,-80 0,-80 0,0 126,0 126,-80"/>
<text xml:space="preserve" text-anchor="start" x="44.62" y="-66.25" font-family="Helvetica,sans-Serif" font-size="10.00">Location</text>
<text xml:space="preserve" text-anchor="start" x="61.5" y="-50.25" font-family="Helvetica,sans-Serif" font-size="10.00"> </text>
<text xml:space="preserve" text-anchor="start" x="4" y="-34.25" font-family="Helvetica,sans-Serif" font-size="10.00">+</text>
<text xml:space="preserve" text-anchor="start" x="14" y="-34.25" font-family="Helvetica,sans-Serif" font-size="10.00">Location()</text>
<text xml:space="preserve" text-anchor="start" x="4" y="-18.25" font-family="Helvetica,sans-Serif" font-size="10.00">+</text>
<text xml:space="preserve" text-anchor="start" x="14" y="-18.25" font-family="Helvetica,sans-Serif" font-size="10.00">Location(Double latitude,</text>
<text xml:space="preserve" text-anchor="start" x="14" y="-6.25" font-family="Helvetica,sans-Serif" font-size="10.00"> Double longitude)</text>
<polygon fill="#666666" stroke="#666666" points="0,-62 0,-62 126,-62 126,-62 0,-62"/>
<polygon fill="#666666" stroke="#666666" points="0,-46 0,-46 126,-46 126,-46 0,-46"/>
<polygon fill="none" stroke="#666666" points="0,0 0,-80 126,-80 126,0 0,0"/>
</a>
</g>
</g>
</g>
</svg>
