<?xml version="1.0" encoding="UTF-8" standalone="no"?>
<!DOCTYPE svg PUBLIC "-//W3C//DTD SVG 1.1//EN"
 "http://www.w3.org/Graphics/SVG/1.1/DTD/svg11.dtd">
<!-- Generated by graphviz version 15.0.0 (20260523.1842)
 -->
<!-- Title: Prescription Pages: 1 -->
<svg width="154pt" height="88pt"
 viewBox="0.00 0.00 154.00 88.00" xmlns="http://www.w3.org/2000/svg" xmlns:xlink="http://www.w3.org/1999/xlink">
<g id="graph0" class="graph" transform="scale(1 1) rotate(0) translate(4 84)">
<title>Prescription</title>
<!-- Node1 -->
<g id="Node000001" class="node">
<title>Node1</title>
<g id="a_Node000001"><a xlink:title="Represents a medical prescription issued by a medical specialist.">
<polygon fill="#999999" stroke="none" points="146.25,-80 0,-80 0,0 146.25,0 146.25,-80"/>
<text xml:space="preserve" text-anchor="start" x="47.25" y="-66.25" font-family="Helvetica,sans-Serif" font-size="10.00">Prescription</text>
<text xml:space="preserve" text-anchor="start" x="71.62" y="-50.25" font-family="Helvetica,sans-Serif" font-size="10.00"> </text>
<text xml:space="preserve" text-anchor="start" x="4" y="-34.25" font-family="Helvetica,sans-Serif" font-size="10.00">+</text>
<text xml:space="preserve" text-anchor="start" x="14" y="-34.25" font-family="Helvetica,sans-Serif" font-size="10.00">Prescription()</text>
<text xml:space="preserve" text-anchor="start" x="4" y="-18.25" font-family="Helvetica,sans-Serif" font-size="10.00">+</text>
<text xml:space="preserve" text-anchor="start" x="14" y="-18.25" font-family="Helvetica,sans-Serif" font-size="10.00">Prescription(LocalDateTime</text>
<text xml:space="preserve" text-anchor="start" x="14" y="-6.25" font-family="Helvetica,sans-Serif" font-size="10.00"> dateTime, String medication)</text>
<polygon fill="#666666" stroke="#666666" points="0,-62 0,-62 146.25,-62 146.25,-62 0,-62"/>
<polygon fill="#666666" stroke="#666666" points="0,-46 0,-46 146.25,-46 146.25,-46 0,-46"/>
<polygon fill="none" stroke="#666666" points="0,0 0,-80 146.25,-80 146.25,0 0,0"/>
</a>
</g>
</g>
</g>
</svg>
