<?xml version="1.0" encoding="UTF-8" standalone="no"?>
<!DOCTYPE svg PUBLIC "-//W3C//DTD SVG 1.1//EN"
 "http://www.w3.org/Graphics/SVG/1.1/DTD/svg11.dtd">
<!-- Generated by graphviz version 15.0.0 (20260523.1842)
 -->
<!-- Title: InternationRoom Pages: 1 -->
<svg width="140pt" height="296pt"
 viewBox="0.00 0.00 140.00 296.00" xmlns="http://www.w3.org/2000/svg" xmlns:xlink="http://www.w3.org/1999/xlink">
<g id="graph0" class="graph" transform="scale(1 1) rotate(0) translate(4 292)">
<title>InternationRoom</title>
<!-- Node1 -->
<g id="Node000001" class="node">
<title>Node1</title>
<g id="a_Node000001"><a xlink:title="Represents an inpatient room used for patient hospitalization.">
<polygon fill="#999999" stroke="none" points="132,-184 0,-184 0,0 132,0 132,-184"/>
<text xml:space="preserve" text-anchor="start" x="30" y="-170.25" font-family="Helvetica,sans-Serif" font-size="10.00">InternationRoom</text>
<text xml:space="preserve" text-anchor="start" x="64.5" y="-154.25" font-family="Helvetica,sans-Serif" font-size="10.00"> </text>
<text xml:space="preserve" text-anchor="start" x="4" y="-138.25" font-family="Helvetica,sans-Serif" font-size="10.00">+</text>
<text xml:space="preserve" text-anchor="start" x="14" y="-138.25" font-family="Helvetica,sans-Serif" font-size="10.00">InternationRoom()</text>
<text xml:space="preserve" text-anchor="start" x="4" y="-122.25" font-family="Helvetica,sans-Serif" font-size="10.00">+</text>
<text xml:space="preserve" text-anchor="start" x="14" y="-122.25" font-family="Helvetica,sans-Serif" font-size="10.00">InternationRoom(String</text>
<text xml:space="preserve" text-anchor="start" x="14" y="-110.25" font-family="Helvetica,sans-Serif" font-size="10.00"> number, int nBeds)</text>
<text xml:space="preserve" text-anchor="start" x="4" y="-94.25" font-family="Helvetica,sans-Serif" font-size="10.00">+</text>
<text xml:space="preserve" text-anchor="start" x="14" y="-94.25" font-family="Helvetica,sans-Serif" font-size="10.00">int getNFreeBeds()</text>
<text xml:space="preserve" text-anchor="start" x="4" y="-78.25" font-family="Helvetica,sans-Serif" font-size="10.00">+</text>
<text xml:space="preserve" text-anchor="start" x="14" y="-78.25" font-family="Helvetica,sans-Serif" font-size="10.00">BedStatus getBedStatus()</text>
<text xml:space="preserve" text-anchor="start" x="4" y="-62.25" font-family="Helvetica,sans-Serif" font-size="10.00">+</text>
<text xml:space="preserve" text-anchor="start" x="14" y="-62.25" font-family="Helvetica,sans-Serif" font-size="10.00">void addPatient(Patient p)</text>
<text xml:space="preserve" text-anchor="start" x="4" y="-46.25" font-family="Helvetica,sans-Serif" font-size="10.00">+</text>
<text xml:space="preserve" text-anchor="start" x="14" y="-46.25" font-family="Helvetica,sans-Serif" font-size="10.00">boolean hasPatient</text>
<text xml:space="preserve" text-anchor="start" x="14" y="-34.25" font-family="Helvetica,sans-Serif" font-size="10.00">(Patient p)</text>
<text xml:space="preserve" text-anchor="start" x="4" y="-18.25" font-family="Helvetica,sans-Serif" font-size="10.00">+</text>
<text xml:space="preserve" text-anchor="start" x="14" y="-18.25" font-family="Helvetica,sans-Serif" font-size="10.00">void removePatient</text>
<text xml:space="preserve" text-anchor="start" x="14" y="-6.25" font-family="Helvetica,sans-Serif" font-size="10.00">(Patient p)</text>
<polygon fill="#666666" stroke="#666666" points="0,-166 0,-166 132,-166 132,-166 0,-166"/>
<polygon fill="#666666" stroke="#666666" points="0,-150 0,-150 132,-150 132,-150 0,-150"/>
<polygon fill="none" stroke="#666666" points="0,0 0,-184 132,-184 132,0 0,0"/>
</a>
</g>
</g>
<!-- Node2 -->
<g id="Node000002" class="node">
<title>Node2</title>
<g id="a_Node000002"><a xlink:href="classvixhealthsystem_1_1model_1_1facility_1_1_room.html" target="_top" xlink:title="Represents a generic room inside a medical facility.">
<polygon fill="white" stroke="none" points="121.5,-288 10.5,-288 10.5,-220 121.5,-220 121.5,-288"/>
<text xml:space="preserve" text-anchor="start" x="52.88" y="-274.25" font-family="Helvetica,sans-Serif" font-size="10.00">Room</text>
<text xml:space="preserve" text-anchor="start" x="64.5" y="-258.25" font-family="Helvetica,sans-Serif" font-size="10.00"> </text>
<text xml:space="preserve" text-anchor="start" x="14.5" y="-242.25" font-family="Helvetica,sans-Serif" font-size="10.00">+</text>
<text xml:space="preserve" text-anchor="start" x="24.5" y="-242.25" font-family="Helvetica,sans-Serif" font-size="10.00">Room()</text>
<text xml:space="preserve" text-anchor="start" x="14.5" y="-226.25" font-family="Helvetica,sans-Serif" font-size="10.00">+</text>
<text xml:space="preserve" text-anchor="start" x="24.5" y="-226.25" font-family="Helvetica,sans-Serif" font-size="10.00">Room(String number)</text>
<polygon fill="#666666" stroke="#666666" points="10.5,-270 10.5,-270 121.5,-270 121.5,-270 10.5,-270"/>
<polygon fill="#666666" stroke="#666666" points="10.5,-254 10.5,-254 121.5,-254 121.5,-254 10.5,-254"/>
<polygon fill="none" stroke="#666666" points="10.5,-220 10.5,-288 121.5,-288 121.5,-220 10.5,-220"/>
</a>
</g>
</g>
<!-- Node2&#45;&gt;Node1 -->
<g id="edge1_Node000001_Node000002" class="edge">
<title>Node2&#45;&gt;Node1</title>
<g id="a_edge1_Node000001_Node000002"><a xlink:title=" ">
<path fill="none" stroke="#63b8ff" d="M66,-208.81C66,-200.96 66,-192.52 66,-183.91"/>
<polygon fill="none" stroke="#63b8ff" points="62.5,-208.72 66,-218.72 69.5,-208.72 62.5,-208.72"/>
</a>
</g>
</g>
</g>
</svg>
