<?xml version="1.0" encoding="UTF-8" standalone="no"?>
<!DOCTYPE svg PUBLIC "-//W3C//DTD SVG 1.1//EN"
 "http://www.w3.org/Graphics/SVG/1.1/DTD/svg11.dtd">
<!-- Generated by graphviz version 15.0.0 (20260523.1842)
 -->
<!-- Title: JsonShiftRepository Pages: 1 -->
<svg width="116pt" height="88pt"
 viewBox="0.00 0.00 116.00 88.00" xmlns="http://www.w3.org/2000/svg" xmlns:xlink="http://www.w3.org/1999/xlink">
<g id="graph0" class="graph" transform="scale(1 1) rotate(0) translate(4 84)">
<title>JsonShiftRepository</title>
<!-- Node1 -->
<g id="Node000001" class="node">
<title>Node1</title>
<g id="a_Node000001"><a xlink:title="JSON&#45;file&#45;backed repository for Shift entities.">
<polygon fill="#999999" stroke="none" points="108,-80 0,-80 0,0 108,0 108,-80"/>
<text xml:space="preserve" text-anchor="start" x="9.75" y="-66.25" font-family="Helvetica,sans-Serif" font-size="10.00">JsonShiftRepository</text>
<text xml:space="preserve" text-anchor="start" x="52.5" y="-50.25" font-family="Helvetica,sans-Serif" font-size="10.00"> </text>
<text xml:space="preserve" text-anchor="start" x="4" y="-34.25" font-family="Helvetica,sans-Serif" font-size="10.00">+</text>
<text xml:space="preserve" text-anchor="start" x="14" y="-34.25" font-family="Helvetica,sans-Serif" font-size="10.00">List&lt; Shift &gt; findAll()</text>
<text xml:space="preserve" text-anchor="start" x="4" y="-18.25" font-family="Helvetica,sans-Serif" font-size="10.00">+</text>
<text xml:space="preserve" text-anchor="start" x="14" y="-18.25" font-family="Helvetica,sans-Serif" font-size="10.00">void saveAll(List&lt;</text>
<text xml:space="preserve" text-anchor="start" x="14" y="-6.25" font-family="Helvetica,sans-Serif" font-size="10.00"> Shift &gt; shifts)</text>
<polygon fill="#666666" stroke="#666666" points="0,-62 0,-62 108,-62 108,-62 0,-62"/>
<polygon fill="#666666" stroke="#666666" points="0,-46 0,-46 108,-46 108,-46 0,-46"/>
<polygon fill="none" stroke="#666666" points="0,0 0,-80 108,-80 108,0 0,0"/>
</a>
</g>
</g>
</g>
</svg>
