<?xml version="1.0" encoding="UTF-8" standalone="no"?>
<!DOCTYPE svg PUBLIC "-//W3C//DTD SVG 1.1//EN"
 "http://www.w3.org/Graphics/SVG/1.1/DTD/svg11.dtd">
<!-- Generated by graphviz version 15.0.0 (20260523.1842)
 -->
<!-- Title: Office Pages: 1 -->
<svg width="121pt" height="220pt"
 viewBox="0.00 0.00 121.00 220.00" xmlns="http://www.w3.org/2000/svg" xmlns:xlink="http://www.w3.org/1999/xlink">
<g id="graph0" class="graph" transform="scale(1 1) rotate(0) translate(4 216)">
<title>Office</title>
<!-- Node1 -->
<g id="Node000001" class="node">
<title>Node1</title>
<g id="a_Node000001"><a xlink:title="Represents an office assigned to an employee.">
<polygon fill="#999999" stroke="none" points="112.5,-108 0,-108 0,0 112.5,0 112.5,-108"/>
<text xml:space="preserve" text-anchor="start" x="43.5" y="-94.25" font-family="Helvetica,sans-Serif" font-size="10.00">Office</text>
<text xml:space="preserve" text-anchor="start" x="54.75" y="-78.25" font-family="Helvetica,sans-Serif" font-size="10.00"> </text>
<text xml:space="preserve" text-anchor="start" x="4" y="-62.25" font-family="Helvetica,sans-Serif" font-size="10.00">+</text>
<text xml:space="preserve" text-anchor="start" x="14" y="-62.25" font-family="Helvetica,sans-Serif" font-size="10.00">Office()</text>
<text xml:space="preserve" text-anchor="start" x="4" y="-46.25" font-family="Helvetica,sans-Serif" font-size="10.00">+</text>
<text xml:space="preserve" text-anchor="start" x="14" y="-46.25" font-family="Helvetica,sans-Serif" font-size="10.00">Office(String number,</text>
<text xml:space="preserve" text-anchor="start" x="14" y="-34.25" font-family="Helvetica,sans-Serif" font-size="10.00"> Employee employee)</text>
<text xml:space="preserve" text-anchor="start" x="4" y="-18.25" font-family="Helvetica,sans-Serif" font-size="10.00">+</text>
<text xml:space="preserve" text-anchor="start" x="14" y="-18.25" font-family="Helvetica,sans-Serif" font-size="10.00">void assignEmployee</text>
<text xml:space="preserve" text-anchor="start" x="14" y="-6.25" font-family="Helvetica,sans-Serif" font-size="10.00">(Employee e)</text>
<polygon fill="#666666" stroke="#666666" points="0,-90 0,-90 112.5,-90 112.5,-90 0,-90"/>
<polygon fill="#666666" stroke="#666666" points="0,-74 0,-74 112.5,-74 112.5,-74 0,-74"/>
<polygon fill="none" stroke="#666666" points="0,0 0,-108 112.5,-108 112.5,0 0,0"/>
</a>
</g>
</g>
<!-- Node2 -->
<g id="Node000002" class="node">
<title>Node2</title>
<g id="a_Node000002"><a xlink:href="classvixhealthsystem_1_1model_1_1facility_1_1_room.html" target="_top" xlink:title="Represents a generic room inside a medical facility.">
<polygon fill="white" stroke="none" points="111.75,-212 0.75,-212 0.75,-144 111.75,-144 111.75,-212"/>
<text xml:space="preserve" text-anchor="start" x="43.12" y="-198.25" font-family="Helvetica,sans-Serif" font-size="10.00">Room</text>
<text xml:space="preserve" text-anchor="start" x="54.75" y="-182.25" font-family="Helvetica,sans-Serif" font-size="10.00"> </text>
<text xml:space="preserve" text-anchor="start" x="4.75" y="-166.25" font-family="Helvetica,sans-Serif" font-size="10.00">+</text>
<text xml:space="preserve" text-anchor="start" x="14.75" y="-166.25" font-family="Helvetica,sans-Serif" font-size="10.00">Room()</text>
<text xml:space="preserve" text-anchor="start" x="4.75" y="-150.25" font-family="Helvetica,sans-Serif" font-size="10.00">+</text>
<text xml:space="preserve" text-anchor="start" x="14.75" y="-150.25" font-family="Helvetica,sans-Serif" font-size="10.00">Room(String number)</text>
<polygon fill="#666666" stroke="#666666" points="0.75,-194 0.75,-194 111.75,-194 111.75,-194 0.75,-194"/>
<polygon fill="#666666" stroke="#666666" points="0.75,-178 0.75,-178 111.75,-178 111.75,-178 0.75,-178"/>
<polygon fill="none" stroke="#666666" points="0.75,-144 0.75,-212 111.75,-212 111.75,-144 0.75,-144"/>
</a>
</g>
</g>
<!-- Node2&#45;&gt;Node1 -->
<g id="edge1_Node000001_Node000002" class="edge">
<title>Node2&#45;&gt;Node1</title>
<g id="a_edge1_Node000001_Node000002"><a xlink:title=" ">
<path fill="none" stroke="#63b8ff" d="M56.25,-133.01C56.25,-124.76 56.25,-116.06 56.25,-107.58"/>
<polygon fill="none" stroke="#63b8ff" points="52.75,-132.79 56.25,-142.79 59.75,-132.79 52.75,-132.79"/>
</a>
</g>
</g>
</g>
</svg>
