<?xml version="1.0" encoding="UTF-8" standalone="no"?>
<!DOCTYPE svg PUBLIC "-//W3C//DTD SVG 1.1//EN"
 "http://www.w3.org/Graphics/SVG/1.1/DTD/svg11.dtd">
<!-- Generated by graphviz version 15.0.0 (20260523.1842)
 -->
<!-- Title: Room Pages: 1 -->
<svg width="438pt" height="296pt"
 viewBox="0.00 0.00 438.00 296.00" xmlns="http://www.w3.org/2000/svg" xmlns:xlink="http://www.w3.org/1999/xlink">
<g id="graph0" class="graph" transform="scale(1 1) rotate(0) translate(4 292)">
<title>Room</title>
<!-- Node1 -->
<g id="Node000001" class="node">
<title>Node1</title>
<g id="a_Node000001"><a xlink:title="Represents a generic room inside a medical facility.">
<polygon fill="#999999" stroke="none" points="261.5,-288 150.5,-288 150.5,-220 261.5,-220 261.5,-288"/>
<text xml:space="preserve" text-anchor="start" x="192.88" y="-274.25" font-family="Helvetica,sans-Serif" font-size="10.00">Room</text>
<text xml:space="preserve" text-anchor="start" x="204.5" y="-258.25" font-family="Helvetica,sans-Serif" font-size="10.00"> </text>
<text xml:space="preserve" text-anchor="start" x="154.5" y="-242.25" font-family="Helvetica,sans-Serif" font-size="10.00">+</text>
<text xml:space="preserve" text-anchor="start" x="164.5" y="-242.25" font-family="Helvetica,sans-Serif" font-size="10.00">Room()</text>
<text xml:space="preserve" text-anchor="start" x="154.5" y="-226.25" font-family="Helvetica,sans-Serif" font-size="10.00">+</text>
<text xml:space="preserve" text-anchor="start" x="164.5" y="-226.25" font-family="Helvetica,sans-Serif" font-size="10.00">Room(String number)</text>
<polygon fill="#666666" stroke="#666666" points="150.5,-270 150.5,-270 261.5,-270 261.5,-270 150.5,-270"/>
<polygon fill="#666666" stroke="#666666" points="150.5,-254 150.5,-254 261.5,-254 261.5,-254 150.5,-254"/>
<polygon fill="none" stroke="#666666" points="150.5,-220 150.5,-288 261.5,-288 261.5,-220 150.5,-220"/>
</a>
</g>
</g>
<!-- Node2 -->
<g id="Node000002" class="node">
<title>Node2</title>
<g id="a_Node000002"><a xlink:href="classvixhealthsystem_1_1model_1_1facility_1_1_internation_room.html" target="_top" xlink:title="Represents an inpatient room used for patient hospitalization.">
<polygon fill="white" stroke="none" points="132,-184 0,-184 0,0 132,0 132,-184"/>
<text xml:space="preserve" text-anchor="start" x="30" y="-170.25" font-family="Helvetica,sans-Serif" font-size="10.00">InternationRoom</text>
<text xml:space="preserve" text-anchor="start" x="64.5" y="-154.25" font-family="Helvetica,sans-Serif" font-size="10.00"> </text>
<text xml:space="preserve" text-anchor="start" x="4" y="-138.25" font-family="Helvetica,sans-Serif" font-size="10.00">+</text>
<text xml:space="preserve" text-anchor="start" x="14" y="-138.25" font-family="Helvetica,sans-Serif" font-size="10.00">InternationRoom()</text>
<text xml:space="preserve" text-anchor="start" x="4" y="-122.25" font-family="Helvetica,sans-Serif" font-size="10.00">+</text>
<text xml:space="preserve" text-anchor="start" x="14" y="-122.25" font-family="Helvetica,sans-Serif" font-size="10.00">InternationRoom(String</text>
<text xml:space="preserve" text-anchor="start" x="14" y="-110.25" font-family="Helvetica,sans-Serif" font-size="10.00"> number, int nBeds)</text>
<text xml:space="preserve" text-anchor="start" x="4" y="-94.25" font-family="Helvetica,sans-Serif" font-size="10.00">+</text>
<text xml:space="preserve" text-anchor="start" x="14" y="-94.25" font-family="Helvetica,sans-Serif" font-size="10.00">int getNFreeBeds()</text>
<text xml:space="preserve" text-anchor="start" x="4" y="-78.25" font-family="Helvetica,sans-Serif" font-size="10.00">+</text>
<text xml:space="preserve" text-anchor="start" x="14" y="-78.25" font-family="Helvetica,sans-Serif" font-size="10.00">BedStatus getBedStatus()</text>
<text xml:space="preserve" text-anchor="start" x="4" y="-62.25" font-family="Helvetica,sans-Serif" font-size="10.00">+</text>
<text xml:space="preserve" text-anchor="start" x="14" y="-62.25" font-family="Helvetica,sans-Serif" font-size="10.00">void addPatient(Patient p)</text>
<text xml:space="preserve" text-anchor="start" x="4" y="-46.25" font-family="Helvetica,sans-Serif" font-size="10.00">+</text>
<text xml:space="preserve" text-anchor="start" x="14" y="-46.25" font-family="Helvetica,sans-Serif" font-size="10.00">boolean hasPatient</text>
<text xml:space="preserve" text-anchor="start" x="14" y="-34.25" font-family="Helvetica,sans-Serif" font-size="10.00">(Patient p)</text>
<text xml:space="preserve" text-anchor="start" x="4" y="-18.25" font-family="Helvetica,sans-Serif" font-size="10.00">+</text>
<text xml:space="preserve" text-anchor="start" x="14" y="-18.25" font-family="Helvetica,sans-Serif" font-size="10.00">void removePatient</text>
<text xml:space="preserve" text-anchor="start" x="14" y="-6.25" font-family="Helvetica,sans-Serif" font-size="10.00">(Patient p)</text>
<polygon fill="#666666" stroke="#666666" points="0,-166 0,-166 132,-166 132,-166 0,-166"/>
<polygon fill="#666666" stroke="#666666" points="0,-150 0,-150 132,-150 132,-150 0,-150"/>
<polygon fill="none" stroke="#666666" points="0,0 0,-184 132,-184 132,0 0,0"/>
</a>
</g>
</g>
<!-- Node1&#45;&gt;Node2 -->
<g id="edge1_Node000001_Node000002" class="edge">
<title>Node1&#45;&gt;Node2</title>
<g id="a_edge1_Node000001_Node000002"><a xlink:title=" ">
<path fill="none" stroke="#63b8ff" d="M166.46,-211.91C157.94,-202.83 149.08,-193.17 141,-184 138.02,-180.62 135,-177.15 131.97,-173.63"/>
<polygon fill="none" stroke="#63b8ff" points="163.7,-214.09 173.1,-218.97 168.79,-209.29 163.7,-214.09"/>
</a>
</g>
</g>
<!-- Node3 -->
<g id="Node000003" class="node">
<title>Node3</title>
<g id="a_Node000003"><a xlink:href="classvixhealthsystem_1_1model_1_1facility_1_1_office.html" target="_top" xlink:title="Represents an office assigned to an employee.">
<polygon fill="white" stroke="none" points="262.25,-146 149.75,-146 149.75,-38 262.25,-38 262.25,-146"/>
<text xml:space="preserve" text-anchor="start" x="193.25" y="-132.25" font-family="Helvetica,sans-Serif" font-size="10.00">Office</text>
<text xml:space="preserve" text-anchor="start" x="204.5" y="-116.25" font-family="Helvetica,sans-Serif" font-size="10.00"> </text>
<text xml:space="preserve" text-anchor="start" x="153.75" y="-100.25" font-family="Helvetica,sans-Serif" font-size="10.00">+</text>
<text xml:space="preserve" text-anchor="start" x="163.75" y="-100.25" font-family="Helvetica,sans-Serif" font-size="10.00">Office()</text>
<text xml:space="preserve" text-anchor="start" x="153.75" y="-84.25" font-family="Helvetica,sans-Serif" font-size="10.00">+</text>
<text xml:space="preserve" text-anchor="start" x="163.75" y="-84.25" font-family="Helvetica,sans-Serif" font-size="10.00">Office(String number,</text>
<text xml:space="preserve" text-anchor="start" x="163.75" y="-72.25" font-family="Helvetica,sans-Serif" font-size="10.00"> Employee employee)</text>
<text xml:space="preserve" text-anchor="start" x="153.75" y="-56.25" font-family="Helvetica,sans-Serif" font-size="10.00">+</text>
<text xml:space="preserve" text-anchor="start" x="163.75" y="-56.25" font-family="Helvetica,sans-Serif" font-size="10.00">void assignEmployee</text>
<text xml:space="preserve" text-anchor="start" x="163.75" y="-44.25" font-family="Helvetica,sans-Serif" font-size="10.00">(Employee e)</text>
<polygon fill="#666666" stroke="#666666" points="149.75,-128 149.75,-128 262.25,-128 262.25,-128 149.75,-128"/>
<polygon fill="#666666" stroke="#666666" points="149.75,-112 149.75,-112 262.25,-112 262.25,-112 149.75,-112"/>
<polygon fill="none" stroke="#666666" points="149.75,-38 149.75,-146 262.25,-146 262.25,-38 149.75,-38"/>
</a>
</g>
</g>
<!-- Node1&#45;&gt;Node3 -->
<g id="edge2_Node000001_Node000003" class="edge">
<title>Node1&#45;&gt;Node3</title>
<g id="a_edge2_Node000001_Node000003"><a xlink:title=" ">
<path fill="none" stroke="#63b8ff" d="M206,-208.91C206,-189.41 206,-166.3 206,-145.88"/>
<polygon fill="none" stroke="#63b8ff" points="202.5,-208.72 206,-218.72 209.5,-208.72 202.5,-208.72"/>
</a>
</g>
</g>
<!-- Node4 -->
<g id="Node000004" class="node">
<title>Node4</title>
<g id="a_Node000004"><a xlink:href="classvixhealthsystem_1_1model_1_1facility_1_1_specialized_room.html" target="_top" xlink:title="Represents a specialized room containing medical equipment.">
<polygon fill="white" stroke="none" points="430,-146 280,-146 280,-38 430,-38 430,-146"/>
<text xml:space="preserve" text-anchor="start" x="316.75" y="-132.25" font-family="Helvetica,sans-Serif" font-size="10.00">SpecializedRoom</text>
<text xml:space="preserve" text-anchor="start" x="353.5" y="-116.25" font-family="Helvetica,sans-Serif" font-size="10.00"> </text>
<text xml:space="preserve" text-anchor="start" x="284" y="-100.25" font-family="Helvetica,sans-Serif" font-size="10.00">+</text>
<text xml:space="preserve" text-anchor="start" x="294" y="-100.25" font-family="Helvetica,sans-Serif" font-size="10.00">SpecializedRoom()</text>
<text xml:space="preserve" text-anchor="start" x="284" y="-84.25" font-family="Helvetica,sans-Serif" font-size="10.00">+</text>
<text xml:space="preserve" text-anchor="start" x="294" y="-84.25" font-family="Helvetica,sans-Serif" font-size="10.00">SpecializedRoom(String</text>
<text xml:space="preserve" text-anchor="start" x="294" y="-72.25" font-family="Helvetica,sans-Serif" font-size="10.00"> number, String specialization)</text>
<text xml:space="preserve" text-anchor="start" x="284.38" y="-56.25" font-family="Helvetica,sans-Serif" font-size="10.00">#</text>
<text xml:space="preserve" text-anchor="start" x="294" y="-56.25" font-family="Helvetica,sans-Serif" font-size="10.00">List&lt; Machinery &gt; getFaulty</text>
<text xml:space="preserve" text-anchor="start" x="294" y="-44.25" font-family="Helvetica,sans-Serif" font-size="10.00">Machines()</text>
<polygon fill="#666666" stroke="#666666" points="280,-128 280,-128 430,-128 430,-128 280,-128"/>
<polygon fill="#666666" stroke="#666666" points="280,-112 280,-112 430,-112 430,-112 280,-112"/>
<polygon fill="none" stroke="#666666" points="280,-38 280,-146 430,-146 430,-38 280,-38"/>
</a>
</g>
</g>
<!-- Node1&#45;&gt;Node4 -->
<g id="edge3_Node000001_Node000004" class="edge">
<title>Node1&#45;&gt;Node4</title>
<g id="a_edge3_Node000001_Node000004"><a xlink:title=" ">
<path fill="none" stroke="#63b8ff" d="M244.9,-211.85C253.51,-202.7 262.58,-193.03 271,-184 282.58,-171.58 295.02,-158.16 306.67,-145.54"/>
<polygon fill="none" stroke="#63b8ff" points="242.49,-209.29 238.18,-218.97 247.59,-214.09 242.49,-209.29"/>
</a>
</g>
</g>
</g>
</svg>
