<?xml version="1.0" encoding="UTF-8" standalone="no"?>
<!DOCTYPE svg PUBLIC "-//W3C//DTD SVG 1.1//EN"
 "http://www.w3.org/Graphics/SVG/1.1/DTD/svg11.dtd">
<!-- Generated by graphviz version 15.0.0 (20260523.1842)
 -->
<!-- Title: SlotNotAvailableException Pages: 1 -->
<svg width="142pt" height="160pt"
 viewBox="0.00 0.00 142.00 160.00" xmlns="http://www.w3.org/2000/svg" xmlns:xlink="http://www.w3.org/1999/xlink">
<g id="graph0" class="graph" transform="scale(1 1) rotate(0) translate(4 156)">
<title>SlotNotAvailableException</title>
<!-- Node1 -->
<g id="Node000001" class="node">
<title>Node1</title>
<g id="a_Node000001"><a xlink:title="Thrown when a requested appointment time slot is already occupied.">
<polygon fill="#999999" stroke="none" points="134.25,-64 0,-64 0,0 134.25,0 134.25,-64"/>
<text xml:space="preserve" text-anchor="start" x="9" y="-50.25" font-family="Helvetica,sans-Serif" font-size="10.00">SlotNotAvailableException</text>
<text xml:space="preserve" text-anchor="start" x="65.62" y="-34.25" font-family="Helvetica,sans-Serif" font-size="10.00"> </text>
<text xml:space="preserve" text-anchor="start" x="4" y="-18.25" font-family="Helvetica,sans-Serif" font-size="10.00">+</text>
<text xml:space="preserve" text-anchor="start" x="14" y="-18.25" font-family="Helvetica,sans-Serif" font-size="10.00">SlotNotAvailableException</text>
<text xml:space="preserve" text-anchor="start" x="14" y="-6.25" font-family="Helvetica,sans-Serif" font-size="10.00">(String message)</text>
<polygon fill="#666666" stroke="#666666" points="0,-46 0,-46 134.25,-46 134.25,-46 0,-46"/>
<polygon fill="#666666" stroke="#666666" points="0,-30 0,-30 134.25,-30 134.25,-30 0,-30"/>
<polygon fill="none" stroke="#666666" points="0,0 0,-64 134.25,-64 134.25,0 0,0"/>
</a>
</g>
</g>
<!-- Node2 -->
<g id="Node000002" class="node">
<title>Node2</title>
<g id="a_Node000002"><a xlink:title=" ">
<polygon fill="white" stroke="none" points="111.25,-152 23,-152 23,-100 111.25,-100 111.25,-152"/>
<text xml:space="preserve" text-anchor="start" x="27" y="-138.25" font-family="Helvetica,sans-Serif" font-size="10.00">RuntimeException</text>
<text xml:space="preserve" text-anchor="start" x="65.62" y="-122.25" font-family="Helvetica,sans-Serif" font-size="10.00"> </text>
<text xml:space="preserve" text-anchor="start" x="65.62" y="-106.25" font-family="Helvetica,sans-Serif" font-size="10.00"> </text>
<polygon fill="#bfbfbf" stroke="#bfbfbf" points="23,-134 23,-134 111.25,-134 111.25,-134 23,-134"/>
<polygon fill="#bfbfbf" stroke="#bfbfbf" points="23,-118 23,-118 111.25,-118 111.25,-118 23,-118"/>
<polygon fill="none" stroke="#bfbfbf" points="23,-100 23,-152 111.25,-152 111.25,-100 23,-100"/>
</a>
</g>
</g>
<!-- Node2&#45;&gt;Node1 -->
<g id="edge1_Node000001_Node000002" class="edge">
<title>Node2&#45;&gt;Node1</title>
<g id="a_edge1_Node000001_Node000002"><a xlink:title=" ">
<path fill="none" stroke="#63b8ff" d="M67.12,-89.06C67.12,-80.78 67.12,-72.04 67.12,-63.98"/>
<polygon fill="none" stroke="#63b8ff" points="63.63,-88.83 67.13,-98.83 70.63,-88.83 63.63,-88.83"/>
</a>
</g>
</g>
</g>
</svg>
