<?xml version="1.0" encoding="UTF-8" standalone="no"?>
<!DOCTYPE svg PUBLIC "-//W3C//DTD SVG 1.1//EN"
 "http://www.w3.org/Graphics/SVG/1.1/DTD/svg11.dtd">
<!-- Generated by graphviz version 15.0.0 (20260523.1842)
 -->
<!-- Title: Secretary Pages: 1 -->
<svg width="196pt" height="604pt"
 viewBox="0.00 0.00 196.00 604.00" xmlns="http://www.w3.org/2000/svg" xmlns:xlink="http://www.w3.org/1999/xlink">
<g id="graph0" class="graph" transform="scale(1 1) rotate(0) translate(4 600)">
<title>Secretary</title>
<!-- Node1 -->
<g id="Node000001" class="node">
<title>Node1</title>
<g id="a_Node000001"><a xlink:title="Handles administrative tasks such as appointment scheduling, patient admissions and discharges.">
<polygon fill="#999999" stroke="none" points="187.5,-284 0,-284 0,0 187.5,0 187.5,-284"/>
<text xml:space="preserve" text-anchor="start" x="72.75" y="-270.25" font-family="Helvetica,sans-Serif" font-size="10.00">Secretary</text>
<text xml:space="preserve" text-anchor="start" x="92.25" y="-254.25" font-family="Helvetica,sans-Serif" font-size="10.00"> </text>
<text xml:space="preserve" text-anchor="start" x="4" y="-238.25" font-family="Helvetica,sans-Serif" font-size="10.00">+</text>
<text xml:space="preserve" text-anchor="start" x="14" y="-238.25" font-family="Helvetica,sans-Serif" font-size="10.00">Secretary()</text>
<text xml:space="preserve" text-anchor="start" x="4" y="-222.25" font-family="Helvetica,sans-Serif" font-size="10.00">+</text>
<text xml:space="preserve" text-anchor="start" x="14" y="-222.25" font-family="Helvetica,sans-Serif" font-size="10.00">Role getSystemRole()</text>
<text xml:space="preserve" text-anchor="start" x="4" y="-206.25" font-family="Helvetica,sans-Serif" font-size="10.00">+</text>
<text xml:space="preserve" text-anchor="start" x="14" y="-206.25" font-family="Helvetica,sans-Serif" font-size="10.00">EmployeeType getEmployee</text>
<text xml:space="preserve" text-anchor="start" x="14" y="-194.25" font-family="Helvetica,sans-Serif" font-size="10.00">Type()</text>
<text xml:space="preserve" text-anchor="start" x="4" y="-178.25" font-family="Helvetica,sans-Serif" font-size="10.00">+</text>
<text xml:space="preserve" text-anchor="start" x="14" y="-178.25" font-family="Helvetica,sans-Serif" font-size="10.00">Appointment makeAppointment</text>
<text xml:space="preserve" text-anchor="start" x="14" y="-166.25" font-family="Helvetica,sans-Serif" font-size="10.00">ForPatient(Patient p, MedicalSpecialist</text>
<text xml:space="preserve" text-anchor="start" x="14" y="-154.25" font-family="Helvetica,sans-Serif" font-size="10.00"> m, LocalDateTime dt)</text>
<text xml:space="preserve" text-anchor="start" x="4" y="-138.25" font-family="Helvetica,sans-Serif" font-size="10.00">+</text>
<text xml:space="preserve" text-anchor="start" x="14" y="-138.25" font-family="Helvetica,sans-Serif" font-size="10.00">void rescheduleAppointment</text>
<text xml:space="preserve" text-anchor="start" x="14" y="-126.25" font-family="Helvetica,sans-Serif" font-size="10.00">ForPatient(Patient p, LocalDate</text>
<text xml:space="preserve" text-anchor="start" x="14" y="-114.25" font-family="Helvetica,sans-Serif" font-size="10.00">Time dtOld, LocalDateTime dtNew)</text>
<text xml:space="preserve" text-anchor="start" x="4" y="-98.25" font-family="Helvetica,sans-Serif" font-size="10.00">+</text>
<text xml:space="preserve" text-anchor="start" x="14" y="-98.25" font-family="Helvetica,sans-Serif" font-size="10.00">void cancelAppointmentFor</text>
<text xml:space="preserve" text-anchor="start" x="14" y="-86.25" font-family="Helvetica,sans-Serif" font-size="10.00">Patient(Patient p, LocalDateTime dt)</text>
<text xml:space="preserve" text-anchor="start" x="4" y="-70.25" font-family="Helvetica,sans-Serif" font-size="10.00">+</text>
<text xml:space="preserve" text-anchor="start" x="14" y="-70.25" font-family="Helvetica,sans-Serif" font-size="10.00">void setPatientInRoom</text>
<text xml:space="preserve" text-anchor="start" x="14" y="-58.25" font-family="Helvetica,sans-Serif" font-size="10.00">(InternationRoom ir,</text>
<text xml:space="preserve" text-anchor="start" x="14" y="-46.25" font-family="Helvetica,sans-Serif" font-size="10.00"> Patient p)</text>
<text xml:space="preserve" text-anchor="start" x="4" y="-30.25" font-family="Helvetica,sans-Serif" font-size="10.00">+</text>
<text xml:space="preserve" text-anchor="start" x="14" y="-30.25" font-family="Helvetica,sans-Serif" font-size="10.00">void dismissPatient</text>
<text xml:space="preserve" text-anchor="start" x="14" y="-18.25" font-family="Helvetica,sans-Serif" font-size="10.00">(InternationRoom ir,</text>
<text xml:space="preserve" text-anchor="start" x="14" y="-6.25" font-family="Helvetica,sans-Serif" font-size="10.00"> Patient p)</text>
<polygon fill="#666666" stroke="#666666" points="0,-266 0,-266 187.5,-266 187.5,-266 0,-266"/>
<polygon fill="#666666" stroke="#666666" points="0,-250 0,-250 187.5,-250 187.5,-250 0,-250"/>
<polygon fill="none" stroke="#666666" points="0,0 0,-284 187.5,-284 187.5,0 0,0"/>
</a>
</g>
</g>
<!-- Node2 -->
<g id="Node000002" class="node">
<title>Node2</title>
<g id="a_Node000002"><a xlink:href="classvixhealthsystem_1_1model_1_1person_1_1employee_1_1_employee.html" target="_top" xlink:title="Represents a generic employee in the system.">
<polygon fill="white" stroke="none" points="170.25,-428 17.25,-428 17.25,-320 170.25,-320 170.25,-428"/>
<text xml:space="preserve" text-anchor="start" x="72" y="-414.25" font-family="Helvetica,sans-Serif" font-size="10.00">Employee</text>
<text xml:space="preserve" text-anchor="start" x="92.25" y="-398.25" font-family="Helvetica,sans-Serif" font-size="10.00"> </text>
<text xml:space="preserve" text-anchor="start" x="21.25" y="-382.25" font-family="Helvetica,sans-Serif" font-size="10.00">+</text>
<text xml:space="preserve" text-anchor="start" x="31.25" y="-382.25" font-family="Helvetica,sans-Serif" font-size="10.00">abstract Role getSystemRole()</text>
<text xml:space="preserve" text-anchor="start" x="21.25" y="-366.25" font-family="Helvetica,sans-Serif" font-size="10.00">+</text>
<text xml:space="preserve" text-anchor="start" x="31.25" y="-366.25" font-family="Helvetica,sans-Serif" font-size="10.00">abstract EmployeeType</text>
<text xml:space="preserve" text-anchor="start" x="31.25" y="-354.25" font-family="Helvetica,sans-Serif" font-size="10.00"> getEmployeeType()</text>
<text xml:space="preserve" text-anchor="start" x="21.25" y="-338.25" font-family="Helvetica,sans-Serif" font-size="10.00">+</text>
<text xml:space="preserve" text-anchor="start" x="31.25" y="-338.25" font-family="Helvetica,sans-Serif" font-size="10.00">void takeResource(Resource</text>
<text xml:space="preserve" text-anchor="start" x="31.25" y="-326.25" font-family="Helvetica,sans-Serif" font-size="10.00"> r, int q)</text>
<polygon fill="#666666" stroke="#666666" points="17.25,-410 17.25,-410 170.25,-410 170.25,-410 17.25,-410"/>
<polygon fill="#666666" stroke="#666666" points="17.25,-394 17.25,-394 170.25,-394 170.25,-394 17.25,-394"/>
<polygon fill="none" stroke="#666666" points="17.25,-320 17.25,-428 170.25,-428 170.25,-320 17.25,-320"/>
</a>
</g>
</g>
<!-- Node2&#45;&gt;Node1 -->
<g id="edge1_Node000001_Node000002" class="edge">
<title>Node2&#45;&gt;Node1</title>
<g id="a_edge1_Node000001_Node000002"><a xlink:title=" ">
<path fill="none" stroke="#63b8ff" d="M93.75,-308.79C93.75,-300.76 93.75,-292.32 93.75,-283.68"/>
<polygon fill="none" stroke="#63b8ff" points="90.25,-308.72 93.75,-318.72 97.25,-308.72 90.25,-308.72"/>
</a>
</g>
</g>
<!-- Node3 -->
<g id="Node000003" class="node">
<title>Node3</title>
<g id="a_Node000003"><a xlink:href="classvixhealthsystem_1_1model_1_1person_1_1_person.html" target="_top" xlink:title="Base class for all people in the system.">
<polygon fill="white" stroke="none" points="164.62,-596 22.88,-596 22.88,-464 164.62,-464 164.62,-596"/>
<text xml:space="preserve" text-anchor="start" x="78.38" y="-582.25" font-family="Helvetica,sans-Serif" font-size="10.00">Person</text>
<text xml:space="preserve" text-anchor="start" x="92.25" y="-566.25" font-family="Helvetica,sans-Serif" font-size="10.00"> </text>
<text xml:space="preserve" text-anchor="start" x="26.88" y="-550.25" font-family="Helvetica,sans-Serif" font-size="10.00">+</text>
<text xml:space="preserve" text-anchor="start" x="36.88" y="-550.25" font-family="Helvetica,sans-Serif" font-size="10.00">Person()</text>
<text xml:space="preserve" text-anchor="start" x="26.88" y="-534.25" font-family="Helvetica,sans-Serif" font-size="10.00">+</text>
<text xml:space="preserve" text-anchor="start" x="36.88" y="-534.25" font-family="Helvetica,sans-Serif" font-size="10.00">Person(String name,</text>
<text xml:space="preserve" text-anchor="start" x="36.88" y="-522.25" font-family="Helvetica,sans-Serif" font-size="10.00"> String surname, LocalDate</text>
<text xml:space="preserve" text-anchor="start" x="36.88" y="-510.25" font-family="Helvetica,sans-Serif" font-size="10.00"> birthDate, String birthPlace,</text>
<text xml:space="preserve" text-anchor="start" x="36.88" y="-498.25" font-family="Helvetica,sans-Serif" font-size="10.00"> char gender, String email,</text>
<text xml:space="preserve" text-anchor="start" x="36.88" y="-486.25" font-family="Helvetica,sans-Serif" font-size="10.00"> String phoneNumber)</text>
<text xml:space="preserve" text-anchor="start" x="26.88" y="-470.25" font-family="Helvetica,sans-Serif" font-size="10.00">+</text>
<text xml:space="preserve" text-anchor="start" x="36.88" y="-470.25" font-family="Helvetica,sans-Serif" font-size="10.00">int getAge()</text>
<polygon fill="#666666" stroke="#666666" points="22.88,-578 22.88,-578 164.62,-578 164.62,-578 22.88,-578"/>
<polygon fill="#666666" stroke="#666666" points="22.88,-562 22.88,-562 164.62,-562 164.62,-562 22.88,-562"/>
<polygon fill="none" stroke="#666666" points="22.88,-464 22.88,-596 164.62,-596 164.62,-464 22.88,-464"/>
</a>
</g>
</g>
<!-- Node3&#45;&gt;Node2 -->
<g id="edge2_Node000002_Node000003" class="edge">
<title>Node3&#45;&gt;Node2</title>
<g id="a_edge2_Node000002_Node000003"><a xlink:title=" ">
<path fill="none" stroke="#63b8ff" d="M93.75,-452.65C93.75,-444.19 93.75,-435.72 93.75,-427.65"/>
<polygon fill="none" stroke="#63b8ff" points="90.25,-452.62 93.75,-462.62 97.25,-452.62 90.25,-452.62"/>
</a>
</g>
</g>
</g>
</svg>
