<?xml version="1.0" encoding="UTF-8" standalone="no"?>
<!DOCTYPE svg PUBLIC "-//W3C//DTD SVG 1.1//EN"
 "http://www.w3.org/Graphics/SVG/1.1/DTD/svg11.dtd">
<!-- Generated by graphviz version 15.0.0 (20260523.1842)
 -->
<!-- Title: MedicalCondition Pages: 1 -->
<svg width="182pt" height="112pt"
 viewBox="0.00 0.00 182.00 112.00" xmlns="http://www.w3.org/2000/svg" xmlns:xlink="http://www.w3.org/1999/xlink">
<g id="graph0" class="graph" transform="scale(1 1) rotate(0) translate(4 108)">
<title>MedicalCondition</title>
<!-- Node1 -->
<g id="Node000001" class="node">
<title>Node1</title>
<g id="a_Node000001"><a xlink:title="Represents a medical condition diagnosed in a patient.">
<polygon fill="#999999" stroke="none" points="174,-104 0,-104 0,0 174,0 174,-104"/>
<text xml:space="preserve" text-anchor="start" x="49.5" y="-90.25" font-family="Helvetica,sans-Serif" font-size="10.00">MedicalCondition</text>
<text xml:space="preserve" text-anchor="start" x="85.5" y="-74.25" font-family="Helvetica,sans-Serif" font-size="10.00"> </text>
<text xml:space="preserve" text-anchor="start" x="4" y="-58.25" font-family="Helvetica,sans-Serif" font-size="10.00">+</text>
<text xml:space="preserve" text-anchor="start" x="14" y="-58.25" font-family="Helvetica,sans-Serif" font-size="10.00">MedicalCondition()</text>
<text xml:space="preserve" text-anchor="start" x="4" y="-42.25" font-family="Helvetica,sans-Serif" font-size="10.00">+</text>
<text xml:space="preserve" text-anchor="start" x="14" y="-42.25" font-family="Helvetica,sans-Serif" font-size="10.00">MedicalCondition(String</text>
<text xml:space="preserve" text-anchor="start" x="14" y="-30.25" font-family="Helvetica,sans-Serif" font-size="10.00"> name, LocalDate dateOfDiagnosis,</text>
<text xml:space="preserve" text-anchor="start" x="14" y="-18.25" font-family="Helvetica,sans-Serif" font-size="10.00"> String type, String description,</text>
<text xml:space="preserve" text-anchor="start" x="14" y="-6.25" font-family="Helvetica,sans-Serif" font-size="10.00"> String treatment)</text>
<polygon fill="#666666" stroke="#666666" points="0,-86 0,-86 174,-86 174,-86 0,-86"/>
<polygon fill="#666666" stroke="#666666" points="0,-70 0,-70 174,-70 174,-70 0,-70"/>
<polygon fill="none" stroke="#666666" points="0,0 0,-104 174,-104 174,0 0,0"/>
</a>
</g>
</g>
</g>
</svg>
