<?xml version="1.0" encoding="UTF-8" standalone="no"?>
<!DOCTYPE svg PUBLIC "-//W3C//DTD SVG 1.1//EN"
 "http://www.w3.org/Graphics/SVG/1.1/DTD/svg11.dtd">
<!-- Generated by graphviz version 15.0.0 (20260523.1842)
 -->
<!-- Title: Person Pages: 1 -->
<svg width="959pt" height="820pt"
 viewBox="0.00 0.00 959.00 820.00" xmlns="http://www.w3.org/2000/svg" xmlns:xlink="http://www.w3.org/1999/xlink">
<g id="graph0" class="graph" transform="scale(1 1) rotate(0) translate(4 816)">
<title>Person</title>
<!-- Node1 -->
<g id="Node000001" class="node">
<title>Node1</title>
<g id="a_Node000001"><a xlink:title="Base class for all people in the system.">
<polygon fill="#999999" stroke="none" points="473.12,-812 331.38,-812 331.38,-680 473.12,-680 473.12,-812"/>
<text xml:space="preserve" text-anchor="start" x="386.88" y="-798.25" font-family="Helvetica,sans-Serif" font-size="10.00">Person</text>
<text xml:space="preserve" text-anchor="start" x="400.75" y="-782.25" font-family="Helvetica,sans-Serif" font-size="10.00"> </text>
<text xml:space="preserve" text-anchor="start" x="335.38" y="-766.25" font-family="Helvetica,sans-Serif" font-size="10.00">+</text>
<text xml:space="preserve" text-anchor="start" x="345.38" y="-766.25" font-family="Helvetica,sans-Serif" font-size="10.00">Person()</text>
<text xml:space="preserve" text-anchor="start" x="335.38" y="-750.25" font-family="Helvetica,sans-Serif" font-size="10.00">+</text>
<text xml:space="preserve" text-anchor="start" x="345.38" y="-750.25" font-family="Helvetica,sans-Serif" font-size="10.00">Person(String name,</text>
<text xml:space="preserve" text-anchor="start" x="345.38" y="-738.25" font-family="Helvetica,sans-Serif" font-size="10.00"> String surname, LocalDate</text>
<text xml:space="preserve" text-anchor="start" x="345.38" y="-726.25" font-family="Helvetica,sans-Serif" font-size="10.00"> birthDate, String birthPlace,</text>
<text xml:space="preserve" text-anchor="start" x="345.38" y="-714.25" font-family="Helvetica,sans-Serif" font-size="10.00"> char gender, String email,</text>
<text xml:space="preserve" text-anchor="start" x="345.38" y="-702.25" font-family="Helvetica,sans-Serif" font-size="10.00"> String phoneNumber)</text>
<text xml:space="preserve" text-anchor="start" x="335.38" y="-686.25" font-family="Helvetica,sans-Serif" font-size="10.00">+</text>
<text xml:space="preserve" text-anchor="start" x="345.38" y="-686.25" font-family="Helvetica,sans-Serif" font-size="10.00">int getAge()</text>
<polygon fill="#666666" stroke="#666666" points="331.38,-794 331.38,-794 473.12,-794 473.12,-794 331.38,-794"/>
<polygon fill="#666666" stroke="#666666" points="331.38,-778 331.38,-778 473.12,-778 473.12,-778 331.38,-778"/>
<polygon fill="none" stroke="#666666" points="331.38,-680 331.38,-812 473.12,-812 473.12,-680 331.38,-680"/>
</a>
</g>
</g>
<!-- Node2 -->
<g id="Node000002" class="node">
<title>Node2</title>
<g id="a_Node000002"><a xlink:href="classvixhealthsystem_1_1model_1_1person_1_1_patient.html" target="_top" xlink:title="Represents a patient in the VIX Health System.">
<polygon fill="white" stroke="none" points="355,-644 191.5,-644 191.5,-320 355,-320 355,-644"/>
<text xml:space="preserve" text-anchor="start" x="257.88" y="-630.25" font-family="Helvetica,sans-Serif" font-size="10.00">Patient</text>
<text xml:space="preserve" text-anchor="start" x="271.75" y="-614.25" font-family="Helvetica,sans-Serif" font-size="10.00"> </text>
<text xml:space="preserve" text-anchor="start" x="195.5" y="-598.25" font-family="Helvetica,sans-Serif" font-size="10.00">+</text>
<text xml:space="preserve" text-anchor="start" x="205.5" y="-598.25" font-family="Helvetica,sans-Serif" font-size="10.00">Patient()</text>
<text xml:space="preserve" text-anchor="start" x="195.5" y="-582.25" font-family="Helvetica,sans-Serif" font-size="10.00">+</text>
<text xml:space="preserve" text-anchor="start" x="205.5" y="-582.25" font-family="Helvetica,sans-Serif" font-size="10.00">Patient(String fiscalCode,</text>
<text xml:space="preserve" text-anchor="start" x="205.5" y="-570.25" font-family="Helvetica,sans-Serif" font-size="10.00"> MedicalRecord medicalRecord)</text>
<text xml:space="preserve" text-anchor="start" x="195.5" y="-554.25" font-family="Helvetica,sans-Serif" font-size="10.00">+</text>
<text xml:space="preserve" text-anchor="start" x="205.5" y="-554.25" font-family="Helvetica,sans-Serif" font-size="10.00">void setFiscalCode</text>
<text xml:space="preserve" text-anchor="start" x="205.5" y="-542.25" font-family="Helvetica,sans-Serif" font-size="10.00">(String fiscalCode)</text>
<text xml:space="preserve" text-anchor="start" x="195.5" y="-526.25" font-family="Helvetica,sans-Serif" font-size="10.00">+</text>
<text xml:space="preserve" text-anchor="start" x="205.5" y="-526.25" font-family="Helvetica,sans-Serif" font-size="10.00">Role getSystemRole()</text>
<text xml:space="preserve" text-anchor="start" x="195.5" y="-510.25" font-family="Helvetica,sans-Serif" font-size="10.00">+</text>
<text xml:space="preserve" text-anchor="start" x="205.5" y="-510.25" font-family="Helvetica,sans-Serif" font-size="10.00">Appointment makeAppointment</text>
<text xml:space="preserve" text-anchor="start" x="205.5" y="-498.25" font-family="Helvetica,sans-Serif" font-size="10.00">(MedicalSpecialist m, LocalDate</text>
<text xml:space="preserve" text-anchor="start" x="205.5" y="-486.25" font-family="Helvetica,sans-Serif" font-size="10.00">Time dt)</text>
<text xml:space="preserve" text-anchor="start" x="195.5" y="-470.25" font-family="Helvetica,sans-Serif" font-size="10.00">+</text>
<text xml:space="preserve" text-anchor="start" x="205.5" y="-470.25" font-family="Helvetica,sans-Serif" font-size="10.00">void rescheduleAppointment</text>
<text xml:space="preserve" text-anchor="start" x="205.5" y="-458.25" font-family="Helvetica,sans-Serif" font-size="10.00">(LocalDateTime dtOld, LocalDate</text>
<text xml:space="preserve" text-anchor="start" x="205.5" y="-446.25" font-family="Helvetica,sans-Serif" font-size="10.00">Time dtNew)</text>
<text xml:space="preserve" text-anchor="start" x="195.5" y="-430.25" font-family="Helvetica,sans-Serif" font-size="10.00">+</text>
<text xml:space="preserve" text-anchor="start" x="205.5" y="-430.25" font-family="Helvetica,sans-Serif" font-size="10.00">void cancelAppointment</text>
<text xml:space="preserve" text-anchor="start" x="205.5" y="-418.25" font-family="Helvetica,sans-Serif" font-size="10.00">(LocalDateTime dt)</text>
<text xml:space="preserve" text-anchor="start" x="195.5" y="-402.25" font-family="Helvetica,sans-Serif" font-size="10.00">+</text>
<text xml:space="preserve" text-anchor="start" x="205.5" y="-402.25" font-family="Helvetica,sans-Serif" font-size="10.00">void updateProfile</text>
<text xml:space="preserve" text-anchor="start" x="205.5" y="-390.25" font-family="Helvetica,sans-Serif" font-size="10.00">(String name, String</text>
<text xml:space="preserve" text-anchor="start" x="205.5" y="-378.25" font-family="Helvetica,sans-Serif" font-size="10.00"> surname, String email,</text>
<text xml:space="preserve" text-anchor="start" x="205.5" y="-366.25" font-family="Helvetica,sans-Serif" font-size="10.00"> String phoneNumber, String</text>
<text xml:space="preserve" text-anchor="start" x="205.5" y="-354.25" font-family="Helvetica,sans-Serif" font-size="10.00"> birthPlace, java.time.LocalDate</text>
<text xml:space="preserve" text-anchor="start" x="205.5" y="-342.25" font-family="Helvetica,sans-Serif" font-size="10.00"> birthDate, char gender)</text>
<text xml:space="preserve" text-anchor="start" x="195.5" y="-326.25" font-family="Helvetica,sans-Serif" font-size="10.00">+</text>
<text xml:space="preserve" text-anchor="start" x="205.5" y="-326.25" font-family="Helvetica,sans-Serif" font-size="10.00">void deleteAccount()</text>
<polygon fill="#666666" stroke="#666666" points="191.5,-626 191.5,-626 355,-626 355,-626 191.5,-626"/>
<polygon fill="#666666" stroke="#666666" points="191.5,-610 191.5,-610 355,-610 355,-610 191.5,-610"/>
<polygon fill="none" stroke="#666666" points="191.5,-320 191.5,-644 355,-644 355,-320 191.5,-320"/>
</a>
</g>
</g>
<!-- Node1&#45;&gt;Node2 -->
<g id="edge1_Node000001_Node000002" class="edge">
<title>Node1&#45;&gt;Node2</title>
<g id="a_edge1_Node000001_Node000002"><a xlink:title=" ">
<path fill="none" stroke="#63b8ff" d="M365.4,-670.17C361.26,-661.75 356.92,-652.94 352.49,-643.94"/>
<polygon fill="none" stroke="#63b8ff" points="362.14,-671.45 369.69,-678.88 368.42,-668.36 362.14,-671.45"/>
</a>
</g>
</g>
<!-- Node3 -->
<g id="Node000003" class="node">
<title>Node3</title>
<g id="a_Node000003"><a xlink:title=" ">
<polygon fill="white" stroke="none" points="431,-508 373.5,-508 373.5,-456 431,-456 431,-508"/>
<text xml:space="preserve" text-anchor="start" x="377.5" y="-494.25" font-family="Helvetica,sans-Serif" font-size="10.00">TestPerson</text>
<text xml:space="preserve" text-anchor="start" x="400.75" y="-478.25" font-family="Helvetica,sans-Serif" font-size="10.00"> </text>
<text xml:space="preserve" text-anchor="start" x="400.75" y="-462.25" font-family="Helvetica,sans-Serif" font-size="10.00"> </text>
<polygon fill="#bfbfbf" stroke="#bfbfbf" points="373.5,-490 373.5,-490 431,-490 431,-490 373.5,-490"/>
<polygon fill="#bfbfbf" stroke="#bfbfbf" points="373.5,-474 373.5,-474 431,-474 431,-474 373.5,-474"/>
<polygon fill="none" stroke="#bfbfbf" points="373.5,-456 373.5,-508 431,-508 431,-456 373.5,-456"/>
</a>
</g>
</g>
<!-- Node1&#45;&gt;Node3 -->
<g id="edge2_Node000001_Node000003" class="edge">
<title>Node1&#45;&gt;Node3</title>
<g id="a_edge2_Node000001_Node000003"><a xlink:title=" ">
<path fill="none" stroke="#63b8ff" d="M402.25,-668.86C402.25,-614.35 402.25,-544.37 402.25,-507.8"/>
<polygon fill="none" stroke="#63b8ff" points="398.75,-668.72 402.25,-678.72 405.75,-668.72 398.75,-668.72"/>
</a>
</g>
</g>
<!-- Node4 -->
<g id="Node000004" class="node">
<title>Node4</title>
<g id="a_Node000004"><a xlink:href="classvixhealthsystem_1_1model_1_1person_1_1employee_1_1_employee.html" target="_top" xlink:title="Represents a generic employee in the system.">
<polygon fill="white" stroke="none" points="601.75,-560 448.75,-560 448.75,-404 601.75,-404 601.75,-560"/>
<text xml:space="preserve" text-anchor="start" x="503.5" y="-546.25" font-family="Helvetica,sans-Serif" font-size="10.00">Employee</text>
<text xml:space="preserve" text-anchor="start" x="523.75" y="-530.25" font-family="Helvetica,sans-Serif" font-size="10.00"> </text>
<text xml:space="preserve" text-anchor="start" x="452.75" y="-514.25" font-family="Helvetica,sans-Serif" font-size="10.00">+</text>
<text xml:space="preserve" text-anchor="start" x="462.75" y="-514.25" font-family="Helvetica,sans-Serif" font-size="10.00">abstract Role getSystemRole()</text>
<text xml:space="preserve" text-anchor="start" x="452.75" y="-498.25" font-family="Helvetica,sans-Serif" font-size="10.00">+</text>
<text xml:space="preserve" text-anchor="start" x="462.75" y="-498.25" font-family="Helvetica,sans-Serif" font-size="10.00">abstract EmployeeType</text>
<text xml:space="preserve" text-anchor="start" x="462.75" y="-486.25" font-family="Helvetica,sans-Serif" font-size="10.00"> getEmployeeType()</text>
<text xml:space="preserve" text-anchor="start" x="452.75" y="-470.25" font-family="Helvetica,sans-Serif" font-size="10.00">+</text>
<text xml:space="preserve" text-anchor="start" x="462.75" y="-470.25" font-family="Helvetica,sans-Serif" font-size="10.00">boolean hasFacilityStorage()</text>
<text xml:space="preserve" text-anchor="start" x="452.75" y="-454.25" font-family="Helvetica,sans-Serif" font-size="10.00">+</text>
<text xml:space="preserve" text-anchor="start" x="462.75" y="-454.25" font-family="Helvetica,sans-Serif" font-size="10.00">Storage getFacilityStorage()</text>
<text xml:space="preserve" text-anchor="start" x="452.75" y="-438.25" font-family="Helvetica,sans-Serif" font-size="10.00">+</text>
<text xml:space="preserve" text-anchor="start" x="462.75" y="-438.25" font-family="Helvetica,sans-Serif" font-size="10.00">String getFacilityName()</text>
<text xml:space="preserve" text-anchor="start" x="452.75" y="-422.25" font-family="Helvetica,sans-Serif" font-size="10.00">+</text>
<text xml:space="preserve" text-anchor="start" x="462.75" y="-422.25" font-family="Helvetica,sans-Serif" font-size="10.00">void takeResource(Resource</text>
<text xml:space="preserve" text-anchor="start" x="462.75" y="-410.25" font-family="Helvetica,sans-Serif" font-size="10.00"> r, int q)</text>
<polygon fill="#666666" stroke="#666666" points="448.75,-542 448.75,-542 601.75,-542 601.75,-542 448.75,-542"/>
<polygon fill="#666666" stroke="#666666" points="448.75,-526 448.75,-526 601.75,-526 601.75,-526 448.75,-526"/>
<polygon fill="none" stroke="#666666" points="448.75,-404 448.75,-560 601.75,-560 601.75,-404 448.75,-404"/>
</a>
</g>
</g>
<!-- Node1&#45;&gt;Node4 -->
<g id="edge3_Node000001_Node000004" class="edge">
<title>Node1&#45;&gt;Node4</title>
<g id="a_edge3_Node000001_Node000004"><a xlink:title=" ">
<path fill="none" stroke="#63b8ff" d="M437.38,-670.18C453.64,-635.54 472.93,-594.44 489.3,-559.58"/>
<polygon fill="none" stroke="#63b8ff" points="434.38,-668.33 433.3,-678.87 440.72,-671.3 434.38,-668.33"/>
</a>
</g>
</g>
<!-- Node5 -->
<g id="Node000005" class="node">
<title>Node5</title>
<g id="a_Node000005"><a xlink:href="classvixhealthsystem_1_1model_1_1person_1_1employee_1_1_buyer.html" target="_top" xlink:title="Part of the purchasing department.">
<polygon fill="white" stroke="none" points="142.5,-196 0,-196 0,-88 142.5,-88 142.5,-196"/>
<text xml:space="preserve" text-anchor="start" x="58.5" y="-182.25" font-family="Helvetica,sans-Serif" font-size="10.00">Buyer</text>
<text xml:space="preserve" text-anchor="start" x="69.75" y="-166.25" font-family="Helvetica,sans-Serif" font-size="10.00"> </text>
<text xml:space="preserve" text-anchor="start" x="4" y="-150.25" font-family="Helvetica,sans-Serif" font-size="10.00">+</text>
<text xml:space="preserve" text-anchor="start" x="14" y="-150.25" font-family="Helvetica,sans-Serif" font-size="10.00">Role getSystemRole()</text>
<text xml:space="preserve" text-anchor="start" x="4" y="-134.25" font-family="Helvetica,sans-Serif" font-size="10.00">+</text>
<text xml:space="preserve" text-anchor="start" x="14" y="-134.25" font-family="Helvetica,sans-Serif" font-size="10.00">EmployeeType getEmployee</text>
<text xml:space="preserve" text-anchor="start" x="14" y="-122.25" font-family="Helvetica,sans-Serif" font-size="10.00">Type()</text>
<text xml:space="preserve" text-anchor="start" x="4" y="-106.25" font-family="Helvetica,sans-Serif" font-size="10.00">+</text>
<text xml:space="preserve" text-anchor="start" x="14" y="-106.25" font-family="Helvetica,sans-Serif" font-size="10.00">void addResource(Resource</text>
<text xml:space="preserve" text-anchor="start" x="14" y="-94.25" font-family="Helvetica,sans-Serif" font-size="10.00"> resource, int quantity)</text>
<polygon fill="#666666" stroke="#666666" points="0,-178 0,-178 142.5,-178 142.5,-178 0,-178"/>
<polygon fill="#666666" stroke="#666666" points="0,-162 0,-162 142.5,-162 142.5,-162 0,-162"/>
<polygon fill="none" stroke="#666666" points="0,-88 0,-196 142.5,-196 142.5,-88 0,-88"/>
</a>
</g>
</g>
<!-- Node4&#45;&gt;Node5 -->
<g id="edge4_Node000004_Node000005" class="edge">
<title>Node4&#45;&gt;Node5</title>
<g id="a_edge4_Node000004_Node000005"><a xlink:title=" ">
<path fill="none" stroke="#63b8ff" d="M497.72,-393.94C484.65,-366.07 466.07,-337.84 440.25,-320 334.13,-246.66 259.66,-355.43 152.25,-284 121.22,-263.36 100.65,-226.52 88.01,-195.67"/>
<polygon fill="none" stroke="#63b8ff" points="494.4,-395.09 501.67,-402.79 500.79,-392.23 494.4,-395.09"/>
</a>
</g>
</g>
<!-- Node6 -->
<g id="Node000006" class="node">
<title>Node6</title>
<g id="a_Node000006"><a xlink:href="classvixhealthsystem_1_1model_1_1person_1_1employee_1_1_medical_specialist.html" target="_top" xlink:title="Represents medical personnel such as doctors, surgeons, specialists and nurses.">
<polygon fill="white" stroke="none" points="317.62,-218 160.88,-218 160.88,-66 317.62,-66 317.62,-218"/>
<text xml:space="preserve" text-anchor="start" x="201" y="-204.25" font-family="Helvetica,sans-Serif" font-size="10.00">MedicalSpecialist</text>
<text xml:space="preserve" text-anchor="start" x="237.75" y="-188.25" font-family="Helvetica,sans-Serif" font-size="10.00"> </text>
<text xml:space="preserve" text-anchor="start" x="164.88" y="-172.25" font-family="Helvetica,sans-Serif" font-size="10.00">+</text>
<text xml:space="preserve" text-anchor="start" x="174.88" y="-172.25" font-family="Helvetica,sans-Serif" font-size="10.00">MedicalSpecialist()</text>
<text xml:space="preserve" text-anchor="start" x="164.88" y="-156.25" font-family="Helvetica,sans-Serif" font-size="10.00">+</text>
<text xml:space="preserve" text-anchor="start" x="174.88" y="-156.25" font-family="Helvetica,sans-Serif" font-size="10.00">Role getSystemRole()</text>
<text xml:space="preserve" text-anchor="start" x="164.88" y="-140.25" font-family="Helvetica,sans-Serif" font-size="10.00">+</text>
<text xml:space="preserve" text-anchor="start" x="174.88" y="-140.25" font-family="Helvetica,sans-Serif" font-size="10.00">EmployeeType getEmployee</text>
<text xml:space="preserve" text-anchor="start" x="174.88" y="-128.25" font-family="Helvetica,sans-Serif" font-size="10.00">Type()</text>
<text xml:space="preserve" text-anchor="start" x="164.88" y="-112.25" font-family="Helvetica,sans-Serif" font-size="10.00">+</text>
<text xml:space="preserve" text-anchor="start" x="174.88" y="-112.25" font-family="Helvetica,sans-Serif" font-size="10.00">void appPrescriptionForPatient</text>
<text xml:space="preserve" text-anchor="start" x="174.88" y="-100.25" font-family="Helvetica,sans-Serif" font-size="10.00">(Patient p, Prescription pr)</text>
<text xml:space="preserve" text-anchor="start" x="164.88" y="-84.25" font-family="Helvetica,sans-Serif" font-size="10.00">+</text>
<text xml:space="preserve" text-anchor="start" x="174.88" y="-84.25" font-family="Helvetica,sans-Serif" font-size="10.00">void scheduleSurgeryForPatient</text>
<text xml:space="preserve" text-anchor="start" x="174.88" y="-72.25" font-family="Helvetica,sans-Serif" font-size="10.00">(Patient p, Surgery s)</text>
<polygon fill="#666666" stroke="#666666" points="160.88,-200 160.88,-200 317.62,-200 317.62,-200 160.88,-200"/>
<polygon fill="#666666" stroke="#666666" points="160.88,-184 160.88,-184 317.62,-184 317.62,-184 160.88,-184"/>
<polygon fill="none" stroke="#666666" points="160.88,-66 160.88,-218 317.62,-218 317.62,-66 160.88,-66"/>
</a>
</g>
</g>
<!-- Node4&#45;&gt;Node6 -->
<g id="edge5_Node000004_Node000006" class="edge">
<title>Node4&#45;&gt;Node6</title>
<g id="a_edge5_Node000004_Node000006"><a xlink:title=" ">
<path fill="none" stroke="#63b8ff" d="M494.53,-393.9C481.4,-367.06 463.6,-339.48 440.25,-320 399.46,-285.96 368.16,-316.66 326.25,-284 303.9,-266.59 285.87,-241.7 272.14,-217.67"/>
<polygon fill="none" stroke="#63b8ff" points="491.27,-395.2 498.69,-402.76 497.61,-392.22 491.27,-395.2"/>
</a>
</g>
</g>
<!-- Node7 -->
<g id="Node000007" class="node">
<title>Node7</title>
<g id="a_Node000007"><a xlink:href="classvixhealthsystem_1_1model_1_1person_1_1employee_1_1_secretary.html" target="_top" xlink:title="Handles administrative tasks such as appointment scheduling, patient admissions and discharges.">
<polygon fill="white" stroke="none" points="523,-284 335.5,-284 335.5,0 523,0 523,-284"/>
<text xml:space="preserve" text-anchor="start" x="408.25" y="-270.25" font-family="Helvetica,sans-Serif" font-size="10.00">Secretary</text>
<text xml:space="preserve" text-anchor="start" x="427.75" y="-254.25" font-family="Helvetica,sans-Serif" font-size="10.00"> </text>
<text xml:space="preserve" text-anchor="start" x="339.5" y="-238.25" font-family="Helvetica,sans-Serif" font-size="10.00">+</text>
<text xml:space="preserve" text-anchor="start" x="349.5" y="-238.25" font-family="Helvetica,sans-Serif" font-size="10.00">Secretary()</text>
<text xml:space="preserve" text-anchor="start" x="339.5" y="-222.25" font-family="Helvetica,sans-Serif" font-size="10.00">+</text>
<text xml:space="preserve" text-anchor="start" x="349.5" y="-222.25" font-family="Helvetica,sans-Serif" font-size="10.00">Role getSystemRole()</text>
<text xml:space="preserve" text-anchor="start" x="339.5" y="-206.25" font-family="Helvetica,sans-Serif" font-size="10.00">+</text>
<text xml:space="preserve" text-anchor="start" x="349.5" y="-206.25" font-family="Helvetica,sans-Serif" font-size="10.00">EmployeeType getEmployee</text>
<text xml:space="preserve" text-anchor="start" x="349.5" y="-194.25" font-family="Helvetica,sans-Serif" font-size="10.00">Type()</text>
<text xml:space="preserve" text-anchor="start" x="339.5" y="-178.25" font-family="Helvetica,sans-Serif" font-size="10.00">+</text>
<text xml:space="preserve" text-anchor="start" x="349.5" y="-178.25" font-family="Helvetica,sans-Serif" font-size="10.00">Appointment makeAppointment</text>
<text xml:space="preserve" text-anchor="start" x="349.5" y="-166.25" font-family="Helvetica,sans-Serif" font-size="10.00">ForPatient(Patient p, MedicalSpecialist</text>
<text xml:space="preserve" text-anchor="start" x="349.5" y="-154.25" font-family="Helvetica,sans-Serif" font-size="10.00"> m, LocalDateTime dt)</text>
<text xml:space="preserve" text-anchor="start" x="339.5" y="-138.25" font-family="Helvetica,sans-Serif" font-size="10.00">+</text>
<text xml:space="preserve" text-anchor="start" x="349.5" y="-138.25" font-family="Helvetica,sans-Serif" font-size="10.00">void rescheduleAppointment</text>
<text xml:space="preserve" text-anchor="start" x="349.5" y="-126.25" font-family="Helvetica,sans-Serif" font-size="10.00">ForPatient(Patient p, LocalDate</text>
<text xml:space="preserve" text-anchor="start" x="349.5" y="-114.25" font-family="Helvetica,sans-Serif" font-size="10.00">Time dtOld, LocalDateTime dtNew)</text>
<text xml:space="preserve" text-anchor="start" x="339.5" y="-98.25" font-family="Helvetica,sans-Serif" font-size="10.00">+</text>
<text xml:space="preserve" text-anchor="start" x="349.5" y="-98.25" font-family="Helvetica,sans-Serif" font-size="10.00">void cancelAppointmentFor</text>
<text xml:space="preserve" text-anchor="start" x="349.5" y="-86.25" font-family="Helvetica,sans-Serif" font-size="10.00">Patient(Patient p, LocalDateTime dt)</text>
<text xml:space="preserve" text-anchor="start" x="339.5" y="-70.25" font-family="Helvetica,sans-Serif" font-size="10.00">+</text>
<text xml:space="preserve" text-anchor="start" x="349.5" y="-70.25" font-family="Helvetica,sans-Serif" font-size="10.00">void setPatientInRoom</text>
<text xml:space="preserve" text-anchor="start" x="349.5" y="-58.25" font-family="Helvetica,sans-Serif" font-size="10.00">(InternationRoom ir,</text>
<text xml:space="preserve" text-anchor="start" x="349.5" y="-46.25" font-family="Helvetica,sans-Serif" font-size="10.00"> Patient p)</text>
<text xml:space="preserve" text-anchor="start" x="339.5" y="-30.25" font-family="Helvetica,sans-Serif" font-size="10.00">+</text>
<text xml:space="preserve" text-anchor="start" x="349.5" y="-30.25" font-family="Helvetica,sans-Serif" font-size="10.00">void dismissPatient</text>
<text xml:space="preserve" text-anchor="start" x="349.5" y="-18.25" font-family="Helvetica,sans-Serif" font-size="10.00">(InternationRoom ir,</text>
<text xml:space="preserve" text-anchor="start" x="349.5" y="-6.25" font-family="Helvetica,sans-Serif" font-size="10.00"> Patient p)</text>
<polygon fill="#666666" stroke="#666666" points="335.5,-266 335.5,-266 523,-266 523,-266 335.5,-266"/>
<polygon fill="#666666" stroke="#666666" points="335.5,-250 335.5,-250 523,-250 523,-250 335.5,-250"/>
<polygon fill="none" stroke="#666666" points="335.5,0 335.5,-284 523,-284 523,0 335.5,0"/>
</a>
</g>
</g>
<!-- Node4&#45;&gt;Node7 -->
<g id="edge6_Node000004_Node000007" class="edge">
<title>Node4&#45;&gt;Node7</title>
<g id="a_edge6_Node000004_Node000007"><a xlink:title=" ">
<path fill="none" stroke="#63b8ff" d="M500.44,-393.64C490.93,-360.18 479.83,-321.09 469.26,-283.87"/>
<polygon fill="none" stroke="#63b8ff" points="496.95,-394.18 503.05,-402.85 503.69,-392.27 496.95,-394.18"/>
</a>
</g>
</g>
<!-- Node8 -->
<g id="Node000008" class="node">
<title>Node8</title>
<g id="a_Node000008"><a xlink:href="classvixhealthsystem_1_1model_1_1person_1_1employee_1_1_staff_manager.html" target="_top" xlink:title="Manages employee accounts in the system.">
<polygon fill="white" stroke="none" points="701.12,-224 541.38,-224 541.38,-60 701.12,-60 701.12,-224"/>
<text xml:space="preserve" text-anchor="start" x="592.38" y="-210.25" font-family="Helvetica,sans-Serif" font-size="10.00">StaffManager</text>
<text xml:space="preserve" text-anchor="start" x="619.75" y="-194.25" font-family="Helvetica,sans-Serif" font-size="10.00"> </text>
<text xml:space="preserve" text-anchor="start" x="545.38" y="-178.25" font-family="Helvetica,sans-Serif" font-size="10.00">+</text>
<text xml:space="preserve" text-anchor="start" x="555.38" y="-178.25" font-family="Helvetica,sans-Serif" font-size="10.00">Role getSystemRole()</text>
<text xml:space="preserve" text-anchor="start" x="545.38" y="-162.25" font-family="Helvetica,sans-Serif" font-size="10.00">+</text>
<text xml:space="preserve" text-anchor="start" x="555.38" y="-162.25" font-family="Helvetica,sans-Serif" font-size="10.00">EmployeeType getEmployee</text>
<text xml:space="preserve" text-anchor="start" x="555.38" y="-150.25" font-family="Helvetica,sans-Serif" font-size="10.00">Type()</text>
<text xml:space="preserve" text-anchor="start" x="545.38" y="-134.25" font-family="Helvetica,sans-Serif" font-size="10.00">+</text>
<text xml:space="preserve" text-anchor="start" x="555.38" y="-134.25" font-family="Helvetica,sans-Serif" font-size="10.00">void createAccountForEmployee</text>
<text xml:space="preserve" text-anchor="start" x="555.38" y="-122.25" font-family="Helvetica,sans-Serif" font-size="10.00">(Employee e)</text>
<text xml:space="preserve" text-anchor="start" x="545.38" y="-106.25" font-family="Helvetica,sans-Serif" font-size="10.00">+</text>
<text xml:space="preserve" text-anchor="start" x="555.38" y="-106.25" font-family="Helvetica,sans-Serif" font-size="10.00">void deleteEmployeeAccount</text>
<text xml:space="preserve" text-anchor="start" x="555.38" y="-94.25" font-family="Helvetica,sans-Serif" font-size="10.00">(Employee e)</text>
<text xml:space="preserve" text-anchor="start" x="545.38" y="-78.25" font-family="Helvetica,sans-Serif" font-size="10.00">+</text>
<text xml:space="preserve" text-anchor="start" x="555.38" y="-78.25" font-family="Helvetica,sans-Serif" font-size="10.00">void credentialsRecovery</text>
<text xml:space="preserve" text-anchor="start" x="555.38" y="-66.25" font-family="Helvetica,sans-Serif" font-size="10.00">(Employee e)</text>
<polygon fill="#666666" stroke="#666666" points="541.38,-206 541.38,-206 701.12,-206 701.12,-206 541.38,-206"/>
<polygon fill="#666666" stroke="#666666" points="541.38,-190 541.38,-190 701.12,-190 701.12,-190 541.38,-190"/>
<polygon fill="none" stroke="#666666" points="541.38,-60 541.38,-224 701.12,-224 701.12,-60 541.38,-60"/>
</a>
</g>
</g>
<!-- Node4&#45;&gt;Node8 -->
<g id="edge7_Node000004_Node000008" class="edge">
<title>Node4&#45;&gt;Node8</title>
<g id="a_edge7_Node000004_Node000008"><a xlink:title=" ">
<path fill="none" stroke="#63b8ff" d="M550.15,-393.35C565.02,-340.97 583.78,-274.92 598.3,-223.81"/>
<polygon fill="none" stroke="#63b8ff" points="546.81,-392.27 547.45,-402.85 553.55,-394.18 546.81,-392.27"/>
</a>
</g>
</g>
<!-- Node9 -->
<g id="Node000009" class="node">
<title>Node9</title>
<g id="a_Node000009"><a xlink:href="classvixhealthsystem_1_1model_1_1person_1_1employee_1_1_technician.html" target="_top" xlink:title="Responsible for managing and maintaining medical machinery.">
<polygon fill="white" stroke="none" points="862.88,-202 719.62,-202 719.62,-82 862.88,-82 862.88,-202"/>
<text xml:space="preserve" text-anchor="start" x="768" y="-188.25" font-family="Helvetica,sans-Serif" font-size="10.00">Technician</text>
<text xml:space="preserve" text-anchor="start" x="789.75" y="-172.25" font-family="Helvetica,sans-Serif" font-size="10.00"> </text>
<text xml:space="preserve" text-anchor="start" x="723.62" y="-156.25" font-family="Helvetica,sans-Serif" font-size="10.00">+</text>
<text xml:space="preserve" text-anchor="start" x="733.62" y="-156.25" font-family="Helvetica,sans-Serif" font-size="10.00">Role getSystemRole()</text>
<text xml:space="preserve" text-anchor="start" x="723.62" y="-140.25" font-family="Helvetica,sans-Serif" font-size="10.00">+</text>
<text xml:space="preserve" text-anchor="start" x="733.62" y="-140.25" font-family="Helvetica,sans-Serif" font-size="10.00">EmployeeType getEmployee</text>
<text xml:space="preserve" text-anchor="start" x="733.62" y="-128.25" font-family="Helvetica,sans-Serif" font-size="10.00">Type()</text>
<text xml:space="preserve" text-anchor="start" x="723.62" y="-112.25" font-family="Helvetica,sans-Serif" font-size="10.00">+</text>
<text xml:space="preserve" text-anchor="start" x="733.62" y="-112.25" font-family="Helvetica,sans-Serif" font-size="10.00">List&lt; Machinery &gt; getFaulty</text>
<text xml:space="preserve" text-anchor="start" x="733.62" y="-100.25" font-family="Helvetica,sans-Serif" font-size="10.00">MachineList(List&lt; Machinery</text>
<text xml:space="preserve" text-anchor="start" x="733.62" y="-88.25" font-family="Helvetica,sans-Serif" font-size="10.00"> &gt; allMachines)</text>
<polygon fill="#666666" stroke="#666666" points="719.62,-184 719.62,-184 862.88,-184 862.88,-184 719.62,-184"/>
<polygon fill="#666666" stroke="#666666" points="719.62,-168 719.62,-168 862.88,-168 862.88,-168 719.62,-168"/>
<polygon fill="none" stroke="#666666" points="719.62,-82 719.62,-202 862.88,-202 862.88,-82 719.62,-82"/>
</a>
</g>
</g>
<!-- Node4&#45;&gt;Node9 -->
<g id="edge8_Node000004_Node000009" class="edge">
<title>Node4&#45;&gt;Node9</title>
<g id="a_edge8_Node000004_Node000009"><a xlink:title=" ">
<path fill="none" stroke="#63b8ff" d="M609.57,-399.84C642.87,-365.67 680.25,-324.48 710.25,-284 729.24,-258.37 747.25,-227.89 761.44,-201.84"/>
<polygon fill="none" stroke="#63b8ff" points="607.21,-397.25 602.71,-406.84 612.21,-402.15 607.21,-397.25"/>
</a>
</g>
</g>
<!-- Node10 -->
<g id="Node000010" class="node">
<title>Node10</title>
<g id="a_Node000010"><a xlink:title=" ">
<polygon fill="white" stroke="none" points="951.38,-168 881.12,-168 881.12,-116 951.38,-116 951.38,-168"/>
<text xml:space="preserve" text-anchor="start" x="885.12" y="-154.25" font-family="Helvetica,sans-Serif" font-size="10.00">TestEmployee</text>
<text xml:space="preserve" text-anchor="start" x="914.75" y="-138.25" font-family="Helvetica,sans-Serif" font-size="10.00"> </text>
<text xml:space="preserve" text-anchor="start" x="914.75" y="-122.25" font-family="Helvetica,sans-Serif" font-size="10.00"> </text>
<polygon fill="#bfbfbf" stroke="#bfbfbf" points="881.12,-150 881.12,-150 951.38,-150 951.38,-150 881.12,-150"/>
<polygon fill="#bfbfbf" stroke="#bfbfbf" points="881.12,-134 881.12,-134 951.38,-134 951.38,-134 881.12,-134"/>
<polygon fill="none" stroke="#bfbfbf" points="881.12,-116 881.12,-168 951.38,-168 951.38,-116 881.12,-116"/>
</a>
</g>
</g>
<!-- Node4&#45;&gt;Node10 -->
<g id="edge9_Node000004_Node000010" class="edge">
<title>Node4&#45;&gt;Node10</title>
<g id="a_edge9_Node000004_Node000010"><a xlink:title=" ">
<path fill="none" stroke="#63b8ff" d="M612.05,-452.68C690.76,-422.71 804.53,-368 872.25,-284 899.85,-249.76 910.22,-198.12 914.05,-167.75"/>
<polygon fill="none" stroke="#63b8ff" points="611.22,-449.25 603.08,-456.03 613.68,-455.81 611.22,-449.25"/>
</a>
</g>
</g>
</g>
</svg>
