<?xml version="1.0" encoding="UTF-8" standalone="no"?>
<!DOCTYPE svg PUBLIC "-//W3C//DTD SVG 1.1//EN"
 "http://www.w3.org/Graphics/SVG/1.1/DTD/svg11.dtd">
<!-- Generated by graphviz version 15.0.0 (20260523.1842)
 -->
<!-- Title: ResourceTakeLogStore.Entry Pages: 1 -->
<svg width="176pt" height="124pt"
 viewBox="0.00 0.00 176.00 124.00" xmlns="http://www.w3.org/2000/svg" xmlns:xlink="http://www.w3.org/1999/xlink">
<g id="graph0" class="graph" transform="scale(1 1) rotate(0) translate(4 120)">
<title>ResourceTakeLogStore.Entry</title>
<!-- Node1 -->
<g id="Node000001" class="node">
<title>Node1</title>
<g id="a_Node000001"><a xlink:title="Immutable snapshot of a single resource takeout event.">
<polygon fill="#999999" stroke="none" points="168,-116 0,-116 0,0 168,0 168,-116"/>
<text xml:space="preserve" text-anchor="start" x="19.88" y="-102.25" font-family="Helvetica,sans-Serif" font-size="10.00">ResourceTakeLogStore.Entry</text>
<text xml:space="preserve" text-anchor="start" x="4" y="-86.25" font-family="Helvetica,sans-Serif" font-size="10.00">+</text>
<text xml:space="preserve" text-anchor="start" x="14" y="-86.25" font-family="Helvetica,sans-Serif" font-size="10.00">String id</text>
<text xml:space="preserve" text-anchor="start" x="4" y="-70.25" font-family="Helvetica,sans-Serif" font-size="10.00">+</text>
<text xml:space="preserve" text-anchor="start" x="14" y="-70.25" font-family="Helvetica,sans-Serif" font-size="10.00">Entry()</text>
<text xml:space="preserve" text-anchor="start" x="4" y="-54.25" font-family="Helvetica,sans-Serif" font-size="10.00">+</text>
<text xml:space="preserve" text-anchor="start" x="14" y="-54.25" font-family="Helvetica,sans-Serif" font-size="10.00">Entry(Long employeeId,</text>
<text xml:space="preserve" text-anchor="start" x="14" y="-42.25" font-family="Helvetica,sans-Serif" font-size="10.00"> String employeeName,</text>
<text xml:space="preserve" text-anchor="start" x="14" y="-30.25" font-family="Helvetica,sans-Serif" font-size="10.00"> String employeeRole, Long</text>
<text xml:space="preserve" text-anchor="start" x="14" y="-18.25" font-family="Helvetica,sans-Serif" font-size="10.00"> resourceId, String resourceName,</text>
<text xml:space="preserve" text-anchor="start" x="14" y="-6.25" font-family="Helvetica,sans-Serif" font-size="10.00"> Long storageId, int quantity)</text>
<polygon fill="#666666" stroke="#666666" points="0,-98 0,-98 168,-98 168,-98 0,-98"/>
<polygon fill="#666666" stroke="#666666" points="0,-82 0,-82 12,-82 12,-82 0,-82"/>
<polygon fill="#666666" stroke="#666666" points="12,-82 12,-82 168,-82 168,-82 12,-82"/>
<polygon fill="none" stroke="#666666" points="0,0 0,-116 168,-116 168,0 0,0"/>
</a>
</g>
</g>
</g>
</svg>
