<?xml version="1.0" encoding="UTF-8" standalone="no"?>
<!DOCTYPE svg PUBLIC "-//W3C//DTD SVG 1.1//EN"
 "http://www.w3.org/Graphics/SVG/1.1/DTD/svg11.dtd">
<!-- Generated by graphviz version 15.0.0 (20260523.1842)
 -->
<!-- Title: MedicalFacility Pages: 1 -->
<svg width="179pt" height="128pt"
 viewBox="0.00 0.00 179.00 128.00" xmlns="http://www.w3.org/2000/svg" xmlns:xlink="http://www.w3.org/1999/xlink">
<g id="graph0" class="graph" transform="scale(1 1) rotate(0) translate(4 124)">
<title>MedicalFacility</title>
<!-- Node1 -->
<g id="Node000001" class="node">
<title>Node1</title>
<g id="a_Node000001"><a xlink:title="Represents a healthcare facility such as a hospital, clinic or specialized medical center.">
<polygon fill="#999999" stroke="none" points="171,-120 0,-120 0,0 171,0 171,-120"/>
<text xml:space="preserve" text-anchor="start" x="52.88" y="-106.25" font-family="Helvetica,sans-Serif" font-size="10.00">MedicalFacility</text>
<text xml:space="preserve" text-anchor="start" x="84" y="-90.25" font-family="Helvetica,sans-Serif" font-size="10.00"> </text>
<text xml:space="preserve" text-anchor="start" x="4" y="-74.25" font-family="Helvetica,sans-Serif" font-size="10.00">+</text>
<text xml:space="preserve" text-anchor="start" x="14" y="-74.25" font-family="Helvetica,sans-Serif" font-size="10.00">MedicalFacility()</text>
<text xml:space="preserve" text-anchor="start" x="4" y="-58.25" font-family="Helvetica,sans-Serif" font-size="10.00">+</text>
<text xml:space="preserve" text-anchor="start" x="14" y="-58.25" font-family="Helvetica,sans-Serif" font-size="10.00">MedicalFacility(String</text>
<text xml:space="preserve" text-anchor="start" x="14" y="-46.25" font-family="Helvetica,sans-Serif" font-size="10.00"> name, Location location,</text>
<text xml:space="preserve" text-anchor="start" x="14" y="-34.25" font-family="Helvetica,sans-Serif" font-size="10.00"> String email, String phoneNumber)</text>
<text xml:space="preserve" text-anchor="start" x="4" y="-18.25" font-family="Helvetica,sans-Serif" font-size="10.00">+</text>
<text xml:space="preserve" text-anchor="start" x="14" y="-18.25" font-family="Helvetica,sans-Serif" font-size="10.00">Map&lt; Resource, Integer</text>
<text xml:space="preserve" text-anchor="start" x="14" y="-6.25" font-family="Helvetica,sans-Serif" font-size="10.00"> &gt; getResources()</text>
<polygon fill="#666666" stroke="#666666" points="0,-102 0,-102 171,-102 171,-102 0,-102"/>
<polygon fill="#666666" stroke="#666666" points="0,-86 0,-86 171,-86 171,-86 0,-86"/>
<polygon fill="none" stroke="#666666" points="0,0 0,-120 171,-120 171,0 0,0"/>
</a>
</g>
</g>
</g>
</svg>
