<?xml version="1.0" encoding="UTF-8" standalone="no"?>
<!DOCTYPE svg PUBLIC "-//W3C//DTD SVG 1.1//EN"
 "http://www.w3.org/Graphics/SVG/1.1/DTD/svg11.dtd">
<!-- Generated by graphviz version 15.0.0 (20260523.1842)
 -->
<!-- Title: ProjectStructure Pages: 1 -->
<svg width="349pt" height="392pt"
 viewBox="0.00 0.00 349.00 392.00" xmlns="http://www.w3.org/2000/svg" xmlns:xlink="http://www.w3.org/1999/xlink">
<g id="graph0" class="graph" transform="scale(1 1) rotate(0) translate(4 387.6)">
<title>ProjectStructure</title>
<!-- root -->
<g id="node1" class="node">
<title>root</title>
<path fill="#1e3a5f" stroke="black" stroke-width="2" d="M122.7,-209.3C122.7,-209.3 12,-209.3 12,-209.3 6,-209.3 0,-203.3 0,-197.3 0,-197.3 0,-185.3 0,-185.3 0,-179.3 6,-173.3 12,-173.3 12,-173.3 122.7,-173.3 122.7,-173.3 128.7,-173.3 134.7,-179.3 134.7,-185.3 134.7,-185.3 134.7,-197.3 134.7,-197.3 134.7,-203.3 128.7,-209.3 122.7,-209.3"/>
<text xml:space="preserve" text-anchor="middle" x="67.35" y="-187.6" font-family="Helvetica,sans-Serif" font-size="11.00" fill="white">VIX Health System</text>
</g>
<!-- ctrl -->
<g id="node2" class="node">
<title>ctrl</title>
<path fill="#1e5f3a" stroke="black" d="M315.15,-383.6C315.15,-383.6 196.95,-383.6 196.95,-383.6 190.95,-383.6 184.95,-377.6 184.95,-371.6 184.95,-371.6 184.95,-347 184.95,-347 184.95,-341 190.95,-335 196.95,-335 196.95,-335 315.15,-335 315.15,-335 321.15,-335 327.15,-341 327.15,-347 327.15,-347 327.15,-371.6 327.15,-371.6 327.15,-377.6 321.15,-383.6 315.15,-383.6"/>
<text xml:space="preserve" text-anchor="middle" x="256.05" y="-362.35" font-family="Helvetica,sans-Serif" font-size="11.00" fill="white">controllers</text>
<text xml:space="preserve" text-anchor="middle" x="256.05" y="-348.85" font-family="Helvetica,sans-Serif" font-size="11.00" fill="white">(MVC : one per role)</text>
</g>
<!-- root&#45;&gt;ctrl -->
<g id="edge1" class="edge">
<title>root&#45;&gt;ctrl</title>
<path fill="none" stroke="#888888" d="M78.17,-209.86C94.09,-238.32 128.08,-292.84 170.7,-325.3 172.76,-326.87 174.9,-328.38 177.11,-329.83"/>
<polygon fill="#888888" stroke="#888888" points="183.79,-333.89 175.08,-332.8 181.41,-332.44 176.95,-329.73 176.95,-329.73 176.95,-329.73 181.41,-332.44 178.82,-326.65 183.79,-333.89"/>
</g>
<!-- model -->
<g id="node3" class="node">
<title>model</title>
<path fill="#1e3a5f" stroke="black" d="M297.15,-316.6C297.15,-316.6 214.95,-316.6 214.95,-316.6 208.95,-316.6 202.95,-310.6 202.95,-304.6 202.95,-304.6 202.95,-280 202.95,-280 202.95,-274 208.95,-268 214.95,-268 214.95,-268 297.15,-268 297.15,-268 303.15,-268 309.15,-274 309.15,-280 309.15,-280 309.15,-304.6 309.15,-304.6 309.15,-310.6 303.15,-316.6 297.15,-316.6"/>
<text xml:space="preserve" text-anchor="middle" x="256.05" y="-295.35" font-family="Helvetica,sans-Serif" font-size="11.00" fill="#a8d4ff">model</text>
<text xml:space="preserve" text-anchor="middle" x="256.05" y="-281.85" font-family="Helvetica,sans-Serif" font-size="11.00" fill="#a8d4ff">(JPA entities)</text>
</g>
<!-- root&#45;&gt;model -->
<g id="edge2" class="edge">
<title>root&#45;&gt;model</title>
<path fill="none" stroke="#888888" d="M94,-210.12C114.19,-224.44 143.4,-244.04 170.7,-258.3 178.18,-262.21 186.21,-265.96 194.24,-269.46"/>
<polygon fill="#888888" stroke="#888888" points="201.46,-272.54 192.69,-272.72 198.9,-271.45 194.1,-269.4 194.1,-269.4 194.1,-269.4 198.9,-271.45 195.51,-266.09 201.46,-272.54"/>
</g>
<!-- svc -->
<g id="node4" class="node">
<title>svc</title>
<path fill="#3a1e5f" stroke="black" d="M302.77,-249.6C302.77,-249.6 209.32,-249.6 209.32,-249.6 203.32,-249.6 197.32,-243.6 197.32,-237.6 197.32,-237.6 197.32,-213 197.32,-213 197.32,-207 203.32,-201 209.32,-201 209.32,-201 302.77,-201 302.77,-201 308.77,-201 314.77,-207 314.77,-213 314.77,-213 314.77,-237.6 314.77,-237.6 314.77,-243.6 308.77,-249.6 302.77,-249.6"/>
<text xml:space="preserve" text-anchor="middle" x="256.05" y="-228.35" font-family="Helvetica,sans-Serif" font-size="11.00" fill="white">service</text>
<text xml:space="preserve" text-anchor="middle" x="256.05" y="-214.85" font-family="Helvetica,sans-Serif" font-size="11.00" fill="white">(business logic)</text>
</g>
<!-- root&#45;&gt;svc -->
<g id="edge3" class="edge">
<title>root&#45;&gt;svc</title>
<path fill="none" stroke="#888888" d="M135.49,-203.53C152.58,-206.64 170.95,-209.98 188.04,-213.1"/>
<polygon fill="#888888" stroke="#888888" points="195.64,-214.48 187.13,-216.59 192.91,-213.98 187.77,-213.05 187.77,-213.05 187.77,-213.05 192.91,-213.98 188.42,-209.51 195.64,-214.48"/>
</g>
<!-- repo -->
<g id="node5" class="node">
<title>repo</title>
<path fill="#5f3a1e" stroke="black" d="M297.9,-182.6C297.9,-182.6 214.2,-182.6 214.2,-182.6 208.2,-182.6 202.2,-176.6 202.2,-170.6 202.2,-170.6 202.2,-146 202.2,-146 202.2,-140 208.2,-134 214.2,-134 214.2,-134 297.9,-134 297.9,-134 303.9,-134 309.9,-140 309.9,-146 309.9,-146 309.9,-170.6 309.9,-170.6 309.9,-176.6 303.9,-182.6 297.9,-182.6"/>
<text xml:space="preserve" text-anchor="middle" x="256.05" y="-161.35" font-family="Helvetica,sans-Serif" font-size="11.00" fill="white">repository</text>
<text xml:space="preserve" text-anchor="middle" x="256.05" y="-147.85" font-family="Helvetica,sans-Serif" font-size="11.00" fill="white">(data access)</text>
</g>
<!-- root&#45;&gt;repo -->
<g id="edge4" class="edge">
<title>root&#45;&gt;repo</title>
<path fill="none" stroke="#888888" d="M135.49,-179.43C154.27,-176.11 174.58,-172.52 193.05,-169.26"/>
<polygon fill="#888888" stroke="#888888" points="200.75,-167.9 193.5,-172.84 198.01,-168.38 192.87,-169.29 192.87,-169.29 192.87,-169.29 198.01,-168.38 192.24,-165.75 200.75,-167.9"/>
</g>
<!-- cfg -->
<g id="node6" class="node">
<title>cfg</title>
<path fill="#5f1e3a" stroke="black" d="M315.52,-115.6C315.52,-115.6 196.57,-115.6 196.57,-115.6 190.57,-115.6 184.57,-109.6 184.57,-103.6 184.57,-103.6 184.57,-79 184.57,-79 184.57,-73 190.57,-67 196.57,-67 196.57,-67 315.52,-67 315.52,-67 321.52,-67 327.52,-73 327.52,-79 327.52,-79 327.52,-103.6 327.52,-103.6 327.52,-109.6 321.52,-115.6 315.52,-115.6"/>
<text xml:space="preserve" text-anchor="middle" x="256.05" y="-94.35" font-family="Helvetica,sans-Serif" font-size="11.00" fill="white">config</text>
<text xml:space="preserve" text-anchor="middle" x="256.05" y="-80.85" font-family="Helvetica,sans-Serif" font-size="11.00" fill="white">(security &amp; Firebase)</text>
</g>
<!-- root&#45;&gt;cfg -->
<g id="edge5" class="edge">
<title>root&#45;&gt;cfg</title>
<path fill="none" stroke="#888888" d="M94.46,-172.5C114.66,-158.44 143.67,-139.3 170.7,-125.3 174.27,-123.45 177.96,-121.64 181.71,-119.86"/>
<polygon fill="#888888" stroke="#888888" points="188.9,-116.57 183.13,-123.17 186.37,-117.73 181.63,-119.9 181.63,-119.9 181.63,-119.9 186.37,-117.73 180.13,-116.63 188.9,-116.57"/>
</g>
<!-- dto -->
<g id="node7" class="node">
<title>dto</title>
<path fill="#3a5f1e" stroke="black" d="M329.4,-48.6C329.4,-48.6 182.7,-48.6 182.7,-48.6 176.7,-48.6 170.7,-42.6 170.7,-36.6 170.7,-36.6 170.7,-12 170.7,-12 170.7,-6 176.7,0 182.7,0 182.7,0 329.4,0 329.4,0 335.4,0 341.4,-6 341.4,-12 341.4,-12 341.4,-36.6 341.4,-36.6 341.4,-42.6 335.4,-48.6 329.4,-48.6"/>
<text xml:space="preserve" text-anchor="middle" x="256.05" y="-27.35" font-family="Helvetica,sans-Serif" font-size="11.00" fill="white">dto</text>
<text xml:space="preserve" text-anchor="middle" x="256.05" y="-13.85" font-family="Helvetica,sans-Serif" font-size="11.00" fill="white">(request/response objects)</text>
</g>
<!-- root&#45;&gt;dto -->
<g id="edge6" class="edge">
<title>root&#45;&gt;dto</title>
<path fill="none" stroke="#888888" d="M78.47,-172.42C94.55,-144.05 128.45,-90.35 170.7,-58.3 172.76,-56.73 174.91,-55.23 177.12,-53.78"/>
<polygon fill="#888888" stroke="#888888" points="183.8,-49.73 178.83,-56.96 181.42,-51.17 176.96,-53.88 176.96,-53.88 176.96,-53.88 181.42,-51.17 175.09,-50.8 183.8,-49.73"/>
</g>
</g>
</svg>
