<?xml version="1.0" encoding="UTF-8" standalone="no"?>
<!DOCTYPE svg PUBLIC "-//W3C//DTD SVG 1.1//EN"
 "http://www.w3.org/Graphics/SVG/1.1/DTD/svg11.dtd">
<!-- Generated by graphviz version 15.0.0 (20260523.1842)
 -->
<!-- Title: MachineStatus Pages: 1 -->
<svg width="142pt" height="92pt"
 viewBox="0.00 0.00 142.00 92.00" xmlns="http://www.w3.org/2000/svg" xmlns:xlink="http://www.w3.org/1999/xlink">
<g id="graph0" class="graph" transform="scale(1 1) rotate(0) translate(4 88)">
<title>MachineStatus</title>
<!-- Node1 -->
<g id="Node000001" class="node">
<title>Node1</title>
<g id="a_Node000001"><a xlink:title="Operational state of a vixhealthsystem.model.resource.Machinery unit.">
<polygon fill="#999999" stroke="none" points="134.25,-84 0,-84 0,0 134.25,0 134.25,-84"/>
<text xml:space="preserve" text-anchor="start" x="34.5" y="-70.25" font-family="Helvetica,sans-Serif" font-size="10.00">MachineStatus</text>
<text xml:space="preserve" text-anchor="start" x="4" y="-54.25" font-family="Helvetica,sans-Serif" font-size="10.00">+</text>
<text xml:space="preserve" text-anchor="start" x="14" y="-54.25" font-family="Helvetica,sans-Serif" font-size="10.00">WORKING</text>
<text xml:space="preserve" text-anchor="start" x="4" y="-38.25" font-family="Helvetica,sans-Serif" font-size="10.00">+</text>
<text xml:space="preserve" text-anchor="start" x="14" y="-38.25" font-family="Helvetica,sans-Serif" font-size="10.00">FAULTY</text>
<text xml:space="preserve" text-anchor="start" x="4" y="-22.25" font-family="Helvetica,sans-Serif" font-size="10.00">+</text>
<text xml:space="preserve" text-anchor="start" x="14" y="-22.25" font-family="Helvetica,sans-Serif" font-size="10.00">UNDER_MAINTENANCE</text>
<text xml:space="preserve" text-anchor="start" x="65.62" y="-6.25" font-family="Helvetica,sans-Serif" font-size="10.00"> </text>
<polygon fill="#666666" stroke="#666666" points="0,-66 0,-66 134.25,-66 134.25,-66 0,-66"/>
<polygon fill="#666666" stroke="#666666" points="0,-18 0,-18 12,-18 12,-18 0,-18"/>
<polygon fill="#666666" stroke="#666666" points="12,-18 12,-18 134.25,-18 134.25,-18 12,-18"/>
<polygon fill="none" stroke="#666666" points="0,0 0,-84 134.25,-84 134.25,0 0,0"/>
</a>
</g>
</g>
</g>
</svg>
