<?xml version="1.0" encoding="UTF-8" standalone="no"?>
<!DOCTYPE svg PUBLIC "-//W3C//DTD SVG 1.1//EN"
 "http://www.w3.org/Graphics/SVG/1.1/DTD/svg11.dtd">
<!-- Generated by graphviz version 15.0.0 (20260523.1842)
 -->
<!-- Title: PaymentStatus Pages: 1 -->
<svg width="84pt" height="76pt"
 viewBox="0.00 0.00 84.00 76.00" xmlns="http://www.w3.org/2000/svg" xmlns:xlink="http://www.w3.org/1999/xlink">
<g id="graph0" class="graph" transform="scale(1 1) rotate(0) translate(4 72)">
<title>PaymentStatus</title>
<!-- Node1 -->
<g id="Node000001" class="node">
<title>Node1</title>
<g id="a_Node000001"><a xlink:title="Payment state of a patient vixhealthsystem.model.medical.Appointment.">
<polygon fill="#999999" stroke="none" points="75.5,-68 0,-68 0,0 75.5,0 75.5,-68"/>
<text xml:space="preserve" text-anchor="start" x="4" y="-54.25" font-family="Helvetica,sans-Serif" font-size="10.00">PaymentStatus</text>
<text xml:space="preserve" text-anchor="start" x="8.81" y="-38.25" font-family="Helvetica,sans-Serif" font-size="10.00">+</text>
<text xml:space="preserve" text-anchor="start" x="23.62" y="-38.25" font-family="Helvetica,sans-Serif" font-size="10.00">PAID</text>
<text xml:space="preserve" text-anchor="start" x="8.81" y="-22.25" font-family="Helvetica,sans-Serif" font-size="10.00">+</text>
<text xml:space="preserve" text-anchor="start" x="23.62" y="-22.25" font-family="Helvetica,sans-Serif" font-size="10.00">UNPAID</text>
<text xml:space="preserve" text-anchor="start" x="36.25" y="-6.25" font-family="Helvetica,sans-Serif" font-size="10.00"> </text>
<polygon fill="#666666" stroke="#666666" points="0,-50 0,-50 75.5,-50 75.5,-50 0,-50"/>
<polygon fill="#666666" stroke="#666666" points="0,-18 0,-18 21.62,-18 21.62,-18 0,-18"/>
<polygon fill="#666666" stroke="#666666" points="21.62,-18 21.62,-18 75.5,-18 75.5,-18 21.62,-18"/>
<polygon fill="none" stroke="#666666" points="0,0 0,-68 75.5,-68 75.5,0 0,0"/>
</a>
</g>
</g>
</g>
</svg>
