<?xml version="1.0" encoding="UTF-8" standalone="no"?>
<!DOCTYPE svg PUBLIC "-//W3C//DTD SVG 1.1//EN"
 "http://www.w3.org/Graphics/SVG/1.1/DTD/svg11.dtd">
<!-- Generated by graphviz version 15.0.0 (20260523.1842)
 -->
<!-- Title: BedStatus Pages: 1 -->
<svg width="80pt" height="76pt"
 viewBox="0.00 0.00 80.00 76.00" xmlns="http://www.w3.org/2000/svg" xmlns:xlink="http://www.w3.org/1999/xlink">
<g id="graph0" class="graph" transform="scale(1 1) rotate(0) translate(4 72)">
<title>BedStatus</title>
<!-- Node1 -->
<g id="Node000001" class="node">
<title>Node1</title>
<g id="a_Node000001"><a xlink:title="Availability state of a bed inside an vixhealthsystem.model.facility.InternationRoom.">
<polygon fill="#999999" stroke="none" points="72,-68 0,-68 0,0 72,0 72,-68"/>
<text xml:space="preserve" text-anchor="start" x="13.12" y="-54.25" font-family="Helvetica,sans-Serif" font-size="10.00">BedStatus</text>
<text xml:space="preserve" text-anchor="start" x="4" y="-38.25" font-family="Helvetica,sans-Serif" font-size="10.00">+</text>
<text xml:space="preserve" text-anchor="start" x="14" y="-38.25" font-family="Helvetica,sans-Serif" font-size="10.00">FREE</text>
<text xml:space="preserve" text-anchor="start" x="4" y="-22.25" font-family="Helvetica,sans-Serif" font-size="10.00">+</text>
<text xml:space="preserve" text-anchor="start" x="14" y="-22.25" font-family="Helvetica,sans-Serif" font-size="10.00">OCCUPIED</text>
<text xml:space="preserve" text-anchor="start" x="34.5" y="-6.25" font-family="Helvetica,sans-Serif" font-size="10.00"> </text>
<polygon fill="#666666" stroke="#666666" points="0,-50 0,-50 72,-50 72,-50 0,-50"/>
<polygon fill="#666666" stroke="#666666" points="0,-18 0,-18 12,-18 12,-18 0,-18"/>
<polygon fill="#666666" stroke="#666666" points="12,-18 12,-18 72,-18 72,-18 12,-18"/>
<polygon fill="none" stroke="#666666" points="0,0 0,-68 72,-68 72,0 0,0"/>
</a>
</g>
</g>
</g>
</svg>
