<?xml version="1.0" encoding="UTF-8" standalone="no"?>
<!DOCTYPE svg PUBLIC "-//W3C//DTD SVG 1.1//EN"
 "http://www.w3.org/Graphics/SVG/1.1/DTD/svg11.dtd">
<!-- Generated by graphviz version 15.0.0 (20260523.1842)
 -->
<!-- Title: Graphical Class Hierarchy Pages: 1 -->
<svg width="261pt" height="446pt"
 viewBox="0.00 0.00 261.00 446.00" xmlns="http://www.w3.org/2000/svg" xmlns:xlink="http://www.w3.org/1999/xlink">
<g id="graph0" class="graph" transform="scale(1 1) rotate(0) translate(4 442)">
<title>Graphical Class Hierarchy</title>
<!-- Node0 -->
<g id="Node000000" class="node">
<title>Node0</title>
<g id="a_Node000000"><a xlink:title=" ">
<polygon fill="#e0e0e0" stroke="#999999" points="79,-229 0,-229 0,-209 79,-209 79,-229"/>
<text xml:space="preserve" text-anchor="middle" x="39.5" y="-215.5" font-family="Helvetica,sans-Serif" font-size="10.00">JpaRepository</text>
</a>
</g>
</g>
<!-- Node1 -->
<g id="Node000001" class="node">
<title>Node1</title>
<g id="a_Node000001"><a xlink:href="interfacecom_1_1nvivx_1_1vixhealthsystem_1_1repository_1_1_department_repository.html" target="_top" xlink:title="JPA repository for Department entities.">
<polygon fill="white" stroke="#666666" points="241.25,-438 127,-438 127,-418 241.25,-418 241.25,-438"/>
<text xml:space="preserve" text-anchor="middle" x="184.12" y="-424.5" font-family="Helvetica,sans-Serif" font-size="10.00">DepartmentRepository</text>
</a>
</g>
</g>
<!-- Node0&#45;&gt;Node1 -->
<g id="edge1_Node000000_Node000001" class="edge">
<title>Node0&#45;&gt;Node1</title>
<g id="a_edge1_Node000000_Node000001"><a xlink:title=" ">
<path fill="none" stroke="#63b8ff" d="M42.77,-240.83C48.05,-280.3 64.81,-363.67 115,-409 118.83,-412.46 123.23,-415.29 127.92,-417.61"/>
<polygon fill="#63b8ff" stroke="#63b8ff" points="46.25,-240.46 41.59,-230.95 39.3,-241.29 46.25,-240.46"/>
</a>
</g>
</g>
<!-- Node2 -->
<g id="Node000002" class="node">
<title>Node2</title>
<g id="a_Node000002"><a xlink:href="interfacecom_1_1nvivx_1_1vixhealthsystem_1_1repository_1_1_employee_repository.html" target="_top" xlink:title="JPA repository for Employee entities.">
<polygon fill="white" stroke="#666666" points="237.5,-400 130.75,-400 130.75,-380 237.5,-380 237.5,-400"/>
<text xml:space="preserve" text-anchor="middle" x="184.12" y="-386.5" font-family="Helvetica,sans-Serif" font-size="10.00">EmployeeRepository</text>
</a>
</g>
</g>
<!-- Node0&#45;&gt;Node2 -->
<g id="edge2_Node000000_Node000002" class="edge">
<title>Node0&#45;&gt;Node2</title>
<g id="a_edge2_Node000000_Node000002"><a xlink:title=" ">
<path fill="none" stroke="#63b8ff" d="M45.06,-240.35C53.22,-273.34 73.52,-336.52 115,-371 119.53,-374.77 124.76,-377.79 130.26,-380.22"/>
<polygon fill="#63b8ff" stroke="#63b8ff" points="48.51,-239.73 42.84,-230.77 41.69,-241.31 48.51,-239.73"/>
</a>
</g>
</g>
<!-- Node3 -->
<g id="Node000003" class="node">
<title>Node3</title>
<g id="a_Node000003"><a xlink:href="interfacecom_1_1nvivx_1_1vixhealthsystem_1_1repository_1_1_machinery_repository.html" target="_top" xlink:title="JPA repository for Machinery entities.">
<polygon fill="white" stroke="#666666" points="238.25,-362 130,-362 130,-342 238.25,-342 238.25,-362"/>
<text xml:space="preserve" text-anchor="middle" x="184.12" y="-348.5" font-family="Helvetica,sans-Serif" font-size="10.00">MachineryRepository</text>
</a>
</g>
</g>
<!-- Node0&#45;&gt;Node3 -->
<g id="edge3_Node000000_Node000003" class="edge">
<title>Node0&#45;&gt;Node3</title>
<g id="a_edge3_Node000000_Node000003"><a xlink:title=" ">
<path fill="none" stroke="#63b8ff" d="M48.59,-239.75C59.69,-265.49 82.08,-308.9 115,-333 119.66,-336.41 124.9,-339.21 130.36,-341.5"/>
<polygon fill="#63b8ff" stroke="#63b8ff" points="51.91,-238.62 44.87,-230.7 45.44,-241.28 51.91,-238.62"/>
</a>
</g>
</g>
<!-- Node4 -->
<g id="Node000004" class="node">
<title>Node4</title>
<g id="a_Node000004"><a xlink:href="interfacecom_1_1nvivx_1_1vixhealthsystem_1_1repository_1_1_medical_condition_repository.html" target="_top" xlink:title="JPA repository for MedicalCondition entities.">
<polygon fill="white" stroke="#666666" points="253.25,-324 115,-324 115,-304 253.25,-304 253.25,-324"/>
<text xml:space="preserve" text-anchor="middle" x="184.12" y="-310.5" font-family="Helvetica,sans-Serif" font-size="10.00">MedicalConditionRepository</text>
</a>
</g>
</g>
<!-- Node0&#45;&gt;Node4 -->
<g id="edge4_Node000000_Node000004" class="edge">
<title>Node0&#45;&gt;Node4</title>
<g id="a_edge4_Node000000_Node000004"><a xlink:title=" ">
<path fill="none" stroke="#63b8ff" d="M54.34,-237.99C67.92,-255.29 90.17,-280.33 115,-295 120.81,-298.44 127.27,-301.27 133.84,-303.61"/>
<polygon fill="#63b8ff" stroke="#63b8ff" points="57.48,-236.33 48.64,-230.49 51.9,-240.57 57.48,-236.33"/>
</a>
</g>
</g>
<!-- Node5 -->
<g id="Node000005" class="node">
<title>Node5</title>
<g id="a_Node000005"><a xlink:href="interfacecom_1_1nvivx_1_1vixhealthsystem_1_1repository_1_1_medical_facility_repository.html" target="_top" xlink:title="JPA repository for MedicalFacility entities.">
<polygon fill="white" stroke="#666666" points="248.38,-286 119.88,-286 119.88,-266 248.38,-266 248.38,-286"/>
<text xml:space="preserve" text-anchor="middle" x="184.12" y="-272.5" font-family="Helvetica,sans-Serif" font-size="10.00">MedicalFacilityRepository</text>
</a>
</g>
</g>
<!-- Node0&#45;&gt;Node5 -->
<g id="edge5_Node000000_Node000005" class="edge">
<title>Node0&#45;&gt;Node5</title>
<g id="a_edge5_Node000000_Node000005"><a xlink:title=" ">
<path fill="none" stroke="#63b8ff" d="M68.21,-234.81C81.98,-242.22 99.05,-250.78 115,-257 123.12,-260.17 131.98,-263.04 140.54,-265.54"/>
<polygon fill="#63b8ff" stroke="#63b8ff" points="70.18,-231.89 59.73,-230.14 66.81,-238.03 70.18,-231.89"/>
</a>
</g>
</g>
<!-- Node6 -->
<g id="Node000006" class="node">
<title>Node6</title>
<g id="a_Node000006"><a xlink:href="interfacecom_1_1nvivx_1_1vixhealthsystem_1_1repository_1_1_medical_record_repository.html" target="_top" xlink:title="JPA repository for MedicalRecord entities.">
<polygon fill="white" stroke="#666666" points="248.38,-248 119.88,-248 119.88,-228 248.38,-228 248.38,-248"/>
<text xml:space="preserve" text-anchor="middle" x="184.12" y="-234.5" font-family="Helvetica,sans-Serif" font-size="10.00">MedicalRecordRepository</text>
</a>
</g>
</g>
<!-- Node0&#45;&gt;Node6 -->
<g id="edge6_Node000000_Node000006" class="edge">
<title>Node0&#45;&gt;Node6</title>
<g id="a_edge6_Node000000_Node000006"><a xlink:title=" ">
<path fill="none" stroke="#63b8ff" d="M90.87,-225.71C100.13,-226.94 109.91,-228.25 119.5,-229.52"/>
<polygon fill="#63b8ff" stroke="#63b8ff" points="91.35,-222.24 80.97,-224.39 90.42,-229.18 91.35,-222.24"/>
</a>
</g>
</g>
<!-- Node7 -->
<g id="Node000007" class="node">
<title>Node7</title>
<g id="a_Node000007"><a xlink:href="interfacecom_1_1nvivx_1_1vixhealthsystem_1_1repository_1_1_patient_repository.html" target="_top" xlink:title="JPA repository for Patient entities.">
<polygon fill="white" stroke="#666666" points="231.12,-210 137.12,-210 137.12,-190 231.12,-190 231.12,-210"/>
<text xml:space="preserve" text-anchor="middle" x="184.12" y="-196.5" font-family="Helvetica,sans-Serif" font-size="10.00">PatientRepository</text>
</a>
</g>
</g>
<!-- Node0&#45;&gt;Node7 -->
<g id="edge7_Node000000_Node000007" class="edge">
<title>Node0&#45;&gt;Node7</title>
<g id="a_edge7_Node000000_Node000007"><a xlink:title=" ">
<path fill="none" stroke="#63b8ff" d="M90.65,-212.32C105.68,-210.32 122.09,-208.13 136.86,-206.16"/>
<polygon fill="#63b8ff" stroke="#63b8ff" points="90.42,-208.82 80.97,-213.61 91.35,-215.76 90.42,-208.82"/>
</a>
</g>
</g>
<!-- Node8 -->
<g id="Node000008" class="node">
<title>Node8</title>
<g id="a_Node000008"><a xlink:href="interfacecom_1_1nvivx_1_1vixhealthsystem_1_1repository_1_1_prescription_repository.html" target="_top" xlink:title="JPA repository for Prescription entities.">
<polygon fill="white" stroke="#666666" points="241.62,-172 126.62,-172 126.62,-152 241.62,-152 241.62,-172"/>
<text xml:space="preserve" text-anchor="middle" x="184.12" y="-158.5" font-family="Helvetica,sans-Serif" font-size="10.00">PrescriptionRepository</text>
</a>
</g>
</g>
<!-- Node0&#45;&gt;Node8 -->
<g id="edge8_Node000000_Node000008" class="edge">
<title>Node0&#45;&gt;Node8</title>
<g id="a_edge8_Node000000_Node000008"><a xlink:title=" ">
<path fill="none" stroke="#63b8ff" d="M68.21,-203.19C81.98,-195.78 99.05,-187.22 115,-181 123.12,-177.83 131.98,-174.96 140.54,-172.46"/>
<polygon fill="#63b8ff" stroke="#63b8ff" points="66.81,-199.97 59.73,-207.86 70.18,-206.11 66.81,-199.97"/>
</a>
</g>
</g>
<!-- Node9 -->
<g id="Node000009" class="node">
<title>Node9</title>
<g id="a_Node000009"><a xlink:href="interfacecom_1_1nvivx_1_1vixhealthsystem_1_1repository_1_1_resource_repository.html" target="_top" xlink:title="JPA repository for Resource entities (medical supplies and consumables).">
<polygon fill="white" stroke="#666666" points="236.75,-134 131.5,-134 131.5,-114 236.75,-114 236.75,-134"/>
<text xml:space="preserve" text-anchor="middle" x="184.12" y="-120.5" font-family="Helvetica,sans-Serif" font-size="10.00">ResourceRepository</text>
</a>
</g>
</g>
<!-- Node0&#45;&gt;Node9 -->
<g id="edge9_Node000000_Node000009" class="edge">
<title>Node0&#45;&gt;Node9</title>
<g id="a_edge9_Node000000_Node000009"><a xlink:title=" ">
<path fill="none" stroke="#63b8ff" d="M54.34,-200.01C67.92,-182.71 90.17,-157.67 115,-143 120.81,-139.56 127.27,-136.73 133.84,-134.39"/>
<polygon fill="#63b8ff" stroke="#63b8ff" points="51.9,-197.43 48.64,-207.51 57.48,-201.67 51.9,-197.43"/>
</a>
</g>
</g>
<!-- Node10 -->
<g id="Node000010" class="node">
<title>Node10</title>
<g id="a_Node000010"><a xlink:href="interfacecom_1_1nvivx_1_1vixhealthsystem_1_1repository_1_1_room_repository.html" target="_top" xlink:title="JPA repository for Room entities.">
<polygon fill="white" stroke="#666666" points="228.88,-96 139.38,-96 139.38,-76 228.88,-76 228.88,-96"/>
<text xml:space="preserve" text-anchor="middle" x="184.12" y="-82.5" font-family="Helvetica,sans-Serif" font-size="10.00">RoomRepository</text>
</a>
</g>
</g>
<!-- Node0&#45;&gt;Node10 -->
<g id="edge10_Node000000_Node000010" class="edge">
<title>Node0&#45;&gt;Node10</title>
<g id="a_edge10_Node000000_Node000010"><a xlink:title=" ">
<path fill="none" stroke="#63b8ff" d="M48.59,-198.25C59.69,-172.51 82.08,-129.1 115,-105 122.13,-99.78 130.64,-95.99 139.19,-93.24"/>
<polygon fill="#63b8ff" stroke="#63b8ff" points="45.44,-196.72 44.87,-207.3 51.91,-199.38 45.44,-196.72"/>
</a>
</g>
</g>
<!-- Node11 -->
<g id="Node000011" class="node">
<title>Node11</title>
<g id="a_Node000011"><a xlink:href="interfacecom_1_1nvivx_1_1vixhealthsystem_1_1repository_1_1_storage_repository.html" target="_top" xlink:title="JPA repository for Storage entities.">
<polygon fill="white" stroke="#666666" points="232.62,-58 135.62,-58 135.62,-38 232.62,-38 232.62,-58"/>
<text xml:space="preserve" text-anchor="middle" x="184.12" y="-44.5" font-family="Helvetica,sans-Serif" font-size="10.00">StorageRepository</text>
</a>
</g>
</g>
<!-- Node0&#45;&gt;Node11 -->
<g id="edge11_Node000000_Node000011" class="edge">
<title>Node0&#45;&gt;Node11</title>
<g id="a_edge11_Node000000_Node000011"><a xlink:title=" ">
<path fill="none" stroke="#63b8ff" d="M45.06,-197.65C53.22,-164.66 73.52,-101.48 115,-67 120.85,-62.13 127.87,-58.51 135.14,-55.81"/>
<polygon fill="#63b8ff" stroke="#63b8ff" points="41.69,-196.69 42.84,-207.23 48.51,-198.27 41.69,-196.69"/>
</a>
</g>
</g>
<!-- Node12 -->
<g id="Node000012" class="node">
<title>Node12</title>
<g id="a_Node000012"><a xlink:href="interfacecom_1_1nvivx_1_1vixhealthsystem_1_1repository_1_1_surgery_repository.html" target="_top" xlink:title="JPA repository for Surgery entities.">
<polygon fill="white" stroke="#666666" points="232.62,-20 135.62,-20 135.62,0 232.62,0 232.62,-20"/>
<text xml:space="preserve" text-anchor="middle" x="184.12" y="-6.5" font-family="Helvetica,sans-Serif" font-size="10.00">SurgeryRepository</text>
</a>
</g>
</g>
<!-- Node0&#45;&gt;Node12 -->
<g id="edge12_Node000000_Node000012" class="edge">
<title>Node0&#45;&gt;Node12</title>
<g id="a_edge12_Node000000_Node000012"><a xlink:title=" ">
<path fill="none" stroke="#63b8ff" d="M42.77,-197.17C48.05,-157.7 64.81,-74.33 115,-29 120.74,-23.82 127.78,-20.03 135.14,-17.27"/>
<polygon fill="#63b8ff" stroke="#63b8ff" points="39.3,-196.71 41.59,-207.05 46.25,-197.54 39.3,-196.71"/>
</a>
</g>
</g>
</g>
</svg>
