<?xml version="1.0" encoding="UTF-8" standalone="no"?>
<!DOCTYPE svg PUBLIC "-//W3C//DTD SVG 1.1//EN"
 "http://www.w3.org/Graphics/SVG/1.1/DTD/svg11.dtd">
<!-- Generated by graphviz version 15.0.0 (20260523.1842)
 -->
<!-- Title: Graphical Class Hierarchy Pages: 1 -->
<svg width="279pt" height="180pt"
 viewBox="0.00 0.00 279.00 180.00" xmlns="http://www.w3.org/2000/svg" xmlns:xlink="http://www.w3.org/1999/xlink">
<g id="graph0" class="graph" transform="scale(1 1) rotate(0) translate(4 176)">
<title>Graphical Class Hierarchy</title>
<!-- Node0 -->
<g id="Node000000" class="node">
<title>Node0</title>
<g id="a_Node000000"><a xlink:href="classcom_1_1nvivx_1_1vixhealthsystem_1_1model_1_1person_1_1_person.html" target="_top" xlink:title="Base class for all people in the system.">
<polygon fill="white" stroke="#666666" points="46.75,-115 0,-115 0,-95 46.75,-95 46.75,-115"/>
<text xml:space="preserve" text-anchor="middle" x="23.38" y="-101.5" font-family="Helvetica,sans-Serif" font-size="10.00">Person</text>
</a>
</g>
</g>
<!-- Node1 -->
<g id="Node000001" class="node">
<title>Node1</title>
<g id="a_Node000001"><a xlink:href="classcom_1_1nvivx_1_1vixhealthsystem_1_1model_1_1person_1_1_patient.html" target="_top" xlink:title="Represents a patient in the VIX Health System.">
<polygon fill="white" stroke="#666666" points="135.88,-134 89.12,-134 89.12,-114 135.88,-114 135.88,-134"/>
<text xml:space="preserve" text-anchor="middle" x="112.5" y="-120.5" font-family="Helvetica,sans-Serif" font-size="10.00">Patient</text>
</a>
</g>
</g>
<!-- Node0&#45;&gt;Node1 -->
<g id="edge14_Node000000_Node000001" class="edge">
<title>Node0&#45;&gt;Node1</title>
<g id="a_edge14_Node000000_Node000001"><a xlink:title=" ">
<path fill="none" stroke="#63b8ff" d="M58,-112.33C68.32,-114.58 79.43,-117.01 88.84,-119.06"/>
<polygon fill="#63b8ff" stroke="#63b8ff" points="58.81,-108.93 48.29,-110.22 57.32,-115.77 58.81,-108.93"/>
</a>
</g>
</g>
<!-- Node2 -->
<g id="Node000002" class="node">
<title>Node2</title>
<g id="a_Node000002"><a xlink:href="classcom_1_1nvivx_1_1vixhealthsystem_1_1model_1_1person_1_1employee_1_1_employee.html" target="_top" xlink:title="Represents a generic employee in the system.">
<polygon fill="white" stroke="#666666" points="142.25,-96 82.75,-96 82.75,-76 142.25,-76 142.25,-96"/>
<text xml:space="preserve" text-anchor="middle" x="112.5" y="-82.5" font-family="Helvetica,sans-Serif" font-size="10.00">Employee</text>
</a>
</g>
</g>
<!-- Node0&#45;&gt;Node2 -->
<g id="edge15_Node000000_Node000002" class="edge">
<title>Node0&#45;&gt;Node2</title>
<g id="a_edge15_Node000000_Node000002"><a xlink:title=" ">
<path fill="none" stroke="#63b8ff" d="M57.86,-97.7C66.01,-95.92 74.65,-94.04 82.56,-92.31"/>
<polygon fill="#63b8ff" stroke="#63b8ff" points="57.32,-94.23 48.29,-99.78 58.81,-101.07 57.32,-94.23"/>
</a>
</g>
</g>
<!-- Node3 -->
<g id="Node000003" class="node">
<title>Node3</title>
<g id="a_Node000003"><a xlink:href="classcom_1_1nvivx_1_1vixhealthsystem_1_1model_1_1person_1_1employee_1_1_buyer.html" target="_top" xlink:title="Part of the purchasing department.">
<polygon fill="white" stroke="#666666" points="245.25,-172 203.75,-172 203.75,-152 245.25,-152 245.25,-172"/>
<text xml:space="preserve" text-anchor="middle" x="224.5" y="-158.5" font-family="Helvetica,sans-Serif" font-size="10.00">Buyer</text>
</a>
</g>
</g>
<!-- Node2&#45;&gt;Node3 -->
<g id="edge16_Node000002_Node000003" class="edge">
<title>Node2&#45;&gt;Node3</title>
<g id="a_edge16_Node000002_Node000003"><a xlink:title=" ">
<path fill="none" stroke="#63b8ff" d="M139.84,-103.04C140.66,-103.69 141.47,-104.34 142.25,-105 160.07,-119.96 159.11,-129.77 178.25,-143 185.96,-148.33 195.4,-152.59 203.66,-155.71"/>
<polygon fill="#63b8ff" stroke="#63b8ff" points="142.07,-100.33 131.91,-97.32 137.97,-106.01 142.07,-100.33"/>
</a>
</g>
</g>
<!-- Node4 -->
<g id="Node000004" class="node">
<title>Node4</title>
<g id="a_Node000004"><a xlink:href="classcom_1_1nvivx_1_1vixhealthsystem_1_1model_1_1person_1_1employee_1_1_medical_specialist.html" target="_top" xlink:title="Represents medical personnel such as doctors, surgeons, specialists and nurses.">
<polygon fill="white" stroke="#666666" points="270.75,-134 178.25,-134 178.25,-114 270.75,-114 270.75,-134"/>
<text xml:space="preserve" text-anchor="middle" x="224.5" y="-120.5" font-family="Helvetica,sans-Serif" font-size="10.00">MedicalSpecialist</text>
</a>
</g>
</g>
<!-- Node2&#45;&gt;Node4 -->
<g id="edge17_Node000002_Node000004" class="edge">
<title>Node2&#45;&gt;Node4</title>
<g id="a_edge17_Node000002_Node000004"><a xlink:title=" ">
<path fill="none" stroke="#63b8ff" d="M153.41,-99.79C166.61,-104.35 181.07,-109.34 193.41,-113.6"/>
<polygon fill="#63b8ff" stroke="#63b8ff" points="154.71,-96.53 144.12,-96.58 152.43,-103.15 154.71,-96.53"/>
</a>
</g>
</g>
<!-- Node5 -->
<g id="Node000005" class="node">
<title>Node5</title>
<g id="a_Node000005"><a xlink:href="classcom_1_1nvivx_1_1vixhealthsystem_1_1model_1_1person_1_1employee_1_1_secretary.html" target="_top" xlink:title="Handles administrative tasks such as appointment scheduling, patient admissions and discharges.">
<polygon fill="white" stroke="#666666" points="253.5,-96 195.5,-96 195.5,-76 253.5,-76 253.5,-96"/>
<text xml:space="preserve" text-anchor="middle" x="224.5" y="-82.5" font-family="Helvetica,sans-Serif" font-size="10.00">Secretary</text>
</a>
</g>
</g>
<!-- Node2&#45;&gt;Node5 -->
<g id="edge18_Node000002_Node000005" class="edge">
<title>Node2&#45;&gt;Node5</title>
<g id="a_edge18_Node000002_Node000005"><a xlink:title=" ">
<path fill="none" stroke="#63b8ff" d="M153.86,-86C167.63,-86 182.71,-86 195.32,-86"/>
<polygon fill="#63b8ff" stroke="#63b8ff" points="154.2,-82.5 144.2,-86 154.2,-89.5 154.2,-82.5"/>
</a>
</g>
</g>
<!-- Node6 -->
<g id="Node000006" class="node">
<title>Node6</title>
<g id="a_Node000006"><a xlink:href="classcom_1_1nvivx_1_1vixhealthsystem_1_1model_1_1person_1_1employee_1_1_staff_manager.html" target="_top" xlink:title="Manages employee accounts in the system.">
<polygon fill="white" stroke="#666666" points="261.38,-58 187.62,-58 187.62,-38 261.38,-38 261.38,-58"/>
<text xml:space="preserve" text-anchor="middle" x="224.5" y="-44.5" font-family="Helvetica,sans-Serif" font-size="10.00">StaffManager</text>
</a>
</g>
</g>
<!-- Node2&#45;&gt;Node6 -->
<g id="edge19_Node000002_Node000006" class="edge">
<title>Node2&#45;&gt;Node6</title>
<g id="a_edge19_Node000002_Node000006"><a xlink:title=" ">
<path fill="none" stroke="#63b8ff" d="M153.41,-72.21C166.61,-67.65 181.07,-62.66 193.41,-58.4"/>
<polygon fill="#63b8ff" stroke="#63b8ff" points="152.43,-68.85 144.12,-75.42 154.71,-75.47 152.43,-68.85"/>
</a>
</g>
</g>
<!-- Node7 -->
<g id="Node000007" class="node">
<title>Node7</title>
<g id="a_Node000007"><a xlink:href="classcom_1_1nvivx_1_1vixhealthsystem_1_1model_1_1person_1_1employee_1_1_technician.html" target="_top" xlink:title="Responsible for managing and maintaining medical machinery.">
<polygon fill="white" stroke="#666666" points="255.75,-20 193.25,-20 193.25,0 255.75,0 255.75,-20"/>
<text xml:space="preserve" text-anchor="middle" x="224.5" y="-6.5" font-family="Helvetica,sans-Serif" font-size="10.00">Technician</text>
</a>
</g>
</g>
<!-- Node2&#45;&gt;Node7 -->
<g id="edge20_Node000002_Node000007" class="edge">
<title>Node2&#45;&gt;Node7</title>
<g id="a_edge20_Node000002_Node000007"><a xlink:title=" ">
<path fill="none" stroke="#63b8ff" d="M131.25,-67.51C143.59,-55.41 160.89,-39.88 178.25,-29 183.45,-25.74 189.3,-22.82 195.03,-20.29"/>
<polygon fill="#63b8ff" stroke="#63b8ff" points="128.84,-64.97 124.27,-74.53 133.81,-69.9 128.84,-64.97"/>
</a>
</g>
</g>
</g>
</svg>
