<?xml version="1.0" encoding="UTF-8" standalone="no"?>
<!DOCTYPE svg PUBLIC "-//W3C//DTD SVG 1.1//EN"
 "http://www.w3.org/Graphics/SVG/1.1/DTD/svg11.dtd">
<!-- Generated by graphviz version 15.0.0 (20260523.1842)
 -->
<!-- Title: Graphical Class Hierarchy Pages: 1 -->
<svg width="179pt" height="104pt"
 viewBox="0.00 0.00 179.00 104.00" xmlns="http://www.w3.org/2000/svg" xmlns:xlink="http://www.w3.org/1999/xlink">
<g id="graph0" class="graph" transform="scale(1 1) rotate(0) translate(4 100)">
<title>Graphical Class Hierarchy</title>
<!-- Node0 -->
<g id="Node000000" class="node">
<title>Node0</title>
<g id="a_Node000000"><a xlink:href="classvixhealthsystem_1_1model_1_1facility_1_1_room.html" target="_top" xlink:title="Represents a generic room inside a medical facility.">
<polygon fill="white" stroke="#666666" points="42.25,-58 0,-58 0,-38 42.25,-38 42.25,-58"/>
<text xml:space="preserve" text-anchor="middle" x="21.12" y="-44.5" font-family="Helvetica,sans-Serif" font-size="10.00">Room</text>
</a>
</g>
</g>
<!-- Node1 -->
<g id="Node000001" class="node">
<title>Node1</title>
<g id="a_Node000001"><a xlink:href="classvixhealthsystem_1_1model_1_1facility_1_1_internation_room.html" target="_top" xlink:title="Represents an inpatient room used for patient hospitalization.">
<polygon fill="white" stroke="#666666" points="168.5,-96 80.5,-96 80.5,-76 168.5,-76 168.5,-96"/>
<text xml:space="preserve" text-anchor="middle" x="124.5" y="-82.5" font-family="Helvetica,sans-Serif" font-size="10.00">InternationRoom</text>
</a>
</g>
</g>
<!-- Node0&#45;&gt;Node1 -->
<g id="edge21_Node000000_Node000001" class="edge">
<title>Node0&#45;&gt;Node1</title>
<g id="a_edge21_Node000000_Node000001"><a xlink:title=" ">
<path fill="none" stroke="#63b8ff" d="M53.38,-59.72C66.91,-64.79 82.61,-70.67 95.72,-75.58"/>
<polygon fill="#63b8ff" stroke="#63b8ff" points="54.65,-56.45 44.06,-56.22 52.19,-63.01 54.65,-56.45"/>
</a>
</g>
</g>
<!-- Node2 -->
<g id="Node000002" class="node">
<title>Node2</title>
<g id="a_Node000002"><a xlink:href="classvixhealthsystem_1_1model_1_1facility_1_1_office.html" target="_top" xlink:title="Represents an office assigned to an employee.">
<polygon fill="white" stroke="#666666" points="145.25,-58 103.75,-58 103.75,-38 145.25,-38 145.25,-58"/>
<text xml:space="preserve" text-anchor="middle" x="124.5" y="-44.5" font-family="Helvetica,sans-Serif" font-size="10.00">Office</text>
</a>
</g>
</g>
<!-- Node0&#45;&gt;Node2 -->
<g id="edge22_Node000000_Node000002" class="edge">
<title>Node0&#45;&gt;Node2</title>
<g id="a_edge22_Node000000_Node000002"><a xlink:title=" ">
<path fill="none" stroke="#63b8ff" d="M53.78,-48C69.98,-48 89.2,-48 103.36,-48"/>
<polygon fill="#63b8ff" stroke="#63b8ff" points="54.15,-44.5 44.15,-48 54.15,-51.5 54.15,-44.5"/>
</a>
</g>
</g>
<!-- Node3 -->
<g id="Node000003" class="node">
<title>Node3</title>
<g id="a_Node000003"><a xlink:href="classvixhealthsystem_1_1model_1_1facility_1_1_specialized_room.html" target="_top" xlink:title="Represents a specialized room containing medical equipment.">
<polygon fill="white" stroke="#666666" points="170.75,-20 78.25,-20 78.25,0 170.75,0 170.75,-20"/>
<text xml:space="preserve" text-anchor="middle" x="124.5" y="-6.5" font-family="Helvetica,sans-Serif" font-size="10.00">SpecializedRoom</text>
</a>
</g>
</g>
<!-- Node0&#45;&gt;Node3 -->
<g id="edge23_Node000000_Node000003" class="edge">
<title>Node0&#45;&gt;Node3</title>
<g id="a_edge23_Node000000_Node000003"><a xlink:title=" ">
<path fill="none" stroke="#63b8ff" d="M53.38,-36.28C66.91,-31.21 82.61,-25.33 95.72,-20.42"/>
<polygon fill="#63b8ff" stroke="#63b8ff" points="52.19,-32.99 44.06,-39.78 54.65,-39.55 52.19,-32.99"/>
</a>
</g>
</g>
</g>
</svg>
