<?xml version="1.0" encoding="UTF-8" standalone="no"?>
<!DOCTYPE svg PUBLIC "-//W3C//DTD SVG 1.1//EN"
 "http://www.w3.org/Graphics/SVG/1.1/DTD/svg11.dtd">
<!-- Generated by graphviz version 15.0.0 (20260523.1842)
 -->
<!-- Title: Graphical Class Hierarchy Pages: 1 -->
<svg width="291pt" height="218pt"
 viewBox="0.00 0.00 291.00 218.00" xmlns="http://www.w3.org/2000/svg" xmlns:xlink="http://www.w3.org/1999/xlink">
<g id="graph0" class="graph" transform="scale(1 1) rotate(0) translate(4 214)">
<title>Graphical Class Hierarchy</title>
<!-- Node0 -->
<g id="Node000000" class="node">
<title>Node0</title>
<g id="a_Node000000"><a xlink:title=" ">
<polygon fill="#e0e0e0" stroke="#999999" points="96.25,-115 0,-115 0,-95 96.25,-95 96.25,-115"/>
<text xml:space="preserve" text-anchor="middle" x="48.12" y="-101.5" font-family="Helvetica,sans-Serif" font-size="10.00">RuntimeException</text>
</a>
</g>
</g>
<!-- Node1 -->
<g id="Node000001" class="node">
<title>Node1</title>
<g id="a_Node000001"><a xlink:href="classvixhealthsystem_1_1exception_1_1_appointment_conflict_exception.html" target="_top" xlink:title="Thrown when a new appointment overlaps with an existing one for the same specialist.">
<polygon fill="white" stroke="#666666" points="281.38,-210 133.38,-210 133.38,-190 281.38,-190 281.38,-210"/>
<text xml:space="preserve" text-anchor="middle" x="207.38" y="-196.5" font-family="Helvetica,sans-Serif" font-size="10.00">AppointmentConflictException</text>
</a>
</g>
</g>
<!-- Node0&#45;&gt;Node1 -->
<g id="edge24_Node000000_Node000001" class="edge">
<title>Node0&#45;&gt;Node1</title>
<g id="a_edge24_Node000000_Node000001"><a xlink:title=" ">
<path fill="none" stroke="#63b8ff" d="M64.53,-123.58C79.93,-140.95 105.15,-166.35 132.25,-181 138.56,-184.41 145.51,-187.23 152.54,-189.55"/>
<polygon fill="#63b8ff" stroke="#63b8ff" points="67.59,-121.76 58.41,-116.47 62.28,-126.33 67.59,-121.76"/>
</a>
</g>
</g>
<!-- Node2 -->
<g id="Node000002" class="node">
<title>Node2</title>
<g id="a_Node000002"><a xlink:href="classvixhealthsystem_1_1exception_1_1_patient_not_found_exception.html" target="_top" xlink:title="Thrown when a patient lookup by ID or fiscal code yields no result.">
<polygon fill="white" stroke="#666666" points="273.88,-172 140.88,-172 140.88,-152 273.88,-152 273.88,-172"/>
<text xml:space="preserve" text-anchor="middle" x="207.38" y="-158.5" font-family="Helvetica,sans-Serif" font-size="10.00">PatientNotFoundException</text>
</a>
</g>
</g>
<!-- Node0&#45;&gt;Node2 -->
<g id="edge25_Node000000_Node000002" class="edge">
<title>Node0&#45;&gt;Node2</title>
<g id="a_edge25_Node000000_Node000002"><a xlink:title=" ">
<path fill="none" stroke="#63b8ff" d="M79.28,-120.36C94.83,-127.87 114.26,-136.64 132.25,-143 141.27,-146.19 151.08,-149.09 160.52,-151.6"/>
<polygon fill="#63b8ff" stroke="#63b8ff" points="81.08,-117.34 70.56,-116.07 77.99,-123.62 81.08,-117.34"/>
</a>
</g>
</g>
<!-- Node3 -->
<g id="Node000003" class="node">
<title>Node3</title>
<g id="a_Node000003"><a xlink:href="classvixhealthsystem_1_1exception_1_1_resource_not_found_exception.html" target="_top" xlink:title="Thrown when a hospital resource (supply, machinery, room) cannot be located.">
<polygon fill="white" stroke="#666666" points="279.5,-134 135.25,-134 135.25,-114 279.5,-114 279.5,-134"/>
<text xml:space="preserve" text-anchor="middle" x="207.38" y="-120.5" font-family="Helvetica,sans-Serif" font-size="10.00">ResourceNotFoundException</text>
</a>
</g>
</g>
<!-- Node0&#45;&gt;Node3 -->
<g id="edge26_Node000000_Node000003" class="edge">
<title>Node0&#45;&gt;Node3</title>
<g id="a_edge26_Node000000_Node000003"><a xlink:title=" ">
<path fill="none" stroke="#63b8ff" d="M108,-112.11C116.76,-113.17 125.87,-114.27 134.85,-115.36"/>
<polygon fill="#63b8ff" stroke="#63b8ff" points="108.58,-108.66 98.23,-110.93 107.74,-115.61 108.58,-108.66"/>
</a>
</g>
</g>
<!-- Node4 -->
<g id="Node000004" class="node">
<title>Node4</title>
<g id="a_Node000004"><a xlink:href="classvixhealthsystem_1_1exception_1_1_slot_not_available_exception.html" target="_top" xlink:title="Thrown when a requested appointment time slot is already occupied.">
<polygon fill="white" stroke="#666666" points="273.5,-96 141.25,-96 141.25,-76 273.5,-76 273.5,-96"/>
<text xml:space="preserve" text-anchor="middle" x="207.38" y="-82.5" font-family="Helvetica,sans-Serif" font-size="10.00">SlotNotAvailableException</text>
</a>
</g>
</g>
<!-- Node0&#45;&gt;Node4 -->
<g id="edge27_Node000000_Node000004" class="edge">
<title>Node0&#45;&gt;Node4</title>
<g id="a_edge27_Node000000_Node000004"><a xlink:title=" ">
<path fill="none" stroke="#63b8ff" d="M108.11,-97.87C118.82,-96.58 130.06,-95.22 140.94,-93.91"/>
<polygon fill="#63b8ff" stroke="#63b8ff" points="107.74,-94.39 98.23,-99.07 108.58,-101.34 107.74,-94.39"/>
</a>
</g>
</g>
<!-- Node5 -->
<g id="Node000005" class="node">
<title>Node5</title>
<g id="a_Node000005"><a xlink:href="classvixhealthsystem_1_1exception_1_1_unauthorized_access_exception.html" target="_top" xlink:title="Thrown when a user attempts an action they are not authorised to perform.">
<polygon fill="white" stroke="#666666" points="282.5,-58 132.25,-58 132.25,-38 282.5,-38 282.5,-58"/>
<text xml:space="preserve" text-anchor="middle" x="207.38" y="-44.5" font-family="Helvetica,sans-Serif" font-size="10.00">UnauthorizedAccessException</text>
</a>
</g>
</g>
<!-- Node0&#45;&gt;Node5 -->
<g id="edge28_Node000000_Node000005" class="edge">
<title>Node0&#45;&gt;Node5</title>
<g id="a_edge28_Node000000_Node000005"><a xlink:title=" ">
<path fill="none" stroke="#63b8ff" d="M79.28,-89.64C94.83,-82.13 114.26,-73.36 132.25,-67 141.27,-63.81 151.08,-60.91 160.52,-58.4"/>
<polygon fill="#63b8ff" stroke="#63b8ff" points="77.99,-86.38 70.56,-93.93 81.08,-92.66 77.99,-86.38"/>
</a>
</g>
</g>
<!-- Node6 -->
<g id="Node000006" class="node">
<title>Node6</title>
<g id="a_Node000006"><a xlink:href="classvixhealthsystem_1_1exception_1_1_vacation_not_found_exception.html" target="_top" xlink:title="Thrown when a vacation request with a given identifier cannot be found.">
<polygon fill="white" stroke="#666666" points="277.25,-20 137.5,-20 137.5,0 277.25,0 277.25,-20"/>
<text xml:space="preserve" text-anchor="middle" x="207.38" y="-6.5" font-family="Helvetica,sans-Serif" font-size="10.00">VacationNotFoundException</text>
</a>
</g>
</g>
<!-- Node0&#45;&gt;Node6 -->
<g id="edge29_Node000000_Node000006" class="edge">
<title>Node0&#45;&gt;Node6</title>
<g id="a_edge29_Node000000_Node000006"><a xlink:title=" ">
<path fill="none" stroke="#63b8ff" d="M64.53,-86.42C79.93,-69.05 105.15,-43.65 132.25,-29 138.56,-25.59 145.51,-22.77 152.54,-20.45"/>
<polygon fill="#63b8ff" stroke="#63b8ff" points="62.28,-83.67 58.41,-93.53 67.59,-88.24 62.28,-83.67"/>
</a>
</g>
</g>
</g>
</svg>
