<?xml version="1.0" encoding="UTF-8" standalone="no"?>
<!DOCTYPE svg PUBLIC "-//W3C//DTD SVG 1.1//EN"
 "http://www.w3.org/Graphics/SVG/1.1/DTD/svg11.dtd">
<!-- Generated by graphviz version 15.0.0 (20260523.1842)
 -->
<!-- Title: PrescriptionRepository Pages: 1 -->
<svg width="149pt" height="264pt"
 viewBox="0.00 0.00 149.00 264.00" xmlns="http://www.w3.org/2000/svg" xmlns:xlink="http://www.w3.org/1999/xlink">
<g id="graph0" class="graph" transform="scale(1 1) rotate(0) translate(4 260)">
<title>PrescriptionRepository</title>
<!-- Node1 -->
<g id="Node000001" class="node">
<title>Node1</title>
<g id="a_Node000001"><a xlink:title="JPA repository for Prescription entities.">
<polygon fill="#999999" stroke="none" points="141,-156 0,-156 0,0 141,0 141,-156"/>
<text xml:space="preserve" text-anchor="start" x="21" y="-142.25" font-family="Helvetica,sans-Serif" font-size="10.00">PrescriptionRepository</text>
<text xml:space="preserve" text-anchor="start" x="69" y="-126.25" font-family="Helvetica,sans-Serif" font-size="10.00"> </text>
<text xml:space="preserve" text-anchor="start" x="4" y="-110.25" font-family="Helvetica,sans-Serif" font-size="10.00">+</text>
<text xml:space="preserve" text-anchor="start" x="14" y="-110.25" font-family="Helvetica,sans-Serif" font-size="10.00">List&lt; Prescription</text>
<text xml:space="preserve" text-anchor="start" x="14" y="-98.25" font-family="Helvetica,sans-Serif" font-size="10.00"> &gt; findByMedicalRecordId</text>
<text xml:space="preserve" text-anchor="start" x="14" y="-86.25" font-family="Helvetica,sans-Serif" font-size="10.00">(Long medicalRecordId)</text>
<text xml:space="preserve" text-anchor="start" x="4" y="-70.25" font-family="Helvetica,sans-Serif" font-size="10.00">+</text>
<text xml:space="preserve" text-anchor="start" x="14" y="-70.25" font-family="Helvetica,sans-Serif" font-size="10.00">List&lt; Prescription</text>
<text xml:space="preserve" text-anchor="start" x="14" y="-58.25" font-family="Helvetica,sans-Serif" font-size="10.00"> &gt; findByMedicalSpecialist</text>
<text xml:space="preserve" text-anchor="start" x="14" y="-46.25" font-family="Helvetica,sans-Serif" font-size="10.00">Id(Long medicalSpecialistId)</text>
<text xml:space="preserve" text-anchor="start" x="4" y="-30.25" font-family="Helvetica,sans-Serif" font-size="10.00">+</text>
<text xml:space="preserve" text-anchor="start" x="14" y="-30.25" font-family="Helvetica,sans-Serif" font-size="10.00">List&lt; Prescription</text>
<text xml:space="preserve" text-anchor="start" x="14" y="-18.25" font-family="Helvetica,sans-Serif" font-size="10.00"> &gt; findByMedication</text>
<text xml:space="preserve" text-anchor="start" x="14" y="-6.25" font-family="Helvetica,sans-Serif" font-size="10.00">(String medication)</text>
<polygon fill="#666666" stroke="#666666" points="0,-138 0,-138 141,-138 141,-138 0,-138"/>
<polygon fill="#666666" stroke="#666666" points="0,-122 0,-122 141,-122 141,-122 0,-122"/>
<polygon fill="none" stroke="#666666" points="0,0 0,-156 141,-156 141,0 0,0"/>
</a>
</g>
</g>
<!-- Node2 -->
<g id="Node000002" class="node">
<title>Node2</title>
<g id="a_Node000002"><a xlink:title=" ">
<polygon fill="white" stroke="none" points="137.88,-256 3.12,-256 3.12,-192 137.88,-192 137.88,-256"/>
<text xml:space="preserve" text-anchor="start" x="7.12" y="-242.25" font-family="Helvetica,sans-Serif" font-size="10.00">JpaRepository&lt; Prescription,</text>
<text xml:space="preserve" text-anchor="start" x="54" y="-230.25" font-family="Helvetica,sans-Serif" font-size="10.00"> Long &gt;</text>
<text xml:space="preserve" text-anchor="start" x="69" y="-214.25" font-family="Helvetica,sans-Serif" font-size="10.00"> </text>
<text xml:space="preserve" text-anchor="start" x="69" y="-198.25" font-family="Helvetica,sans-Serif" font-size="10.00"> </text>
<polygon fill="#bfbfbf" stroke="#bfbfbf" points="3.12,-226 3.12,-226 137.88,-226 137.88,-226 3.12,-226"/>
<polygon fill="#bfbfbf" stroke="#bfbfbf" points="3.12,-210 3.12,-210 137.88,-210 137.88,-210 3.12,-210"/>
<polygon fill="none" stroke="#bfbfbf" points="3.12,-192 3.12,-256 137.88,-256 137.88,-192 3.12,-192"/>
</a>
</g>
</g>
<!-- Node2&#45;&gt;Node1 -->
<g id="edge1_Node000001_Node000002" class="edge">
<title>Node2&#45;&gt;Node1</title>
<g id="a_edge1_Node000001_Node000002"><a xlink:title=" ">
<path fill="none" stroke="#63b8ff" d="M70.5,-180.72C70.5,-172.89 70.5,-164.49 70.5,-155.99"/>
<polygon fill="none" stroke="#63b8ff" points="67,-180.59 70.5,-190.59 74,-180.59 67,-180.59"/>
</a>
</g>
</g>
</g>
</svg>
