<?xml version="1.0" encoding="UTF-8" standalone="no"?>
<!DOCTYPE svg PUBLIC "-//W3C//DTD SVG 1.1//EN"
 "http://www.w3.org/Graphics/SVG/1.1/DTD/svg11.dtd">
<!-- Generated by graphviz version 15.0.0 (20260523.1842)
 -->
<!-- Title: MachineryRepository Pages: 1 -->
<svg width="174pt" height="252pt"
 viewBox="0.00 0.00 174.00 252.00" xmlns="http://www.w3.org/2000/svg" xmlns:xlink="http://www.w3.org/1999/xlink">
<g id="graph0" class="graph" transform="scale(1 1) rotate(0) translate(4 248)">
<title>MachineryRepository</title>
<!-- Node1 -->
<g id="Node000001" class="node">
<title>Node1</title>
<g id="a_Node000001"><a xlink:title="JPA repository for Machinery entities.">
<polygon fill="#999999" stroke="none" points="165.75,-144 0,-144 0,0 165.75,0 165.75,-144"/>
<text xml:space="preserve" text-anchor="start" x="36.75" y="-130.25" font-family="Helvetica,sans-Serif" font-size="10.00">MachineryRepository</text>
<text xml:space="preserve" text-anchor="start" x="81.38" y="-114.25" font-family="Helvetica,sans-Serif" font-size="10.00"> </text>
<text xml:space="preserve" text-anchor="start" x="4" y="-98.25" font-family="Helvetica,sans-Serif" font-size="10.00">+</text>
<text xml:space="preserve" text-anchor="start" x="14" y="-98.25" font-family="Helvetica,sans-Serif" font-size="10.00">List&lt; Machinery &gt; findBy</text>
<text xml:space="preserve" text-anchor="start" x="14" y="-86.25" font-family="Helvetica,sans-Serif" font-size="10.00">Status(MachineStatus status)</text>
<text xml:space="preserve" text-anchor="start" x="4" y="-70.25" font-family="Helvetica,sans-Serif" font-size="10.00">+</text>
<text xml:space="preserve" text-anchor="start" x="14" y="-70.25" font-family="Helvetica,sans-Serif" font-size="10.00">List&lt; Machinery &gt; findBy</text>
<text xml:space="preserve" text-anchor="start" x="14" y="-58.25" font-family="Helvetica,sans-Serif" font-size="10.00">SpecializedRoomId(Long</text>
<text xml:space="preserve" text-anchor="start" x="14" y="-46.25" font-family="Helvetica,sans-Serif" font-size="10.00"> roomId)</text>
<text xml:space="preserve" text-anchor="start" x="4" y="-30.25" font-family="Helvetica,sans-Serif" font-size="10.00">+</text>
<text xml:space="preserve" text-anchor="start" x="14" y="-30.25" font-family="Helvetica,sans-Serif" font-size="10.00">List&lt; Machinery &gt; findBy</text>
<text xml:space="preserve" text-anchor="start" x="14" y="-18.25" font-family="Helvetica,sans-Serif" font-size="10.00">StatusOrderByNameAsc(Machine</text>
<text xml:space="preserve" text-anchor="start" x="14" y="-6.25" font-family="Helvetica,sans-Serif" font-size="10.00">Status status)</text>
<polygon fill="#666666" stroke="#666666" points="0,-126 0,-126 165.75,-126 165.75,-126 0,-126"/>
<polygon fill="#666666" stroke="#666666" points="0,-110 0,-110 165.75,-110 165.75,-110 0,-110"/>
<polygon fill="none" stroke="#666666" points="0,0 0,-144 165.75,-144 165.75,0 0,0"/>
</a>
</g>
</g>
<!-- Node2 -->
<g id="Node000002" class="node">
<title>Node2</title>
<g id="a_Node000002"><a xlink:title=" ">
<polygon fill="white" stroke="none" points="146.5,-244 19.25,-244 19.25,-180 146.5,-180 146.5,-244"/>
<text xml:space="preserve" text-anchor="start" x="23.25" y="-230.25" font-family="Helvetica,sans-Serif" font-size="10.00">JpaRepository&lt; Machinery,</text>
<text xml:space="preserve" text-anchor="start" x="66.38" y="-218.25" font-family="Helvetica,sans-Serif" font-size="10.00"> Long &gt;</text>
<text xml:space="preserve" text-anchor="start" x="81.38" y="-202.25" font-family="Helvetica,sans-Serif" font-size="10.00"> </text>
<text xml:space="preserve" text-anchor="start" x="81.38" y="-186.25" font-family="Helvetica,sans-Serif" font-size="10.00"> </text>
<polygon fill="#bfbfbf" stroke="#bfbfbf" points="19.25,-214 19.25,-214 146.5,-214 146.5,-214 19.25,-214"/>
<polygon fill="#bfbfbf" stroke="#bfbfbf" points="19.25,-198 19.25,-198 146.5,-198 146.5,-198 19.25,-198"/>
<polygon fill="none" stroke="#bfbfbf" points="19.25,-180 19.25,-244 146.5,-244 146.5,-180 19.25,-180"/>
</a>
</g>
</g>
<!-- Node2&#45;&gt;Node1 -->
<g id="edge1_Node000001_Node000002" class="edge">
<title>Node2&#45;&gt;Node1</title>
<g id="a_edge1_Node000001_Node000002"><a xlink:title=" ">
<path fill="none" stroke="#63b8ff" d="M82.88,-168.59C82.88,-160.74 82.88,-152.34 82.88,-143.9"/>
<polygon fill="none" stroke="#63b8ff" points="79.38,-168.52 82.88,-178.52 86.38,-168.52 79.38,-168.52"/>
</a>
</g>
</g>
</g>
</svg>
