<?xml version="1.0" encoding="UTF-8" standalone="no"?>
<!DOCTYPE svg PUBLIC "-//W3C//DTD SVG 1.1//EN"
 "http://www.w3.org/Graphics/SVG/1.1/DTD/svg11.dtd">
<!-- Generated by graphviz version 15.0.0 (20260523.1842)
 -->
<!-- Title: SurgeryRepository Pages: 1 -->
<svg width="192pt" height="256pt"
 viewBox="0.00 0.00 192.00 256.00" xmlns="http://www.w3.org/2000/svg" xmlns:xlink="http://www.w3.org/1999/xlink">
<g id="graph0" class="graph" transform="scale(1 1) rotate(0) translate(4 252)">
<title>SurgeryRepository</title>
<!-- Node1 -->
<g id="Node000001" class="node">
<title>Node1</title>
<g id="a_Node000001"><a xlink:title="JPA repository for Surgery entities.">
<polygon fill="#999999" stroke="none" points="183.75,-148 0,-148 0,0 183.75,0 183.75,-148"/>
<text xml:space="preserve" text-anchor="start" x="51.38" y="-134.25" font-family="Helvetica,sans-Serif" font-size="10.00">SurgeryRepository</text>
<text xml:space="preserve" text-anchor="start" x="90.38" y="-118.25" font-family="Helvetica,sans-Serif" font-size="10.00"> </text>
<text xml:space="preserve" text-anchor="start" x="4" y="-102.25" font-family="Helvetica,sans-Serif" font-size="10.00">+</text>
<text xml:space="preserve" text-anchor="start" x="14" y="-102.25" font-family="Helvetica,sans-Serif" font-size="10.00">List&lt; Surgery &gt; findByMedical</text>
<text xml:space="preserve" text-anchor="start" x="14" y="-90.25" font-family="Helvetica,sans-Serif" font-size="10.00">RecordId(Long medicalRecordId)</text>
<text xml:space="preserve" text-anchor="start" x="4" y="-74.25" font-family="Helvetica,sans-Serif" font-size="10.00">+</text>
<text xml:space="preserve" text-anchor="start" x="14" y="-74.25" font-family="Helvetica,sans-Serif" font-size="10.00">List&lt; Surgery &gt; findBySpecialized</text>
<text xml:space="preserve" text-anchor="start" x="14" y="-62.25" font-family="Helvetica,sans-Serif" font-size="10.00">RoomId(Long specializedRoomId)</text>
<text xml:space="preserve" text-anchor="start" x="4" y="-46.25" font-family="Helvetica,sans-Serif" font-size="10.00">+</text>
<text xml:space="preserve" text-anchor="start" x="14" y="-46.25" font-family="Helvetica,sans-Serif" font-size="10.00">List&lt; Surgery &gt; findByName</text>
<text xml:space="preserve" text-anchor="start" x="14" y="-34.25" font-family="Helvetica,sans-Serif" font-size="10.00">(String name)</text>
<text xml:space="preserve" text-anchor="start" x="4" y="-18.25" font-family="Helvetica,sans-Serif" font-size="10.00">+</text>
<text xml:space="preserve" text-anchor="start" x="14" y="-18.25" font-family="Helvetica,sans-Serif" font-size="10.00">List&lt; Surgery &gt; findByMedical</text>
<text xml:space="preserve" text-anchor="start" x="14" y="-6.25" font-family="Helvetica,sans-Serif" font-size="10.00">SpecialistId(Long medicalSpecialistId)</text>
<polygon fill="#666666" stroke="#666666" points="0,-130 0,-130 183.75,-130 183.75,-130 0,-130"/>
<polygon fill="#666666" stroke="#666666" points="0,-114 0,-114 183.75,-114 183.75,-114 0,-114"/>
<polygon fill="none" stroke="#666666" points="0,0 0,-148 183.75,-148 183.75,0 0,0"/>
</a>
</g>
</g>
<!-- Node2 -->
<g id="Node000002" class="node">
<title>Node2</title>
<g id="a_Node000002"><a xlink:title=" ">
<polygon fill="white" stroke="none" points="149.88,-248 33.88,-248 33.88,-184 149.88,-184 149.88,-248"/>
<text xml:space="preserve" text-anchor="start" x="37.88" y="-234.25" font-family="Helvetica,sans-Serif" font-size="10.00">JpaRepository&lt; Surgery,</text>
<text xml:space="preserve" text-anchor="start" x="75.38" y="-222.25" font-family="Helvetica,sans-Serif" font-size="10.00"> Long &gt;</text>
<text xml:space="preserve" text-anchor="start" x="90.38" y="-206.25" font-family="Helvetica,sans-Serif" font-size="10.00"> </text>
<text xml:space="preserve" text-anchor="start" x="90.38" y="-190.25" font-family="Helvetica,sans-Serif" font-size="10.00"> </text>
<polygon fill="#bfbfbf" stroke="#bfbfbf" points="33.88,-218 33.88,-218 149.88,-218 149.88,-218 33.88,-218"/>
<polygon fill="#bfbfbf" stroke="#bfbfbf" points="33.88,-202 33.88,-202 149.88,-202 149.88,-202 33.88,-202"/>
<polygon fill="none" stroke="#bfbfbf" points="33.88,-184 33.88,-248 149.88,-248 149.88,-184 33.88,-184"/>
</a>
</g>
</g>
<!-- Node2&#45;&gt;Node1 -->
<g id="edge1_Node000001_Node000002" class="edge">
<title>Node2&#45;&gt;Node1</title>
<g id="a_edge1_Node000001_Node000002"><a xlink:title=" ">
<path fill="none" stroke="#63b8ff" d="M91.88,-173.04C91.88,-165.04 91.88,-156.46 91.88,-147.82"/>
<polygon fill="none" stroke="#63b8ff" points="88.38,-172.76 91.88,-182.76 95.38,-172.76 88.38,-172.76"/>
</a>
</g>
</g>
</g>
</svg>
