<?xml version="1.0" encoding="UTF-8" standalone="no"?>
<!DOCTYPE svg PUBLIC "-//W3C//DTD SVG 1.1//EN"
 "http://www.w3.org/Graphics/SVG/1.1/DTD/svg11.dtd">
<!-- Generated by graphviz version 15.0.0 (20260523.1842)
 -->
<!-- Title: StorageRepository Pages: 1 -->
<svg width="131pt" height="212pt"
 viewBox="0.00 0.00 131.00 212.00" xmlns="http://www.w3.org/2000/svg" xmlns:xlink="http://www.w3.org/1999/xlink">
<g id="graph0" class="graph" transform="scale(1 1) rotate(0) translate(4 208)">
<title>StorageRepository</title>
<!-- Node1 -->
<g id="Node000001" class="node">
<title>Node1</title>
<g id="a_Node000001"><a xlink:title="JPA repository for Storage entities.">
<polygon fill="#999999" stroke="none" points="123,-104 0,-104 0,0 123,0 123,-104"/>
<text xml:space="preserve" text-anchor="start" x="21" y="-90.25" font-family="Helvetica,sans-Serif" font-size="10.00">StorageRepository</text>
<text xml:space="preserve" text-anchor="start" x="60" y="-74.25" font-family="Helvetica,sans-Serif" font-size="10.00"> </text>
<text xml:space="preserve" text-anchor="start" x="4" y="-58.25" font-family="Helvetica,sans-Serif" font-size="10.00">+</text>
<text xml:space="preserve" text-anchor="start" x="14" y="-58.25" font-family="Helvetica,sans-Serif" font-size="10.00">Optional&lt; Storage &gt;</text>
<text xml:space="preserve" text-anchor="start" x="14" y="-46.25" font-family="Helvetica,sans-Serif" font-size="10.00"> findByMedicalFacilityId</text>
<text xml:space="preserve" text-anchor="start" x="14" y="-34.25" font-family="Helvetica,sans-Serif" font-size="10.00">(Long medicalFacilityId)</text>
<text xml:space="preserve" text-anchor="start" x="4" y="-18.25" font-family="Helvetica,sans-Serif" font-size="10.00">+</text>
<text xml:space="preserve" text-anchor="start" x="14" y="-18.25" font-family="Helvetica,sans-Serif" font-size="10.00">List&lt; Object[]&gt; findTotal</text>
<text xml:space="preserve" text-anchor="start" x="14" y="-6.25" font-family="Helvetica,sans-Serif" font-size="10.00">QuantityPerResource()</text>
<polygon fill="#666666" stroke="#666666" points="0,-86 0,-86 123,-86 123,-86 0,-86"/>
<polygon fill="#666666" stroke="#666666" points="0,-70 0,-70 123,-70 123,-70 0,-70"/>
<polygon fill="none" stroke="#666666" points="0,0 0,-104 123,-104 123,0 0,0"/>
</a>
</g>
</g>
<!-- Node2 -->
<g id="Node000002" class="node">
<title>Node2</title>
<g id="a_Node000002"><a xlink:title=" ">
<polygon fill="white" stroke="none" points="119.88,-204 3.12,-204 3.12,-140 119.88,-140 119.88,-204"/>
<text xml:space="preserve" text-anchor="start" x="7.12" y="-190.25" font-family="Helvetica,sans-Serif" font-size="10.00">JpaRepository&lt; Storage,</text>
<text xml:space="preserve" text-anchor="start" x="45" y="-178.25" font-family="Helvetica,sans-Serif" font-size="10.00"> Long &gt;</text>
<text xml:space="preserve" text-anchor="start" x="60" y="-162.25" font-family="Helvetica,sans-Serif" font-size="10.00"> </text>
<text xml:space="preserve" text-anchor="start" x="60" y="-146.25" font-family="Helvetica,sans-Serif" font-size="10.00"> </text>
<polygon fill="#bfbfbf" stroke="#bfbfbf" points="3.12,-174 3.12,-174 119.88,-174 119.88,-174 3.12,-174"/>
<polygon fill="#bfbfbf" stroke="#bfbfbf" points="3.12,-158 3.12,-158 119.88,-158 119.88,-158 3.12,-158"/>
<polygon fill="none" stroke="#bfbfbf" points="3.12,-140 3.12,-204 119.88,-204 119.88,-140 3.12,-140"/>
</a>
</g>
</g>
<!-- Node2&#45;&gt;Node1 -->
<g id="edge1_Node000001_Node000002" class="edge">
<title>Node2&#45;&gt;Node1</title>
<g id="a_edge1_Node000001_Node000002"><a xlink:title=" ">
<path fill="none" stroke="#63b8ff" d="M61.5,-129.07C61.5,-120.84 61.5,-112.13 61.5,-103.65"/>
<polygon fill="none" stroke="#63b8ff" points="58,-128.79 61.5,-138.79 65,-128.79 58,-128.79"/>
</a>
</g>
</g>
</g>
</svg>
