<?xml version="1.0" encoding="UTF-8" standalone="no"?>
<!DOCTYPE svg PUBLIC "-//W3C//DTD SVG 1.1//EN"
 "http://www.w3.org/Graphics/SVG/1.1/DTD/svg11.dtd">
<!-- Generated by graphviz version 15.0.0 (20260523.1842)
 -->
<!-- Title: MedicalConditionRepository Pages: 1 -->
<svg width="166pt" height="240pt"
 viewBox="0.00 0.00 166.00 240.00" xmlns="http://www.w3.org/2000/svg" xmlns:xlink="http://www.w3.org/1999/xlink">
<g id="graph0" class="graph" transform="scale(1 1) rotate(0) translate(4 236)">
<title>MedicalConditionRepository</title>
<!-- Node1 -->
<g id="Node000001" class="node">
<title>Node1</title>
<g id="a_Node000001"><a xlink:title="JPA repository for MedicalCondition entities.">
<polygon fill="#999999" stroke="none" points="150.25,-132 7.75,-132 7.75,0 150.25,0 150.25,-132"/>
<text xml:space="preserve" text-anchor="start" x="17.88" y="-118.25" font-family="Helvetica,sans-Serif" font-size="10.00">MedicalConditionRepository</text>
<text xml:space="preserve" text-anchor="start" x="77.5" y="-102.25" font-family="Helvetica,sans-Serif" font-size="10.00"> </text>
<text xml:space="preserve" text-anchor="start" x="11.75" y="-86.25" font-family="Helvetica,sans-Serif" font-size="10.00">+</text>
<text xml:space="preserve" text-anchor="start" x="21.75" y="-86.25" font-family="Helvetica,sans-Serif" font-size="10.00">List&lt; MedicalCondition</text>
<text xml:space="preserve" text-anchor="start" x="21.75" y="-74.25" font-family="Helvetica,sans-Serif" font-size="10.00"> &gt; findByName(String name)</text>
<text xml:space="preserve" text-anchor="start" x="11.75" y="-58.25" font-family="Helvetica,sans-Serif" font-size="10.00">+</text>
<text xml:space="preserve" text-anchor="start" x="21.75" y="-58.25" font-family="Helvetica,sans-Serif" font-size="10.00">List&lt; MedicalCondition</text>
<text xml:space="preserve" text-anchor="start" x="21.75" y="-46.25" font-family="Helvetica,sans-Serif" font-size="10.00"> &gt; findByMedicalRecordId</text>
<text xml:space="preserve" text-anchor="start" x="21.75" y="-34.25" font-family="Helvetica,sans-Serif" font-size="10.00">(Long medicalRecordId)</text>
<text xml:space="preserve" text-anchor="start" x="11.75" y="-18.25" font-family="Helvetica,sans-Serif" font-size="10.00">+</text>
<text xml:space="preserve" text-anchor="start" x="21.75" y="-18.25" font-family="Helvetica,sans-Serif" font-size="10.00">List&lt; MedicalCondition</text>
<text xml:space="preserve" text-anchor="start" x="21.75" y="-6.25" font-family="Helvetica,sans-Serif" font-size="10.00"> &gt; findByType(String type)</text>
<polygon fill="#666666" stroke="#666666" points="7.75,-114 7.75,-114 150.25,-114 150.25,-114 7.75,-114"/>
<polygon fill="#666666" stroke="#666666" points="7.75,-98 7.75,-98 150.25,-98 150.25,-98 7.75,-98"/>
<polygon fill="none" stroke="#666666" points="7.75,0 7.75,-132 150.25,-132 150.25,0 7.75,0"/>
</a>
</g>
</g>
<!-- Node2 -->
<g id="Node000002" class="node">
<title>Node2</title>
<g id="a_Node000002"><a xlink:title=" ">
<polygon fill="white" stroke="none" points="158,-232 0,-232 0,-168 158,-168 158,-232"/>
<text xml:space="preserve" text-anchor="start" x="4" y="-218.25" font-family="Helvetica,sans-Serif" font-size="10.00">JpaRepository&lt; MedicalCondition,</text>
<text xml:space="preserve" text-anchor="start" x="62.5" y="-206.25" font-family="Helvetica,sans-Serif" font-size="10.00"> Long &gt;</text>
<text xml:space="preserve" text-anchor="start" x="77.5" y="-190.25" font-family="Helvetica,sans-Serif" font-size="10.00"> </text>
<text xml:space="preserve" text-anchor="start" x="77.5" y="-174.25" font-family="Helvetica,sans-Serif" font-size="10.00"> </text>
<polygon fill="#bfbfbf" stroke="#bfbfbf" points="0,-202 0,-202 158,-202 158,-202 0,-202"/>
<polygon fill="#bfbfbf" stroke="#bfbfbf" points="0,-186 0,-186 158,-186 158,-186 0,-186"/>
<polygon fill="none" stroke="#bfbfbf" points="0,-168 0,-232 158,-232 158,-168 0,-168"/>
</a>
</g>
</g>
<!-- Node2&#45;&gt;Node1 -->
<g id="edge1_Node000001_Node000002" class="edge">
<title>Node2&#45;&gt;Node1</title>
<g id="a_edge1_Node000001_Node000002"><a xlink:title=" ">
<path fill="none" stroke="#63b8ff" d="M79,-156.81C79,-148.83 79,-140.32 79,-131.83"/>
<polygon fill="none" stroke="#63b8ff" points="75.5,-156.54 79,-166.54 82.5,-156.54 75.5,-156.54"/>
</a>
</g>
</g>
</g>
</svg>
