<?xml version="1.0" encoding="UTF-8" standalone="no"?>
<!DOCTYPE svg PUBLIC "-//W3C//DTD SVG 1.1//EN"
 "http://www.w3.org/Graphics/SVG/1.1/DTD/svg11.dtd">
<!-- Generated by graphviz version 15.0.0 (20260523.1842)
 -->
<!-- Title: DepartmentRepository Pages: 1 -->
<svg width="142pt" height="212pt"
 viewBox="0.00 0.00 142.00 212.00" xmlns="http://www.w3.org/2000/svg" xmlns:xlink="http://www.w3.org/1999/xlink">
<g id="graph0" class="graph" transform="scale(1 1) rotate(0) translate(4 208)">
<title>DepartmentRepository</title>
<!-- Node1 -->
<g id="Node000001" class="node">
<title>Node1</title>
<g id="a_Node000001"><a xlink:title="JPA repository for Department entities.">
<polygon fill="#999999" stroke="none" points="133.75,-104 0.25,-104 0.25,0 133.75,0 133.75,-104"/>
<text xml:space="preserve" text-anchor="start" x="17.88" y="-90.25" font-family="Helvetica,sans-Serif" font-size="10.00">DepartmentRepository</text>
<text xml:space="preserve" text-anchor="start" x="65.5" y="-74.25" font-family="Helvetica,sans-Serif" font-size="10.00"> </text>
<text xml:space="preserve" text-anchor="start" x="4.25" y="-58.25" font-family="Helvetica,sans-Serif" font-size="10.00">+</text>
<text xml:space="preserve" text-anchor="start" x="14.25" y="-58.25" font-family="Helvetica,sans-Serif" font-size="10.00">List&lt; Department &gt;</text>
<text xml:space="preserve" text-anchor="start" x="14.25" y="-46.25" font-family="Helvetica,sans-Serif" font-size="10.00"> findByName(String name)</text>
<text xml:space="preserve" text-anchor="start" x="4.25" y="-30.25" font-family="Helvetica,sans-Serif" font-size="10.00">+</text>
<text xml:space="preserve" text-anchor="start" x="14.25" y="-30.25" font-family="Helvetica,sans-Serif" font-size="10.00">List&lt; Department &gt;</text>
<text xml:space="preserve" text-anchor="start" x="14.25" y="-18.25" font-family="Helvetica,sans-Serif" font-size="10.00"> findByMedicalFacilityId</text>
<text xml:space="preserve" text-anchor="start" x="14.25" y="-6.25" font-family="Helvetica,sans-Serif" font-size="10.00">(Long facilityId)</text>
<polygon fill="#666666" stroke="#666666" points="0.25,-86 0.25,-86 133.75,-86 133.75,-86 0.25,-86"/>
<polygon fill="#666666" stroke="#666666" points="0.25,-70 0.25,-70 133.75,-70 133.75,-70 0.25,-70"/>
<polygon fill="none" stroke="#666666" points="0.25,0 0.25,-104 133.75,-104 133.75,0 0.25,0"/>
</a>
</g>
</g>
<!-- Node2 -->
<g id="Node000002" class="node">
<title>Node2</title>
<g id="a_Node000002"><a xlink:title=" ">
<polygon fill="white" stroke="none" points="134,-204 0,-204 0,-140 134,-140 134,-204"/>
<text xml:space="preserve" text-anchor="start" x="4" y="-190.25" font-family="Helvetica,sans-Serif" font-size="10.00">JpaRepository&lt; Department,</text>
<text xml:space="preserve" text-anchor="start" x="50.5" y="-178.25" font-family="Helvetica,sans-Serif" font-size="10.00"> Long &gt;</text>
<text xml:space="preserve" text-anchor="start" x="65.5" y="-162.25" font-family="Helvetica,sans-Serif" font-size="10.00"> </text>
<text xml:space="preserve" text-anchor="start" x="65.5" y="-146.25" font-family="Helvetica,sans-Serif" font-size="10.00"> </text>
<polygon fill="#bfbfbf" stroke="#bfbfbf" points="0,-174 0,-174 134,-174 134,-174 0,-174"/>
<polygon fill="#bfbfbf" stroke="#bfbfbf" points="0,-158 0,-158 134,-158 134,-158 0,-158"/>
<polygon fill="none" stroke="#bfbfbf" points="0,-140 0,-204 134,-204 134,-140 0,-140"/>
</a>
</g>
</g>
<!-- Node2&#45;&gt;Node1 -->
<g id="edge1_Node000001_Node000002" class="edge">
<title>Node2&#45;&gt;Node1</title>
<g id="a_edge1_Node000001_Node000002"><a xlink:title=" ">
<path fill="none" stroke="#63b8ff" d="M67,-129.07C67,-120.84 67,-112.13 67,-103.65"/>
<polygon fill="none" stroke="#63b8ff" points="63.5,-128.79 67,-138.79 70.5,-128.79 63.5,-128.79"/>
</a>
</g>
</g>
</g>
</svg>
