<?xml version="1.0" encoding="UTF-8" standalone="no"?>
<!DOCTYPE svg PUBLIC "-//W3C//DTD SVG 1.1//EN"
 "http://www.w3.org/Graphics/SVG/1.1/DTD/svg11.dtd">
<!-- Generated by graphviz version 15.0.0 (20260523.1842)
 -->
<!-- Title: MedicalFacilityRepository Pages: 1 -->
<svg width="156pt" height="172pt"
 viewBox="0.00 0.00 156.00 172.00" xmlns="http://www.w3.org/2000/svg" xmlns:xlink="http://www.w3.org/1999/xlink">
<g id="graph0" class="graph" transform="scale(1 1) rotate(0) translate(4 168)">
<title>MedicalFacilityRepository</title>
<!-- Node1 -->
<g id="Node000001" class="node">
<title>Node1</title>
<g id="a_Node000001"><a xlink:title="JPA repository for MedicalFacility entities.">
<polygon fill="#999999" stroke="none" points="145,-64 2.5,-64 2.5,0 145,0 145,-64"/>
<text xml:space="preserve" text-anchor="start" x="17.5" y="-50.25" font-family="Helvetica,sans-Serif" font-size="10.00">MedicalFacilityRepository</text>
<text xml:space="preserve" text-anchor="start" x="72.25" y="-34.25" font-family="Helvetica,sans-Serif" font-size="10.00"> </text>
<text xml:space="preserve" text-anchor="start" x="6.5" y="-18.25" font-family="Helvetica,sans-Serif" font-size="10.00">+</text>
<text xml:space="preserve" text-anchor="start" x="16.5" y="-18.25" font-family="Helvetica,sans-Serif" font-size="10.00">List&lt; MedicalFacility</text>
<text xml:space="preserve" text-anchor="start" x="16.5" y="-6.25" font-family="Helvetica,sans-Serif" font-size="10.00"> &gt; findByName(String name)</text>
<polygon fill="#666666" stroke="#666666" points="2.5,-46 2.5,-46 145,-46 145,-46 2.5,-46"/>
<polygon fill="#666666" stroke="#666666" points="2.5,-30 2.5,-30 145,-30 145,-30 2.5,-30"/>
<polygon fill="none" stroke="#666666" points="2.5,0 2.5,-64 145,-64 145,0 2.5,0"/>
</a>
</g>
</g>
<!-- Node2 -->
<g id="Node000002" class="node">
<title>Node2</title>
<g id="a_Node000002"><a xlink:title=" ">
<polygon fill="white" stroke="none" points="147.5,-164 0,-164 0,-100 147.5,-100 147.5,-164"/>
<text xml:space="preserve" text-anchor="start" x="4" y="-150.25" font-family="Helvetica,sans-Serif" font-size="10.00">JpaRepository&lt; MedicalFacility,</text>
<text xml:space="preserve" text-anchor="start" x="57.25" y="-138.25" font-family="Helvetica,sans-Serif" font-size="10.00"> Long &gt;</text>
<text xml:space="preserve" text-anchor="start" x="72.25" y="-122.25" font-family="Helvetica,sans-Serif" font-size="10.00"> </text>
<text xml:space="preserve" text-anchor="start" x="72.25" y="-106.25" font-family="Helvetica,sans-Serif" font-size="10.00"> </text>
<polygon fill="#bfbfbf" stroke="#bfbfbf" points="0,-134 0,-134 147.5,-134 147.5,-134 0,-134"/>
<polygon fill="#bfbfbf" stroke="#bfbfbf" points="0,-118 0,-118 147.5,-118 147.5,-118 0,-118"/>
<polygon fill="none" stroke="#bfbfbf" points="0,-100 0,-164 147.5,-164 147.5,-100 0,-100"/>
</a>
</g>
</g>
<!-- Node2&#45;&gt;Node1 -->
<g id="edge1_Node000001_Node000002" class="edge">
<title>Node2&#45;&gt;Node1</title>
<g id="a_edge1_Node000001_Node000002"><a xlink:title=" ">
<path fill="none" stroke="#63b8ff" d="M73.75,-88.77C73.75,-80.44 73.75,-71.84 73.75,-63.97"/>
<polygon fill="none" stroke="#63b8ff" points="70.25,-88.75 73.75,-98.75 77.25,-88.75 70.25,-88.75"/>
</a>
</g>
</g>
</g>
</svg>
