<?xml version="1.0" encoding="UTF-8" standalone="no"?>
<!DOCTYPE svg PUBLIC "-//W3C//DTD SVG 1.1//EN"
 "http://www.w3.org/Graphics/SVG/1.1/DTD/svg11.dtd">
<!-- Generated by graphviz version 15.0.0 (20260523.1842)
 -->
<!-- Title: ResourceRepository Pages: 1 -->
<svg width="181pt" height="200pt"
 viewBox="0.00 0.00 181.00 200.00" xmlns="http://www.w3.org/2000/svg" xmlns:xlink="http://www.w3.org/1999/xlink">
<g id="graph0" class="graph" transform="scale(1 1) rotate(0) translate(4 196)">
<title>ResourceRepository</title>
<!-- Node1 -->
<g id="Node000001" class="node">
<title>Node1</title>
<g id="a_Node000001"><a xlink:title="JPA repository for Resource entities (medical supplies and consumables).">
<polygon fill="#999999" stroke="none" points="173.25,-92 0,-92 0,0 173.25,0 173.25,-92"/>
<text xml:space="preserve" text-anchor="start" x="42" y="-78.25" font-family="Helvetica,sans-Serif" font-size="10.00">ResourceRepository</text>
<text xml:space="preserve" text-anchor="start" x="85.12" y="-62.25" font-family="Helvetica,sans-Serif" font-size="10.00"> </text>
<text xml:space="preserve" text-anchor="start" x="4" y="-46.25" font-family="Helvetica,sans-Serif" font-size="10.00">+</text>
<text xml:space="preserve" text-anchor="start" x="14" y="-46.25" font-family="Helvetica,sans-Serif" font-size="10.00">List&lt; Resource &gt; findByName</text>
<text xml:space="preserve" text-anchor="start" x="14" y="-34.25" font-family="Helvetica,sans-Serif" font-size="10.00">(String name)</text>
<text xml:space="preserve" text-anchor="start" x="4" y="-18.25" font-family="Helvetica,sans-Serif" font-size="10.00">+</text>
<text xml:space="preserve" text-anchor="start" x="14" y="-18.25" font-family="Helvetica,sans-Serif" font-size="10.00">List&lt; Resource &gt; findByName</text>
<text xml:space="preserve" text-anchor="start" x="14" y="-6.25" font-family="Helvetica,sans-Serif" font-size="10.00">ContainingIgnoreCase(String name)</text>
<polygon fill="#666666" stroke="#666666" points="0,-74 0,-74 173.25,-74 173.25,-74 0,-74"/>
<polygon fill="#666666" stroke="#666666" points="0,-58 0,-58 173.25,-58 173.25,-58 0,-58"/>
<polygon fill="none" stroke="#666666" points="0,0 0,-92 173.25,-92 173.25,0 0,0"/>
</a>
</g>
</g>
<!-- Node2 -->
<g id="Node000002" class="node">
<title>Node2</title>
<g id="a_Node000002"><a xlink:title=" ">
<polygon fill="white" stroke="none" points="149.12,-192 24.12,-192 24.12,-128 149.12,-128 149.12,-192"/>
<text xml:space="preserve" text-anchor="start" x="28.12" y="-178.25" font-family="Helvetica,sans-Serif" font-size="10.00">JpaRepository&lt; Resource,</text>
<text xml:space="preserve" text-anchor="start" x="70.12" y="-166.25" font-family="Helvetica,sans-Serif" font-size="10.00"> Long &gt;</text>
<text xml:space="preserve" text-anchor="start" x="85.12" y="-150.25" font-family="Helvetica,sans-Serif" font-size="10.00"> </text>
<text xml:space="preserve" text-anchor="start" x="85.12" y="-134.25" font-family="Helvetica,sans-Serif" font-size="10.00"> </text>
<polygon fill="#bfbfbf" stroke="#bfbfbf" points="24.12,-162 24.12,-162 149.12,-162 149.12,-162 24.12,-162"/>
<polygon fill="#bfbfbf" stroke="#bfbfbf" points="24.12,-146 24.12,-146 149.12,-146 149.12,-146 24.12,-146"/>
<polygon fill="none" stroke="#bfbfbf" points="24.12,-128 24.12,-192 149.12,-192 149.12,-128 24.12,-128"/>
</a>
</g>
</g>
<!-- Node2&#45;&gt;Node1 -->
<g id="edge1_Node000001_Node000002" class="edge">
<title>Node2&#45;&gt;Node1</title>
<g id="a_edge1_Node000001_Node000002"><a xlink:title=" ">
<path fill="none" stroke="#63b8ff" d="M86.62,-116.83C86.62,-108.6 86.62,-99.94 86.62,-91.64"/>
<polygon fill="none" stroke="#63b8ff" points="83.13,-116.59 86.63,-126.59 90.13,-116.59 83.13,-116.59"/>
</a>
</g>
</g>
</g>
</svg>
