<?xml version="1.0" encoding="UTF-8" standalone="no"?>
<!DOCTYPE svg PUBLIC "-//W3C//DTD SVG 1.1//EN"
 "http://www.w3.org/Graphics/SVG/1.1/DTD/svg11.dtd">
<!-- Generated by graphviz version 15.0.0 (20260523.1842)
 -->
<!-- Title: MedicalRecordRepository Pages: 1 -->
<svg width="156pt" height="184pt"
 viewBox="0.00 0.00 156.00 184.00" xmlns="http://www.w3.org/2000/svg" xmlns:xlink="http://www.w3.org/1999/xlink">
<g id="graph0" class="graph" transform="scale(1 1) rotate(0) translate(4 180)">
<title>MedicalRecordRepository</title>
<!-- Node1 -->
<g id="Node000001" class="node">
<title>Node1</title>
<g id="a_Node000001"><a xlink:title="JPA repository for MedicalRecord entities.">
<polygon fill="#999999" stroke="none" points="138.25,-76 10,-76 10,0 138.25,0 138.25,-76"/>
<text xml:space="preserve" text-anchor="start" x="17.88" y="-62.25" font-family="Helvetica,sans-Serif" font-size="10.00">MedicalRecordRepository</text>
<text xml:space="preserve" text-anchor="start" x="72.62" y="-46.25" font-family="Helvetica,sans-Serif" font-size="10.00"> </text>
<text xml:space="preserve" text-anchor="start" x="14" y="-30.25" font-family="Helvetica,sans-Serif" font-size="10.00">+</text>
<text xml:space="preserve" text-anchor="start" x="24" y="-30.25" font-family="Helvetica,sans-Serif" font-size="10.00">Optional&lt; MedicalRecord</text>
<text xml:space="preserve" text-anchor="start" x="24" y="-18.25" font-family="Helvetica,sans-Serif" font-size="10.00"> &gt; findByPatientId(Long</text>
<text xml:space="preserve" text-anchor="start" x="24" y="-6.25" font-family="Helvetica,sans-Serif" font-size="10.00"> patientId)</text>
<polygon fill="#666666" stroke="#666666" points="10,-58 10,-58 138.25,-58 138.25,-58 10,-58"/>
<polygon fill="#666666" stroke="#666666" points="10,-42 10,-42 138.25,-42 138.25,-42 10,-42"/>
<polygon fill="none" stroke="#666666" points="10,0 10,-76 138.25,-76 138.25,0 10,0"/>
</a>
</g>
</g>
<!-- Node2 -->
<g id="Node000002" class="node">
<title>Node2</title>
<g id="a_Node000002"><a xlink:title=" ">
<polygon fill="white" stroke="none" points="148.25,-176 0,-176 0,-112 148.25,-112 148.25,-176"/>
<text xml:space="preserve" text-anchor="start" x="4" y="-162.25" font-family="Helvetica,sans-Serif" font-size="10.00">JpaRepository&lt; MedicalRecord,</text>
<text xml:space="preserve" text-anchor="start" x="57.62" y="-150.25" font-family="Helvetica,sans-Serif" font-size="10.00"> Long &gt;</text>
<text xml:space="preserve" text-anchor="start" x="72.62" y="-134.25" font-family="Helvetica,sans-Serif" font-size="10.00"> </text>
<text xml:space="preserve" text-anchor="start" x="72.62" y="-118.25" font-family="Helvetica,sans-Serif" font-size="10.00"> </text>
<polygon fill="#bfbfbf" stroke="#bfbfbf" points="0,-146 0,-146 148.25,-146 148.25,-146 0,-146"/>
<polygon fill="#bfbfbf" stroke="#bfbfbf" points="0,-130 0,-130 148.25,-130 148.25,-130 0,-130"/>
<polygon fill="none" stroke="#bfbfbf" points="0,-112 0,-176 148.25,-176 148.25,-112 0,-112"/>
</a>
</g>
</g>
<!-- Node2&#45;&gt;Node1 -->
<g id="edge1_Node000001_Node000002" class="edge">
<title>Node2&#45;&gt;Node1</title>
<g id="a_edge1_Node000001_Node000002"><a xlink:title=" ">
<path fill="none" stroke="#63b8ff" d="M74.12,-100.74C74.12,-92.49 74.12,-83.91 74.12,-75.86"/>
<polygon fill="none" stroke="#63b8ff" points="70.63,-100.56 74.13,-110.56 77.63,-100.56 70.63,-100.56"/>
</a>
</g>
</g>
</g>
</svg>
