<?xml version="1.0" encoding="UTF-8" standalone="no"?>
<!DOCTYPE svg PUBLIC "-//W3C//DTD SVG 1.1//EN"
 "http://www.w3.org/Graphics/SVG/1.1/DTD/svg11.dtd">
<!-- Generated by graphviz version 15.0.0 (20260523.1842)
 -->
<!-- Title: RoomRepository Pages: 1 -->
<svg width="151pt" height="200pt"
 viewBox="0.00 0.00 151.00 200.00" xmlns="http://www.w3.org/2000/svg" xmlns:xlink="http://www.w3.org/1999/xlink">
<g id="graph0" class="graph" transform="scale(1 1) rotate(0) translate(4 196)">
<title>RoomRepository</title>
<!-- Node1 -->
<g id="Node000001" class="node">
<title>Node1</title>
<g id="a_Node000001"><a xlink:title="JPA repository for Room entities.">
<polygon fill="#999999" stroke="none" points="143.25,-92 0,-92 0,0 143.25,0 143.25,-92"/>
<text xml:space="preserve" text-anchor="start" x="34.88" y="-78.25" font-family="Helvetica,sans-Serif" font-size="10.00">RoomRepository</text>
<text xml:space="preserve" text-anchor="start" x="70.12" y="-62.25" font-family="Helvetica,sans-Serif" font-size="10.00"> </text>
<text xml:space="preserve" text-anchor="start" x="4" y="-46.25" font-family="Helvetica,sans-Serif" font-size="10.00">+</text>
<text xml:space="preserve" text-anchor="start" x="14" y="-46.25" font-family="Helvetica,sans-Serif" font-size="10.00">List&lt; Room &gt; findByMedical</text>
<text xml:space="preserve" text-anchor="start" x="14" y="-34.25" font-family="Helvetica,sans-Serif" font-size="10.00">FacilityId(Long facilityId)</text>
<text xml:space="preserve" text-anchor="start" x="4" y="-18.25" font-family="Helvetica,sans-Serif" font-size="10.00">+</text>
<text xml:space="preserve" text-anchor="start" x="14" y="-18.25" font-family="Helvetica,sans-Serif" font-size="10.00">List&lt; Room &gt; findByNumber</text>
<text xml:space="preserve" text-anchor="start" x="14" y="-6.25" font-family="Helvetica,sans-Serif" font-size="10.00">(String number)</text>
<polygon fill="#666666" stroke="#666666" points="0,-74 0,-74 143.25,-74 143.25,-74 0,-74"/>
<polygon fill="#666666" stroke="#666666" points="0,-58 0,-58 143.25,-58 143.25,-58 0,-58"/>
<polygon fill="none" stroke="#666666" points="0,0 0,-92 143.25,-92 143.25,0 0,0"/>
</a>
</g>
</g>
<!-- Node2 -->
<g id="Node000002" class="node">
<title>Node2</title>
<g id="a_Node000002"><a xlink:title=" ">
<polygon fill="white" stroke="none" points="126.25,-192 17,-192 17,-128 126.25,-128 126.25,-192"/>
<text xml:space="preserve" text-anchor="start" x="21" y="-178.25" font-family="Helvetica,sans-Serif" font-size="10.00">JpaRepository&lt; Room,</text>
<text xml:space="preserve" text-anchor="start" x="55.12" y="-166.25" font-family="Helvetica,sans-Serif" font-size="10.00"> Long &gt;</text>
<text xml:space="preserve" text-anchor="start" x="70.12" y="-150.25" font-family="Helvetica,sans-Serif" font-size="10.00"> </text>
<text xml:space="preserve" text-anchor="start" x="70.12" y="-134.25" font-family="Helvetica,sans-Serif" font-size="10.00"> </text>
<polygon fill="#bfbfbf" stroke="#bfbfbf" points="17,-162 17,-162 126.25,-162 126.25,-162 17,-162"/>
<polygon fill="#bfbfbf" stroke="#bfbfbf" points="17,-146 17,-146 126.25,-146 126.25,-146 17,-146"/>
<polygon fill="none" stroke="#bfbfbf" points="17,-128 17,-192 126.25,-192 126.25,-128 17,-128"/>
</a>
</g>
</g>
<!-- Node2&#45;&gt;Node1 -->
<g id="edge1_Node000001_Node000002" class="edge">
<title>Node2&#45;&gt;Node1</title>
<g id="a_edge1_Node000001_Node000002"><a xlink:title=" ">
<path fill="none" stroke="#63b8ff" d="M71.62,-116.83C71.62,-108.6 71.62,-99.94 71.62,-91.64"/>
<polygon fill="none" stroke="#63b8ff" points="68.13,-116.59 71.63,-126.59 75.13,-116.59 68.13,-116.59"/>
</a>
</g>
</g>
</g>
</svg>
