<?xml version="1.0" encoding="UTF-8" standalone="no"?>
<!DOCTYPE svg PUBLIC "-//W3C//DTD SVG 1.1//EN"
 "http://www.w3.org/Graphics/SVG/1.1/DTD/svg11.dtd">
<!-- Generated by graphviz version 15.0.0 (20260523.1842)
 -->
<!-- Title: EmployeeRepository Pages: 1 -->
<svg width="185pt" height="336pt"
 viewBox="0.00 0.00 185.00 336.00" xmlns="http://www.w3.org/2000/svg" xmlns:xlink="http://www.w3.org/1999/xlink">
<g id="graph0" class="graph" transform="scale(1 1) rotate(0) translate(4 332)">
<title>EmployeeRepository</title>
<!-- Node1 -->
<g id="Node000001" class="node">
<title>Node1</title>
<g id="a_Node000001"><a xlink:title="JPA repository for Employee entities.">
<polygon fill="#999999" stroke="none" points="177,-228 0,-228 0,0 177,0 177,-228"/>
<text xml:space="preserve" text-anchor="start" x="43.12" y="-214.25" font-family="Helvetica,sans-Serif" font-size="10.00">EmployeeRepository</text>
<text xml:space="preserve" text-anchor="start" x="87" y="-198.25" font-family="Helvetica,sans-Serif" font-size="10.00"> </text>
<text xml:space="preserve" text-anchor="start" x="4" y="-182.25" font-family="Helvetica,sans-Serif" font-size="10.00">+</text>
<text xml:space="preserve" text-anchor="start" x="14" y="-182.25" font-family="Helvetica,sans-Serif" font-size="10.00">List&lt; Employee &gt; findBySurname</text>
<text xml:space="preserve" text-anchor="start" x="14" y="-170.25" font-family="Helvetica,sans-Serif" font-size="10.00">(String surname)</text>
<text xml:space="preserve" text-anchor="start" x="4" y="-154.25" font-family="Helvetica,sans-Serif" font-size="10.00">+</text>
<text xml:space="preserve" text-anchor="start" x="14" y="-154.25" font-family="Helvetica,sans-Serif" font-size="10.00">List&lt; Employee &gt; findByName</text>
<text xml:space="preserve" text-anchor="start" x="14" y="-142.25" font-family="Helvetica,sans-Serif" font-size="10.00">AndSurname(String name,</text>
<text xml:space="preserve" text-anchor="start" x="14" y="-130.25" font-family="Helvetica,sans-Serif" font-size="10.00"> String surname)</text>
<text xml:space="preserve" text-anchor="start" x="4" y="-114.25" font-family="Helvetica,sans-Serif" font-size="10.00">+</text>
<text xml:space="preserve" text-anchor="start" x="14" y="-114.25" font-family="Helvetica,sans-Serif" font-size="10.00">Employee findByEmail</text>
<text xml:space="preserve" text-anchor="start" x="14" y="-102.25" font-family="Helvetica,sans-Serif" font-size="10.00">(String email)</text>
<text xml:space="preserve" text-anchor="start" x="4" y="-86.25" font-family="Helvetica,sans-Serif" font-size="10.00">+</text>
<text xml:space="preserve" text-anchor="start" x="14" y="-86.25" font-family="Helvetica,sans-Serif" font-size="10.00">List&lt; Employee &gt; findByDepartment</text>
<text xml:space="preserve" text-anchor="start" x="14" y="-74.25" font-family="Helvetica,sans-Serif" font-size="10.00">Id(Long departmentId)</text>
<text xml:space="preserve" text-anchor="start" x="4" y="-58.25" font-family="Helvetica,sans-Serif" font-size="10.00">+</text>
<text xml:space="preserve" text-anchor="start" x="14" y="-58.25" font-family="Helvetica,sans-Serif" font-size="10.00">Employee findByFirebaseUid</text>
<text xml:space="preserve" text-anchor="start" x="14" y="-46.25" font-family="Helvetica,sans-Serif" font-size="10.00">(String firebaseUid)</text>
<text xml:space="preserve" text-anchor="start" x="4" y="-30.25" font-family="Helvetica,sans-Serif" font-size="10.00">+</text>
<text xml:space="preserve" text-anchor="start" x="14" y="-30.25" font-family="Helvetica,sans-Serif" font-size="10.00">List&lt; Employee &gt; findByEmployee</text>
<text xml:space="preserve" text-anchor="start" x="14" y="-18.25" font-family="Helvetica,sans-Serif" font-size="10.00">Type(@Param(&quot;type&quot;) Class</text>
<text xml:space="preserve" text-anchor="start" x="14" y="-6.25" font-family="Helvetica,sans-Serif" font-size="10.00">&lt;?&gt; type)</text>
<polygon fill="#666666" stroke="#666666" points="0,-210 0,-210 177,-210 177,-210 0,-210"/>
<polygon fill="#666666" stroke="#666666" points="0,-194 0,-194 177,-194 177,-194 0,-194"/>
<polygon fill="none" stroke="#666666" points="0,0 0,-228 177,-228 177,0 0,0"/>
</a>
</g>
</g>
<!-- Node2 -->
<g id="Node000002" class="node">
<title>Node2</title>
<g id="a_Node000002"><a xlink:title=" ">
<polygon fill="white" stroke="none" points="151.75,-328 25.25,-328 25.25,-264 151.75,-264 151.75,-328"/>
<text xml:space="preserve" text-anchor="start" x="29.25" y="-314.25" font-family="Helvetica,sans-Serif" font-size="10.00">JpaRepository&lt; Employee,</text>
<text xml:space="preserve" text-anchor="start" x="72" y="-302.25" font-family="Helvetica,sans-Serif" font-size="10.00"> Long &gt;</text>
<text xml:space="preserve" text-anchor="start" x="87" y="-286.25" font-family="Helvetica,sans-Serif" font-size="10.00"> </text>
<text xml:space="preserve" text-anchor="start" x="87" y="-270.25" font-family="Helvetica,sans-Serif" font-size="10.00"> </text>
<polygon fill="#bfbfbf" stroke="#bfbfbf" points="25.25,-298 25.25,-298 151.75,-298 151.75,-298 25.25,-298"/>
<polygon fill="#bfbfbf" stroke="#bfbfbf" points="25.25,-282 25.25,-282 151.75,-282 151.75,-282 25.25,-282"/>
<polygon fill="none" stroke="#bfbfbf" points="25.25,-264 25.25,-328 151.75,-328 151.75,-264 25.25,-264"/>
</a>
</g>
</g>
<!-- Node2&#45;&gt;Node1 -->
<g id="edge1_Node000001_Node000002" class="edge">
<title>Node2&#45;&gt;Node1</title>
<g id="a_edge1_Node000001_Node000002"><a xlink:title=" ">
<path fill="none" stroke="#63b8ff" d="M88.5,-252.81C88.5,-245.03 88.5,-236.58 88.5,-227.81"/>
<polygon fill="none" stroke="#63b8ff" points="85,-252.54 88.5,-262.54 92,-252.54 85,-252.54"/>
</a>
</g>
</g>
</g>
</svg>
