<?xml version="1.0" encoding="UTF-8" standalone="no"?>
<!DOCTYPE svg PUBLIC "-//W3C//DTD SVG 1.1//EN"
 "http://www.w3.org/Graphics/SVG/1.1/DTD/svg11.dtd">
<!-- Generated by graphviz version 15.0.0 (20260523.1842)
 -->
<!-- Title: PatientRepository Pages: 1 -->
<svg width="135pt" height="184pt"
 viewBox="0.00 0.00 135.00 184.00" xmlns="http://www.w3.org/2000/svg" xmlns:xlink="http://www.w3.org/1999/xlink">
<g id="graph0" class="graph" transform="scale(1 1) rotate(0) translate(4 180)">
<title>PatientRepository</title>
<!-- Node1 -->
<g id="Node000001" class="node">
<title>Node1</title>
<g id="a_Node000001"><a xlink:title="JPA repository for Patient entities.">
<polygon fill="#999999" stroke="none" points="126.75,-76 0,-76 0,0 126.75,0 126.75,-76"/>
<text xml:space="preserve" text-anchor="start" x="24.38" y="-62.25" font-family="Helvetica,sans-Serif" font-size="10.00">PatientRepository</text>
<text xml:space="preserve" text-anchor="start" x="61.88" y="-46.25" font-family="Helvetica,sans-Serif" font-size="10.00"> </text>
<text xml:space="preserve" text-anchor="start" x="4" y="-30.25" font-family="Helvetica,sans-Serif" font-size="10.00">+</text>
<text xml:space="preserve" text-anchor="start" x="14" y="-30.25" font-family="Helvetica,sans-Serif" font-size="10.00">Optional&lt; Patient &gt;</text>
<text xml:space="preserve" text-anchor="start" x="14" y="-18.25" font-family="Helvetica,sans-Serif" font-size="10.00"> findByFiscalCode(String</text>
<text xml:space="preserve" text-anchor="start" x="14" y="-6.25" font-family="Helvetica,sans-Serif" font-size="10.00"> fiscalCode)</text>
<polygon fill="#666666" stroke="#666666" points="0,-58 0,-58 126.75,-58 126.75,-58 0,-58"/>
<polygon fill="#666666" stroke="#666666" points="0,-42 0,-42 126.75,-42 126.75,-42 0,-42"/>
<polygon fill="none" stroke="#666666" points="0,0 0,-76 126.75,-76 126.75,0 0,0"/>
</a>
</g>
</g>
<!-- Node2 -->
<g id="Node000002" class="node">
<title>Node2</title>
<g id="a_Node000002"><a xlink:title=" ">
<polygon fill="white" stroke="none" points="120.25,-176 6.5,-176 6.5,-112 120.25,-112 120.25,-176"/>
<text xml:space="preserve" text-anchor="start" x="10.5" y="-162.25" font-family="Helvetica,sans-Serif" font-size="10.00">JpaRepository&lt; Patient,</text>
<text xml:space="preserve" text-anchor="start" x="46.88" y="-150.25" font-family="Helvetica,sans-Serif" font-size="10.00"> Long &gt;</text>
<text xml:space="preserve" text-anchor="start" x="61.88" y="-134.25" font-family="Helvetica,sans-Serif" font-size="10.00"> </text>
<text xml:space="preserve" text-anchor="start" x="61.88" y="-118.25" font-family="Helvetica,sans-Serif" font-size="10.00"> </text>
<polygon fill="#bfbfbf" stroke="#bfbfbf" points="6.5,-146 6.5,-146 120.25,-146 120.25,-146 6.5,-146"/>
<polygon fill="#bfbfbf" stroke="#bfbfbf" points="6.5,-130 6.5,-130 120.25,-130 120.25,-130 6.5,-130"/>
<polygon fill="none" stroke="#bfbfbf" points="6.5,-112 6.5,-176 120.25,-176 120.25,-112 6.5,-112"/>
</a>
</g>
</g>
<!-- Node2&#45;&gt;Node1 -->
<g id="edge1_Node000001_Node000002" class="edge">
<title>Node2&#45;&gt;Node1</title>
<g id="a_edge1_Node000001_Node000002"><a xlink:title=" ">
<path fill="none" stroke="#63b8ff" d="M63.38,-100.74C63.38,-92.49 63.38,-83.91 63.38,-75.86"/>
<polygon fill="none" stroke="#63b8ff" points="59.88,-100.56 63.38,-110.56 66.88,-100.56 59.88,-100.56"/>
</a>
</g>
</g>
</g>
</svg>
